<svg width="85" height="286" viewBox="0 0 85 286" fill="none" xmlns="http://www.w3.org/2000/svg">
<g clip-path="url(#clip0_15_5)">
<path d="M15.0271 212.464L15.0271 194.074L36.1304 194.074L36.1304 182.863L5.20459 182.863L5.20459 212.464L15.0271 212.464Z" fill="black"/>
<path d="M39.5923 182.863L39.5923 212.464L49.1599 212.464L49.1599 182.863L39.5923 182.863Z" fill="black"/>
<path d="M13.4147 171.994L13.4147 153.483L17.8251 153.483L17.8251 171.994L20.6704 171.994L23.8656 171.994L28.7027 171.994L31.56 171.994L36.1304 171.994L36.1304 142.662L28.7027 142.662L28.7027 161.173L23.8656 161.173L23.8656 142.662L20.2021 142.662L17.8251 142.662L13.4147 142.662L9.30669 142.662L5.20459 142.662L5.20459 171.994L13.4147 171.994Z" fill="black"/>
<path d="M26.5391 72.7126L26.5391 76.2481L15.2464 76.2481L15.2464 72.7126L5.20459 72.7126L5.20459 102.038L15.2464 102.038L15.2464 98.469L26.5391 98.469L26.5391 102.038L36.1244 102.038L36.1244 72.7126L26.5391 72.7126ZM15.2464 89.7446L15.2464 85.4026L26.5391 85.4026L26.5391 89.7446L15.2464 89.7446Z" fill="black"/>
<path d="M0.462402 232.944L0.462402 243.759L55.7162 243.759L55.7162 232.944L28.0389 232.944L28.0389 223.621L18.4713 223.621L18.4713 232.944L0.462402 232.944Z" fill="black"/>
<path d="M85.0001 254.58L85.0001 247.805L85.0001 243.759L85.0001 225.604L75.4384 225.604L75.4384 243.759L55.7163 243.759L55.7163 254.58L85.0001 254.58Z" fill="black"/>
<path d="M39.6812 2.43996L39.6812 32.041L49.3555 32.041L49.3555 2.43996L39.6812 2.43996Z" fill="black"/>
<path d="M0.462402 122.141L0.462402 133.231L55.7162 133.231L55.7162 122.141L28.0923 122.141L28.0923 112.987L18.418 112.987L18.418 122.141L0.462402 122.141Z" fill="black"/>
<path d="M0.462401 52.2193L0.462402 63.3164L54.2165 63.3164L54.2165 72.7129L63.8908 72.7129L63.8908 54.2089L84.9466 54.2089L84.9466 43.1118L63.8908 43.1118L60.7134 43.1118L54.2165 43.1118L54.2165 52.2193L0.462401 52.2193Z" fill="black"/>
<path d="M22.0162 17.1538L34.939 9.76696L31.2222 0.000768752L-7.10233e-07 17.2479L31.2222 34.4883L34.939 24.7826L22.0162 17.1538Z" fill="black"/>
<path d="M5.2876 267.72C5.2876 277.46 12.2529 285.357 20.8424 285.357C29.4319 285.357 36.3972 277.46 36.3971 267.72C36.3971 257.981 29.4319 250.084 20.8424 250.084C12.2529 250.084 5.2876 257.981 5.2876 267.72ZM26.6043 267.72C26.6043 271.33 24.0256 274.254 20.8424 274.254C17.6591 274.254 15.0805 271.33 15.0805 267.72C15.0805 264.111 17.6591 261.187 20.8424 261.187C24.0256 261.187 26.6043 264.111 26.6043 267.72Z" fill="black"/>
</g>
<defs>
<clipPath id="clip0_15_5">
<rect width="285.357" height="85" fill="white" transform="translate(0 285.357) rotate(-90)"/>
</clipPath>
</defs>
</svg>
