<svg width="24" height="20" viewBox="0 0 24 20" fill="none" xmlns="http://www.w3.org/2000/svg">
<path d="M13.6846 19.5381H15.8818C16.7607 19.5381 17.2266 19.0547 17.2266 18.1934V6.35449L18.5625 18.3867C18.6504 19.248 19.1602 19.6875 20.0303 19.582L22.7812 19.2129C23.6514 19.1074 24.0557 18.5977 23.9678 17.7363L22.4033 3.59473C22.3154 2.7334 21.8057 2.29395 20.9355 2.39941L18.1758 2.76855C17.7451 2.8125 17.4287 2.9707 17.2266 3.2168V1.34473C17.2266 0.483398 16.7607 0 15.8818 0H13.6846C12.8145 0 12.3486 0.483398 12.3486 1.34473V18.1934C12.3486 19.0547 12.8145 19.5381 13.6846 19.5381ZM1.34473 19.5381H2.80371C3.68262 19.5381 4.14844 19.0547 4.14844 18.1934V3.82324C4.14844 2.96191 3.68262 2.47852 2.80371 2.47852H1.34473C0.46582 2.47852 0 2.96191 0 3.82324V18.1934C0 19.0547 0.46582 19.5381 1.34473 19.5381ZM6.53027 19.5381H9.95801C10.8369 19.5381 11.3027 19.0547 11.3027 18.1934V6.94336C11.3027 6.08203 10.8369 5.60742 9.95801 5.60742H6.53027C5.66016 5.60742 5.19434 6.08203 5.19434 6.94336V18.1934C5.19434 19.0547 5.66016 19.5381 6.53027 19.5381ZM7.22461 8.89453C6.88184 8.89453 6.62695 8.63086 6.62695 8.29688C6.62695 7.97168 6.88184 7.7168 7.22461 7.7168H9.29004C9.62402 7.7168 9.87891 7.97168 9.87891 8.29688C9.87891 8.63086 9.62402 8.89453 9.29004 8.89453H7.22461ZM7.22461 17.4287C6.88184 17.4287 6.62695 17.1738 6.62695 16.8398C6.62695 16.5059 6.88184 16.251 7.22461 16.251H9.29004C9.62402 16.251 9.87891 16.5059 9.87891 16.8398C9.87891 17.1738 9.62402 17.4287 9.29004 17.4287H7.22461Z" fill="#FF8A00"/>
</svg>
