<svg width="23" height="119" viewBox="0 0 23 119" fill="none" xmlns="http://www.w3.org/2000/svg">
<path d="M12.942 21.1247C12.942 20.4867 12.986 19.4087 12.524 18.9467C12.15 18.5727 12.128 18.3087 12.084 17.8907L19.234 17.9347C20.598 17.9347 20.95 18.4847 21.346 17.1867C21.632 16.2407 22.094 14.3267 22.006 13.7547C21.874 12.8087 21.412 12.9847 21.126 13.5567C20.708 14.3487 19.806 15.1187 19.146 15.1187L10.874 15.1847C10.698 14.6127 10.412 14.1067 9.84 11.5547C9.29 9.0907 9.246 7.7487 9.224 7.2647C9.202 6.9787 9.18 6.8247 9.224 6.6047C9.246 6.4507 9.708 6.4287 10.016 6.4287L15.12 6.4287C15.186 7.2207 15.406 10.6307 15.626 11.7307C15.868 12.9847 17.496 12.9847 17.562 11.6867C17.606 10.7187 17.716 9.8827 17.188 9.2227C16.748 8.6727 16.55 6.0767 16.638 5.9887C17.056 5.5707 16.968 2.2927 16.902 2.0947C16.396 0.730703 16.088 1.4127 15.912 1.8747C15.516 2.8867 15.032 3.5467 14.658 3.5467L9.114 3.6127C8.982 3.6127 6.298 3.7887 6.474 5.2407C6.694 7.0667 7.222 8.8487 8.036 11.0047C8.718 12.8087 9.928 14.7227 10.28 15.1847L4.252 15.2067C2.888 15.2067 0.863997 15.2287 0.863997 16.1527C0.863997 17.4727 3.13 17.7807 4.78 17.8027L10.28 17.8687C10.302 18.6827 10.346 19.9367 10.434 21.1027C10.522 22.3347 12.964 22.4667 12.942 21.1247ZM10.082 43.1467C10.17 44.3787 12.436 44.4887 12.414 43.0367C12.414 42.4207 12.524 41.7607 12.084 41.1227C11.666 40.5287 11.688 40.2867 11.644 39.8907L19.212 39.9347C20.07 39.9347 20.818 40.6167 21.302 39.2087C21.632 38.2627 22.116 35.9527 22.006 35.6887C21.654 34.8527 21.412 35.4467 21.17 35.6887C20.466 36.3927 20.136 37.1627 18.838 37.1627L9.84 37.2067C9.664 36.4807 9.378 35.4907 9.158 34.3687C8.938 33.2687 8.696 32.0587 8.652 31.4867L10.566 31.5307C10.61 31.7727 11.292 34.9627 14.438 34.8527C17.694 34.7427 18.046 31.2887 18.134 31.0027C18.332 31.0247 18.552 31.1347 18.816 30.8267C18.992 30.6287 19.124 30.2767 19.168 29.8807C19.256 29.2207 18.816 29.5727 18.662 29.6607C18.244 29.8807 18.178 29.5507 18.112 29.3527C18.046 29.1767 17.672 25.1507 13.932 25.5247C11.072 25.8107 10.522 28.8687 10.478 29.0667L8.322 29.1327C8.19 28.5167 7.816 25.1727 8.124 23.7647C8.388 22.5767 7.596 23.2147 7.046 23.9847C5 26.8227 5.88 26.5587 6.1 27.4607C6.276 28.2307 6.518 29.5507 7.024 31.4207C7.86 34.5007 8.916 36.6347 9.158 37.2067L5.066 37.2067C3.416 37.2067 0.907997 37.2067 0.863996 37.9327C0.753997 39.6487 3.944 39.7587 6.122 39.8027L9.95 39.8687C9.972 40.6827 9.994 41.9807 10.082 43.1467ZM14.504 32.3667C13.184 32.4107 12.48 31.4647 12.546 30.1227C12.612 28.5167 13.756 28.0327 14.548 28.0327C15.428 28.0327 16.44 28.8247 16.44 30.2547C16.44 31.2007 15.714 32.3227 14.504 32.3667ZM12.942 65.1247C12.942 64.4867 12.986 63.4087 12.524 62.9467C12.15 62.5727 12.128 62.3087 12.084 61.8907L19.234 61.9347C20.598 61.9347 20.95 62.4847 21.346 61.1867C21.632 60.2407 22.094 58.3267 22.006 57.7547C21.874 56.8087 21.412 56.9847 21.126 57.5567C20.708 58.3487 19.806 59.1187 19.146 59.1187L10.874 59.1847C10.698 58.6127 10.412 58.1067 9.84 55.5547C9.29 53.0907 9.246 51.7487 9.224 51.2647C9.202 50.9787 9.18 50.8247 9.224 50.6047C9.246 50.4507 9.708 50.4287 10.016 50.4287L15.12 50.4287C15.186 51.2207 15.406 54.6307 15.626 55.7307C15.868 56.9847 17.496 56.9847 17.562 55.6867C17.606 54.7187 17.716 53.8827 17.188 53.2227C16.748 52.6727 16.55 50.0767 16.638 49.9887C17.056 49.5707 16.968 46.2927 16.902 46.0947C16.396 44.7307 16.088 45.4127 15.912 45.8747C15.516 46.8867 15.032 47.5467 14.658 47.5467L9.114 47.6127C8.982 47.6127 6.298 47.7887 6.474 49.2407C6.694 51.0667 7.222 52.8487 8.036 55.0047C8.718 56.8087 9.928 58.7227 10.28 59.1847L4.252 59.2067C2.888 59.2067 0.863996 59.2287 0.863996 60.1527C0.863995 61.4727 3.13 61.7807 4.78 61.8027L10.28 61.8687C10.302 62.6827 10.346 63.9367 10.434 65.1027C10.522 66.3347 12.964 66.4667 12.942 65.1247ZM15.428 91.3573C19.212 91.1813 19.454 87.0233 19.52 86.8033C19.674 86.9133 20.51 87.4193 20.928 85.6373C21.06 85.0873 20.752 84.9113 20.378 85.2853C20.092 85.5713 19.564 85.1533 19.52 84.9773C19.454 84.7353 19.102 80.7093 15.274 80.5773C12.59 80.4893 10.742 83.2833 10.742 85.9893C10.742 89.2673 12.656 91.4893 15.428 91.3573ZM15.34 88.7613C13.8 88.8493 12.832 87.7053 12.81 86.0773C12.788 84.4713 13.778 83.1953 15.252 83.2173C16.902 83.2393 17.672 84.6913 17.672 85.9673C17.672 86.8693 17.298 88.6513 15.34 88.7613ZM5.43999 96.7693C6.84799 96.8573 6.86999 93.1613 6.62799 92.8753C6.16599 92.3033 6.03399 90.5873 5.96799 90.0373C6.27599 90.1473 7.77199 90.8293 8.21199 91.0053C8.80599 91.2473 9.44399 91.7313 9.68599 90.7193C9.86199 89.9713 10.082 88.7613 10.038 87.9913C9.99399 87.2873 9.57599 87.3753 9.31199 87.7713C8.89399 88.3873 8.49799 88.2333 7.83799 88.1453L5.81399 87.8593L5.72599 84.6253C6.34199 84.6033 7.48599 84.5813 7.94799 84.5593C8.60799 84.5373 9.35599 84.7573 9.46599 83.7453C9.57599 82.6453 9.554 81.1933 9.42199 80.8193C9.202 80.2253 8.89399 80.4673 8.718 80.8853C8.27799 81.9193 7.52999 82.1173 7.24399 82.1613L5.65999 82.4473C5.61599 81.7873 5.63799 80.8193 5.63799 79.5213C5.63799 78.3333 5.48399 78.3333 6.012 76.2653C6.32 75.0553 5.11 75.9133 4.25199 77.0573C2.73399 79.0813 3.70199 78.5533 3.85599 80.7093C3.89999 81.2593 4.25199 84.0533 4.27399 86.1873C4.29599 89.1573 4.60399 92.8313 4.29599 94.2833C3.85599 96.4393 4.40599 96.7033 5.43999 96.7693ZM16.66 115.887C17.892 116.195 18.508 116.789 18.684 115.579C18.75 115.073 18.992 113.247 18.75 113.005C18.42 112.675 18.2 108.737 18.156 107.373C18.09 105.525 18.09 102.203 18.398 101.345C18.662 100.619 18.002 100.509 17.1 101.675C15.274 104.007 16.264 103.501 16.374 104.975C16.44 105.855 16.616 108.253 16.66 108.825C16.704 109.397 16.902 111.839 17.012 112.807C16 112.741 15.296 112.653 14.614 112.543C14.372 111.245 13.932 109.067 13.558 105.789C13.184 102.445 13.184 100.861 13.448 100.113C13.668 99.4753 13.052 99.2553 12.018 100.641C10.126 103.171 11.094 102.643 11.424 104.183C11.644 105.239 11.732 106.185 12.48 108.539C13.25 110.981 13.514 111.597 13.888 112.477C13.14 112.367 13.118 112.411 11.82 112.213C10.72 112.037 10.038 111.905 9.35599 111.751C8.27799 111.509 8.51999 112.961 9.57599 113.643C9.81799 113.797 10.5 114.237 12.612 114.831C14.042 115.227 15.67 115.645 16.66 115.887ZM5.54999 118.725C6.95799 118.813 6.93599 115.183 6.73799 114.853C6.36399 114.193 6.07799 110.981 5.96799 109.045C6.49599 109.067 7.90399 109.177 8.91599 109.199C9.53199 109.221 10.28 109.573 10.39 108.561C10.522 107.285 10.632 105.459 10.478 105.107C10.258 104.579 9.92799 104.667 9.79599 105.041C9.57599 105.657 9.00399 106.361 8.73999 106.383L5.81399 106.515C5.74799 105.899 5.72599 104.975 5.72599 103.743C5.72599 101.785 5.57199 100.289 6.09999 98.2213C6.40799 97.0113 5.19799 97.9793 4.29599 99.1453C2.71199 101.191 3.67999 100.509 3.87799 102.665C3.94399 103.325 4.31799 106.317 4.38399 108.165C4.49399 111.135 4.69199 114.787 4.38399 116.261C3.94399 118.395 4.47199 118.659 5.54999 118.725Z" fill="#8E7B35"/>
</svg>
