<svg width="68" height="33" viewBox="0 0 68 33" fill="none" xmlns="http://www.w3.org/2000/svg">
<path d="M34.0269 16.0166C37.9614 16.0166 41.2851 12.4776 41.2851 7.89884C41.2851 3.42952 37.9435 0 34.0269 0C30.1104 0 26.7688 3.48425 26.7868 7.93532C26.7868 12.4776 30.0925 16.0166 34.0269 16.0166ZM13.2227 16.4362C16.6542 16.4362 19.5466 13.335 19.5466 9.35821C19.5466 5.45439 16.6362 2.48093 13.2227 2.48093C9.82721 2.48093 6.89881 5.50912 6.91678 9.39469C6.91678 13.335 9.80925 16.4362 13.2227 16.4362ZM54.7773 16.4362C58.1908 16.4362 61.0832 13.335 61.0832 9.39469C61.1012 5.50912 58.1728 2.48093 54.7773 2.48093C51.3818 2.48093 48.4534 5.45439 48.4534 9.35821C48.4534 13.335 51.3638 16.4362 54.7773 16.4362ZM3.32365 33H16.7979C14.8756 30.209 16.9596 24.6998 21.0198 21.4527C19.0436 20.1575 16.4565 19.209 13.2227 19.209C5.19207 19.209 0 25.2106 0 30.1542C0 31.9602 0.898283 33 3.32365 33ZM64.6764 33C67.1017 33 68 31.9602 68 30.1542C68 25.2106 62.8079 19.209 54.7773 19.209C51.5435 19.209 48.9744 20.1575 46.9982 21.4527C51.0584 24.6998 53.1424 30.209 51.2201 33H64.6764ZM22.8164 32.9818H45.2196C48.1839 32.9818 49.2079 32.0697 49.2079 30.3914C49.2079 25.7032 43.3332 19.2454 34.0269 19.2454C24.7028 19.2454 18.846 25.7032 18.846 30.3914C18.846 32.0697 19.87 32.9818 22.8164 32.9818Z" fill="white"/>
</svg>
