<svg width="816" height="87" viewBox="0 0 816 87" fill="none" xmlns="http://www.w3.org/2000/svg">
<rect y="23" width="12" height="816" transform="rotate(-90 0 23)" fill="#508B5C"/>
<rect y="40" width="12" height="816" transform="rotate(-90 0 40)" fill="#E1703A"/>
<rect y="57" width="11" height="816" transform="rotate(-90 0 57)" fill="#E4E4D9"/>
<rect y="76" width="12" height="816" transform="rotate(-90 0 76)" fill="#9FCBC7"/>
<path d="M116 11C116 5 112.5 3 110 3C102.82 3 97 21.1325 97 43.5C97 65.8675 102.82 84 110 84C115 84 115.5 77 115.5 76" stroke="white" stroke-width="5"/>
<path d="M651 76C651 82 654.5 84 657 84C664.18 84 670 65.8675 670 43.5C670 21.1325 664.18 3 657 3C652 3 651.5 10 651.5 11" stroke="white" stroke-width="5"/>
</svg>
