<svg width="21" height="223" viewBox="0 0 21 223" fill="none" xmlns="http://www.w3.org/2000/svg">
<path d="M19.8372 16.0987C20.0572 15.3727 20.6072 13.4807 20.6072 13.1507C20.6072 12.9967 20.1452 12.6227 20.0132 12.6227L18.8912 14.5147C18.8032 14.6687 18.8032 14.6687 18.5832 14.6687L17.8352 14.6687L9.91518 14.7127C9.01318 11.9407 8.04518 8.15669 7.51718 3.91069L15.1732 3.91069L15.2172 10.2687C15.2172 10.8187 15.4592 11.0827 15.9212 11.1267C16.2952 11.1707 16.6032 10.9727 16.6912 10.6207C16.8012 10.2247 16.8672 9.54269 16.8892 8.97069C16.8892 8.75069 16.2732 8.00269 16.2732 7.38669L16.2072 3.64669L16.6472 0.896687C16.6472 0.786687 16.2952 0.302687 16.0532 0.368687L15.1732 1.99669C15.0852 2.17269 15.1072 2.17269 14.9312 2.17269L7.31918 2.28269C7.09918 2.28269 6.35118 2.70069 5.95518 2.94269C5.77918 3.05269 5.75718 3.18469 5.75718 3.36069C5.75718 3.51469 5.73518 3.75669 5.86718 4.37269C6.76918 8.64069 8.04518 12.2707 9.14518 14.7127L3.79918 14.7567L0.323178 14.8007L0.191177 15.0207C0.279178 15.6367 1.31318 16.2087 3.00718 16.3187L3.79918 16.3407L17.8352 16.3627L19.4852 16.3627C19.7492 16.3627 19.7492 16.3627 19.8372 16.0987ZM11.8512 38.6232C11.8512 38.4692 11.1252 37.6552 11.1252 37.1052L11.1252 36.1812L19.4852 36.1812C19.7492 36.1812 19.7492 36.1812 19.8372 35.9173C20.0572 35.1912 20.6072 33.2992 20.6072 32.9693C20.6072 32.8152 20.1452 32.4412 20.0132 32.4412L18.8912 34.3332C18.8032 34.4873 18.8032 34.4873 18.5832 34.4873L17.8352 34.4873L3.79918 34.5752L0.323177 34.6192L0.191177 34.8392C0.279177 35.4552 1.31318 36.0272 3.00718 36.1372L3.79918 36.1592L10.1132 36.1592L10.1132 39.6573C10.1132 40.2072 10.3112 40.4933 10.8612 40.4933C11.5432 40.4933 11.8512 40.2292 11.8512 38.6232ZM8.83718 31.2312C9.29918 30.6592 8.96918 30.4832 9.56318 29.9332L11.4332 28.2172C12.8852 29.3392 14.4252 30.3512 16.0752 31.1872C16.9112 31.6052 16.9112 31.5612 16.8672 30.7032L16.6472 25.0052C16.6032 24.1032 16.6692 22.2772 16.7572 21.6612C16.7572 21.5292 16.5812 21.4192 16.4052 21.4192C16.2952 21.4192 14.9752 23.3332 14.9752 23.5092C14.9752 23.7732 15.5912 24.3892 15.5912 25.0052L15.8112 29.0532C11.5212 26.8752 7.97918 23.7732 5.22918 20.2972L4.76718 20.8912C6.48318 23.4212 8.41918 25.6212 10.5752 27.4912L5.75718 31.5832L5.75718 31.8032C5.75718 32.1992 6.02118 32.5072 6.59318 32.4632C7.29718 32.4192 8.28718 31.9132 8.83718 31.2312ZM19.8372 58.7278C20.0572 58.0018 20.6072 56.1098 20.6072 55.7798C20.6072 55.6258 20.1452 55.2518 20.0132 55.2518L18.8912 57.1438C18.8032 57.2978 18.8032 57.2978 18.5832 57.2978L17.8352 57.2978L3.79918 57.3858L0.323176 57.4298L0.191176 57.6498C0.279176 58.2658 1.31318 58.8378 3.00718 58.9478L3.79918 58.9698L17.8352 58.9918L19.4852 58.9918C19.7492 58.9918 19.7492 58.9918 19.8372 58.7278ZM16.8672 47.9918C16.8672 45.0658 14.9752 42.9318 12.1812 42.9318C9.36518 42.9318 7.51718 45.0658 7.51718 47.9918C7.51718 50.9618 9.36518 53.0298 12.1812 53.0298C14.9752 53.0298 16.8672 50.9618 16.8672 47.9918ZM8.83718 47.9918C8.83718 46.0778 10.1352 44.5818 12.1592 44.5818C14.2492 44.5818 15.5472 46.0998 15.5472 47.9918C15.5472 49.9058 14.2712 51.3798 12.1592 51.3798C10.1572 51.3798 8.83718 49.8838 8.83718 47.9918ZM19.8372 80.0204C20.0572 79.2944 20.6072 77.4024 20.6072 77.0724C20.6072 76.9184 20.1452 76.5444 20.0132 76.5444L18.8912 78.4364C18.8032 78.5904 18.8032 78.5904 18.5832 78.5904L17.8352 78.5904L13.9632 78.6124L13.8092 75.3564C13.7872 74.4984 13.8532 73.0464 13.9192 72.5404C13.9192 72.3864 13.7432 72.2984 13.5892 72.2984C13.3912 72.3204 12.2692 74.1684 12.2692 74.3664C12.2692 74.6304 12.7532 75.5984 12.7752 75.9944L12.9072 78.6124L3.79918 78.6784L0.323175 78.7224L0.191175 78.9424C0.279175 79.5584 1.31317 80.1304 3.00717 80.2404L3.79917 80.2624L17.8352 80.2844L19.4852 80.2844C19.7492 80.2844 19.7492 80.2844 19.8372 80.0204ZM7.42918 67.5244L16.4052 67.5244C16.7132 67.5244 16.7792 67.4144 16.8452 66.9524L17.2192 64.2684C17.2192 64.1584 16.8892 63.6964 16.6032 63.7844L15.7892 65.5224C15.6792 65.7644 15.6792 65.7644 15.5032 65.7644L15.0192 65.7644L7.27518 65.8744C7.05518 65.8744 6.24118 66.3144 5.86718 66.5344C5.69118 66.6444 5.66918 66.7544 5.66918 66.9304C5.66918 67.0844 5.62518 67.3044 5.77918 67.9204C6.59318 71.1984 7.73718 74.1904 8.96918 76.4564L9.56318 76.0824C8.66118 73.7504 7.86918 70.7364 7.42918 67.5244ZM19.8372 101.423C20.0572 100.697 20.6072 98.8049 20.6072 98.4749C20.6072 98.3209 20.1452 97.9469 20.0132 97.9469L18.8912 99.8389C18.8032 99.9929 18.8032 99.9929 18.5832 99.9929L17.8352 99.9929L8.85917 100.059C8.15517 97.1109 7.36317 93.4809 6.94517 89.7629C6.72517 87.8709 6.76917 85.7809 6.96718 84.6809C6.96718 84.5709 6.72517 84.4169 6.59317 84.4389C6.32917 84.5929 4.83317 87.1449 4.83317 87.6069C4.83317 87.9369 5.36117 88.5529 5.44917 89.1249L5.62517 90.1809C6.26317 94.0749 7.20917 97.4409 8.17717 100.059L3.79917 100.081L0.323174 100.125L0.191174 100.345C0.279174 100.961 1.31317 101.533 3.00717 101.643L3.79917 101.665L17.8352 101.687L19.4852 101.687C19.7492 101.687 19.7492 101.687 19.8372 101.423ZM9.73917 91.5449C9.73917 94.2509 11.3232 96.2529 13.8532 96.2529C16.3612 96.2529 18.0332 94.2509 18.0332 91.5449C18.0332 88.8609 16.3612 86.8149 13.8532 86.8149C11.3232 86.8149 9.73917 88.8609 9.73917 91.5449ZM16.7132 91.5449C16.7132 93.2389 15.6792 94.6909 13.8312 94.6909C12.0492 94.6909 10.9712 93.2169 10.9712 91.5449C10.9712 89.8509 12.0492 88.3769 13.8312 88.3769C15.6572 88.3769 16.7132 89.8509 16.7132 91.5449ZM18.6712 127.87L17.5052 127.87L12.1372 127.936L9.56317 128.046L9.43117 128.266C9.43117 128.86 10.5312 129.388 11.3452 129.432L12.1372 129.476L17.5052 129.498L19.3312 129.52C19.7492 129.52 19.7492 129.52 19.8592 129.19C20.0132 128.75 20.6072 126.704 20.6072 126.374C20.6072 126.22 20.1892 125.846 20.1012 125.846L18.9132 127.738C18.8252 127.87 18.8252 127.87 18.6712 127.87ZM14.0732 123.404C16.5372 123.404 18.2312 121.38 18.2312 118.696C18.2312 116.078 16.5372 113.966 14.0732 113.966C11.6532 113.966 9.95917 116.078 9.95917 118.696C9.95917 121.38 11.6532 123.404 14.0732 123.404ZM14.0732 115.594C15.8112 115.594 16.9112 116.936 16.9112 118.696C16.9112 120.5 15.8112 121.776 14.0732 121.776C12.3132 121.776 11.2572 120.5 11.2572 118.696C11.2572 116.936 12.3132 115.594 14.0732 115.594ZM2.10517 129.96C2.19317 129.586 2.28117 128.838 2.28117 128.2C2.28117 128.068 1.77517 127.452 1.77517 126.814L1.77517 121.666L4.08517 121.666L4.12917 128.948C4.12917 129.278 4.30517 129.476 4.63517 129.476C4.96517 129.476 5.11917 129.102 5.18517 128.728L7.95717 129.432C8.52917 129.564 8.52917 129.564 8.50717 128.926L8.28717 122.326C8.24317 121.424 8.35317 119.444 8.41917 118.872C8.41917 118.74 8.22117 118.63 8.08917 118.63C7.97917 118.63 6.74717 120.676 6.74717 120.896C6.74717 121.182 7.25317 121.732 7.25317 122.348L7.45117 127.672L5.18517 127.628L5.05317 121.644L5.36117 118.916C5.36117 118.806 5.07517 118.52 4.78917 118.52L4.19517 120.06L2.61117 120.082C1.44517 120.104 0.719173 120.214 0.719173 121.424L0.697173 129.63C0.697172 130.18 0.917173 130.466 1.37917 130.488C1.73117 130.51 2.01717 130.312 2.10517 129.96ZM13.8312 151.847C13.8312 151.627 13.1492 150.703 13.1492 150.329L13.1492 149.295L17.5052 149.317L19.3312 149.339C19.7492 149.339 19.7492 149.339 19.8592 149.009C20.0132 148.569 20.6072 146.523 20.6072 146.193C20.6072 146.039 20.1892 145.665 20.1012 145.665L18.9132 147.557C18.8252 147.689 18.8252 147.689 18.6712 147.689L17.5052 147.689L10.5312 147.755L7.95717 147.865L7.82517 148.085C7.82517 148.679 8.92517 149.207 9.73917 149.251L10.5312 149.295L12.2472 149.295L12.2472 152.595C12.2472 153.101 12.4232 153.431 12.9512 153.431C13.6112 153.431 13.8312 153.057 13.8312 151.847ZM9.32117 144.389C9.29917 144.741 9.51917 145.137 9.93717 145.159C10.4872 145.181 11.3892 144.873 12.0712 144.257C12.8412 143.553 12.3572 143.223 12.9292 142.651L14.6012 140.979C15.0852 141.331 15.5912 141.617 16.0972 141.903C16.7792 142.277 17.0432 142.343 17.2412 142.167C17.5712 141.859 18.3632 139.681 18.4072 139.241C18.4292 138.999 18.0992 138.515 17.9452 138.559C17.4832 139.263 16.8892 140.187 16.5372 140.121C13.8532 138.955 10.8832 136.645 8.50717 133.719L8.13317 134.225C9.89317 136.931 11.7412 138.867 13.6772 140.341L9.32117 144.389ZM7.91317 144.785C7.91317 142.365 6.43917 140.363 4.12917 140.363C1.86317 140.363 0.389172 142.365 0.389172 144.785C0.389172 147.249 1.86317 149.185 4.12917 149.185C6.43917 149.185 7.91317 147.249 7.91317 144.785ZM1.59917 144.785C1.59917 143.157 2.47917 141.859 4.12917 141.859C5.73517 141.859 6.70317 143.157 6.70317 144.785C6.70317 146.435 5.73517 147.689 4.12917 147.689C2.47917 147.689 1.59917 146.435 1.59917 144.785ZM11.7852 173.052C11.7852 172.897 11.0592 172.083 11.0592 171.534L11.0592 171.159L19.4852 171.16C19.7492 171.16 19.7492 171.16 19.8372 170.895C20.0572 170.169 20.6072 168.277 20.6072 167.947C20.6072 167.794 20.1452 167.419 20.0132 167.419L18.8912 169.312C18.8032 169.465 18.8032 169.465 18.5832 169.465L17.8352 169.465L8.77117 169.531C8.13317 166.781 7.67117 164.405 7.27517 161.567L11.9612 161.655C12.2692 161.655 12.3792 161.655 12.4232 161.347L12.7092 158.993C12.7092 158.795 12.3572 158.421 12.2032 158.465L11.5212 159.917C11.4332 160.115 11.3672 160.093 11.1472 160.093L7.09917 160.159L7.03317 159.587C6.85717 158.201 6.92317 156.287 7.05517 155.143C7.05517 155.033 6.83517 154.879 6.70317 154.901C6.37317 155.011 5.03117 157.387 5.03117 157.805C5.03117 158.223 5.47117 158.597 5.58117 159.345L5.64717 159.763C6.21917 163.481 7.09917 166.737 8.13317 169.531L3.79917 169.553L0.323171 169.597L0.191171 169.817C0.279171 170.433 1.31317 171.005 3.00717 171.115L3.79917 171.137L10.0472 171.137L10.0472 174.085C10.0472 174.635 10.2452 174.921 10.7952 174.921C11.4772 174.921 11.7852 174.657 11.7852 173.052ZM15.5912 158.377C15.5912 158.685 16.0752 159.191 16.0972 159.807L16.3392 164.691C13.8972 164.581 11.2132 164.339 8.85917 163.855L8.85917 164.603C11.3232 165.571 14.0292 166.165 16.7132 166.627C17.5492 166.781 17.5492 166.737 17.4832 165.748L17.1752 160.225L17.1752 159.741C17.1532 158.597 17.2412 157.343 17.3512 156.353C17.3512 156.221 17.1752 156.111 17.0212 156.111C16.8012 156.111 15.5912 158.069 15.5912 158.377ZM18.6712 198.509L17.5052 198.509L12.0272 198.575L9.45317 198.685L9.32117 198.905C9.32117 199.499 10.4212 200.027 11.2352 200.071L12.0272 200.115L17.5052 200.137L19.3312 200.159C19.7492 200.159 19.7492 200.159 19.8592 199.829C20.0132 199.389 20.6072 197.343 20.6072 197.013C20.6072 196.859 20.1892 196.485 20.1012 196.485L18.9132 198.377C18.8252 198.509 18.8252 198.509 18.6712 198.509ZM9.82717 194.637C9.71717 194.967 9.91517 195.341 10.3332 195.385C10.8832 195.451 11.7632 195.055 12.4672 194.417C13.2592 193.713 12.6652 193.493 13.2372 192.943L14.9092 191.095C15.3932 191.447 15.8992 191.777 16.4052 192.041C17.0652 192.393 17.3072 192.437 17.5272 192.305C17.9232 192.063 18.6052 189.841 18.6492 189.401C18.6712 189.159 18.3632 188.675 18.2092 188.719C17.7252 189.401 17.1972 190.259 16.8452 190.171C14.2932 188.895 11.5212 186.541 9.34317 183.747L8.96917 184.275C10.4212 186.717 12.1372 188.829 14.0072 190.391L9.82717 194.637ZM2.08317 200.577C2.19317 200.203 2.28117 199.565 2.28117 198.949C2.28117 198.685 1.77517 198.069 1.77517 197.431L1.77517 192.459L4.15117 192.459L4.19517 199.697C4.19517 200.027 4.30517 200.159 4.61317 200.159C4.92117 200.159 5.11917 199.807 5.20717 199.477L8.02317 200.115C8.59517 200.247 8.59517 200.247 8.57317 199.609L8.37517 193.009C8.33117 192.107 8.44117 190.193 8.50717 189.621C8.50717 189.489 8.30917 189.379 8.17717 189.379C8.06717 189.379 6.90117 191.381 6.90117 191.601C6.90117 191.887 7.36317 192.415 7.36317 193.031L7.53917 198.355L5.22917 198.355L5.09717 192.261L5.38317 189.709C5.38317 189.599 5.09717 189.313 4.81117 189.313L4.21717 190.853L2.61117 190.875C1.44517 190.897 0.71917 191.007 0.71917 192.217L0.697169 200.291C0.697169 200.841 0.91717 201.083 1.37917 201.105C1.73117 201.127 1.97317 200.929 2.08317 200.577ZM12.5772 215.357C12.5772 215.203 12.4232 215.115 12.2692 215.115C12.0712 215.137 11.0152 216.721 11.0152 216.919C11.0152 217.183 11.4992 217.711 11.5212 218.107L11.6092 219.691L7.07717 219.713L4.45917 219.823L4.32717 220.043C4.32717 220.637 5.42717 221.165 6.24117 221.209L7.07717 221.253L17.5052 221.275L19.3312 221.297C19.7492 221.297 19.7492 221.297 19.8592 220.968C20.0132 220.528 20.6072 218.481 20.6072 218.151C20.6072 217.998 20.1892 217.623 20.1012 217.623L18.9132 219.516C18.8252 219.647 18.8252 219.647 18.6712 219.647L17.5052 219.647L12.5552 219.669L12.4672 217.909C12.4452 217.051 12.5112 215.973 12.5772 215.357ZM17.0872 210.979C16.9552 211.815 16.9112 212.981 16.9992 213.685C17.0652 214.279 17.2632 214.455 17.6592 214.455C18.0112 214.455 18.2092 214.213 18.2532 213.509C18.3412 212.101 18.5832 210.583 18.8912 209.395C18.9132 209.263 18.7592 209.131 18.6492 209.131C18.2532 209.373 17.1752 210.627 17.0872 210.979ZM7.18717 216.303L7.18717 216.457C7.18717 216.743 7.45117 217.029 7.93517 216.985C8.55117 216.919 9.29917 216.391 9.67317 215.797C10.0252 215.247 9.60717 215.225 10.1572 214.587L11.4772 213.069C12.6432 214.257 13.8532 215.269 15.1512 216.083C15.7452 216.457 15.8552 216.479 15.8112 215.621L15.5912 210.473C15.5472 209.571 15.6132 207.745 15.7012 207.129C15.7012 206.997 15.5252 206.887 15.3492 206.887C15.2392 206.887 13.9192 208.801 13.9192 208.977C13.9192 209.241 14.5352 209.857 14.5352 210.473L14.7772 214.015C11.9832 211.947 9.23317 209.065 7.18717 205.567L6.72517 206.117C7.89117 208.515 9.27717 210.583 10.8172 212.343L7.18717 216.303ZM2.50117 220.417C2.50117 220.373 1.88517 219.251 1.88517 218.789L1.88517 213.487L4.83317 213.465L6.08717 213.465C6.41717 213.465 6.52717 213.355 6.52717 212.937L6.59317 210.297C6.59317 210.165 6.30717 209.813 6.02117 209.813L5.44917 211.507C5.36117 211.749 5.33917 211.749 5.16317 211.749L4.81117 211.749L2.69917 211.815C1.64317 211.837 0.829169 211.969 0.829169 213.245L0.829169 221.781C0.829169 222.331 1.07117 222.551 1.57717 222.551C2.34717 222.551 2.50117 221.891 2.50117 220.417Z" fill="black"/>
</svg>
