<svg width="85" height="797" viewBox="0 0 85 797" fill="none" xmlns="http://www.w3.org/2000/svg">
<rect x="63" width="11" height="797" fill="white"/>
<rect x="46" width="12" height="797" fill="white"/>
<rect x="29" width="11" height="797" fill="white"/>
<rect x="11" width="12" height="797" fill="white"/>
<path d="M74.1975 113C80.0494 113 82 109.684 82 107.316C82 100.514 64.3152 95 42.5 95C20.6848 95 3 100.514 3 107.316C3 112.053 9.82716 112.526 10.8025 112.526" stroke="white" stroke-width="5"/>
<path d="M10.9077 635.683C5.04913 635.683 3.09628 639.101 3.09628 641.542C3.09628 648.552 20.8012 654.235 42.6414 654.235C64.4816 654.235 82.1865 648.552 82.1865 641.542C82.1865 636.66 75.3516 636.172 74.3751 636.172" stroke="white" stroke-width="5"/>
</svg>
