<svg width="88" height="776" viewBox="0 0 88 776" fill="none" xmlns="http://www.w3.org/2000/svg">
<path d="M0 0L88 2.2137e-07L88 776L2.07128e-06 776L0 0Z" fill="white"/>
<path d="M53.2522 84.6879C53.1642 84.9519 53.1642 84.9519 52.9002 84.9519L51.2502 84.9519L37.2142 84.9299L36.4222 84.9079C34.7282 84.7979 33.6942 84.2259 33.6062 83.6099L33.7382 83.3899L37.2142 83.3459L42.5602 83.3019C41.4602 80.8599 40.1842 77.2299 39.2822 72.9619C39.1502 72.3459 39.1722 72.1039 39.1722 71.9499C39.1722 71.7739 39.1942 71.6419 39.3702 71.5319C39.7662 71.2899 40.5142 70.8719 40.7342 70.8719L48.3462 70.7619C48.5222 70.7619 48.5002 70.7619 48.5882 70.5859L49.4682 68.9579C49.7102 68.8919 50.0622 69.3759 50.0622 69.4859L49.6222 72.2359L49.6882 75.9759C49.6882 76.5919 50.3042 77.3399 50.3042 77.5599C50.2822 78.1319 50.2162 78.8139 50.1062 79.2099C50.0182 79.5619 49.7102 79.7599 49.3362 79.7159C48.8742 79.6719 48.6322 79.4079 48.6322 78.8579L48.5882 72.4999L40.9322 72.4999C41.4602 76.7459 42.4282 80.5299 43.3302 83.3019L51.2502 83.2579L51.9982 83.2579C52.2182 83.2579 52.2182 83.2579 52.3062 83.1039L53.4282 81.2119C53.5602 81.2119 54.0222 81.5859 54.0222 81.7399C54.0222 82.0699 53.4722 83.9619 53.2522 84.6879ZM45.2662 107.212C45.2662 108.818 44.9582 109.082 44.2762 109.082C43.7262 109.082 43.5282 108.796 43.5282 108.246L43.5282 104.748L37.2142 104.748L36.4222 104.726C34.7282 104.616 33.6942 104.044 33.6062 103.428L33.7382 103.208L37.2142 103.164L51.2502 103.076L51.9982 103.076C52.2182 103.076 52.2182 103.076 52.3062 102.922L53.4282 101.03C53.5602 101.03 54.0222 101.404 54.0222 101.558C54.0222 101.888 53.4722 103.78 53.2522 104.506C53.1642 104.77 53.1642 104.77 52.9002 104.77L44.5402 104.77L44.5402 105.694C44.5402 106.244 45.2662 107.058 45.2662 107.212ZM42.2522 99.8205C41.7022 100.502 40.7122 101.008 40.0082 101.052C39.4362 101.096 39.1722 100.788 39.1722 100.392L39.1722 100.172L43.9902 96.0805C41.8342 94.2105 39.8982 92.0105 38.1822 89.4805L38.6442 88.8865C41.3942 92.3625 44.9362 95.4645 49.2262 97.6425L49.0062 93.5945C49.0062 92.9785 48.3902 92.3625 48.3902 92.0985C48.3902 91.9225 49.7102 90.0085 49.8202 90.0085C49.9962 90.0085 50.1722 90.1185 50.1722 90.2505C50.0842 90.8665 50.0182 92.6925 50.0622 93.5945L50.2822 99.2925C50.3262 100.15 50.3262 100.194 49.4902 99.7765C47.8402 98.9405 46.3002 97.9285 44.8482 96.8065L42.9782 98.5225C42.3842 99.0725 42.7142 99.2485 42.2522 99.8205ZM53.2522 127.317C53.1642 127.581 53.1642 127.581 52.9002 127.581L51.2502 127.581L37.2142 127.559L36.4222 127.537C34.7282 127.427 33.6942 126.855 33.6062 126.239L33.7382 126.019L37.2142 125.975L51.2502 125.887L51.9982 125.887C52.2182 125.887 52.2182 125.887 52.3062 125.733L53.4282 123.841C53.5602 123.841 54.0222 124.215 54.0222 124.369C54.0222 124.699 53.4722 126.591 53.2522 127.317ZM50.2822 116.581C50.2822 119.551 48.3902 121.619 45.5962 121.619C42.7802 121.619 40.9322 119.551 40.9322 116.581C40.9322 113.655 42.7802 111.521 45.5962 111.521C48.3902 111.521 50.2822 113.655 50.2822 116.581ZM42.2522 116.581C42.2522 118.473 43.5722 119.969 45.5742 119.969C47.6862 119.969 48.9622 118.495 48.9622 116.581C48.9622 114.689 47.6642 113.171 45.5742 113.171C43.5502 113.171 42.2522 114.667 42.2522 116.581ZM53.2522 148.61C53.1642 148.874 53.1642 148.874 52.9002 148.874L51.2502 148.874L37.2142 148.852L36.4222 148.83C34.7282 148.72 33.6942 148.148 33.6062 147.532L33.7382 147.312L37.2142 147.268L46.3222 147.202L46.1902 144.584C46.1682 144.188 45.6842 143.22 45.6842 142.956C45.6842 142.758 46.8062 140.91 47.0042 140.888C47.1582 140.888 47.3342 140.976 47.3342 141.13C47.2682 141.636 47.2022 143.088 47.2242 143.946L47.3782 147.202L51.2502 147.18L51.9982 147.18C52.2182 147.18 52.2182 147.18 52.3062 147.026L53.4282 145.134C53.5602 145.134 54.0222 145.508 54.0222 145.662C54.0222 145.992 53.4722 147.884 53.2522 148.61ZM40.8442 136.114C41.2842 139.326 42.0762 142.34 42.9782 144.672L42.3842 145.046C41.1522 142.78 40.0082 139.788 39.1942 136.51C39.0402 135.894 39.0842 135.674 39.0842 135.52C39.0842 135.344 39.1062 135.234 39.2822 135.124C39.6562 134.904 40.4702 134.464 40.6902 134.464L48.4342 134.354L48.9182 134.354C49.0942 134.354 49.0942 134.354 49.2042 134.112L50.0182 132.374C50.3042 132.286 50.6342 132.748 50.6342 132.858L50.2602 135.542C50.1942 136.004 50.1282 136.114 49.8202 136.114L40.8442 136.114ZM53.2522 170.012C53.1642 170.276 53.1642 170.276 52.9002 170.276L51.2502 170.276L37.2142 170.254L36.4222 170.232C34.7282 170.122 33.6942 169.55 33.6062 168.934L33.7382 168.714L37.2142 168.67L41.5922 168.648C40.6242 166.03 39.6782 162.664 39.0402 158.77L38.8642 157.714C38.7762 157.142 38.2482 156.526 38.2482 156.196C38.2482 155.734 39.7442 153.182 40.0082 153.028C40.1402 153.006 40.3822 153.16 40.3822 153.27C40.1842 154.37 40.1402 156.46 40.3602 158.352C40.7782 162.07 41.5702 165.7 42.2742 168.648L51.2502 168.582L51.9982 168.582C52.2182 168.582 52.2182 168.582 52.3062 168.428L53.4282 166.536C53.5602 166.536 54.0222 166.91 54.0222 167.064C54.0222 167.394 53.4722 169.286 53.2522 170.012ZM43.1542 160.134C43.1542 157.45 44.7382 155.404 47.2682 155.404C49.7762 155.404 51.4482 157.45 51.4482 160.134C51.4482 162.84 49.7762 164.842 47.2682 164.842C44.7382 164.842 43.1542 162.84 43.1542 160.134ZM50.1282 160.134C50.1282 158.44 49.0722 156.966 47.2462 156.966C45.4642 156.966 44.3862 158.44 44.3862 160.134C44.3862 161.806 45.4642 163.28 47.2462 163.28C49.0942 163.28 50.1282 161.828 50.1282 160.134ZM52.0862 196.46C52.2402 196.46 52.2402 196.46 52.3282 196.328L53.5162 194.436C53.6042 194.436 54.0222 194.81 54.0222 194.964C54.0222 195.294 53.4282 197.34 53.2742 197.78C53.1642 198.11 53.1642 198.11 52.7462 198.11L50.9202 198.088L45.5522 198.066L44.7602 198.022C43.9462 197.978 42.8462 197.45 42.8462 196.856L42.9782 196.636L45.5522 196.526L50.9202 196.46L52.0862 196.46ZM47.4882 191.994C45.0682 191.994 43.3742 189.97 43.3742 187.286C43.3742 184.668 45.0682 182.556 47.4882 182.556C49.9522 182.556 51.6462 184.668 51.6462 187.286C51.6462 189.97 49.9522 191.994 47.4882 191.994ZM47.4882 184.184C45.7282 184.184 44.6722 185.526 44.6722 187.286C44.6722 189.09 45.7282 190.366 47.4882 190.366C49.2262 190.366 50.3262 189.09 50.3262 187.286C50.3262 185.526 49.2262 184.184 47.4882 184.184ZM35.5202 198.55C35.4322 198.902 35.1462 199.1 34.7942 199.078C34.3322 199.056 34.1122 198.77 34.1122 198.22L34.1342 190.014C34.1342 188.804 34.8602 188.694 36.0262 188.672L37.6102 188.65L38.2042 187.11C38.4902 187.11 38.7762 187.396 38.7762 187.506L38.4682 190.234L38.6002 196.218L40.8662 196.262L40.6682 190.938C40.6682 190.322 40.1622 189.772 40.1622 189.486C40.1622 189.266 41.3942 187.22 41.5042 187.22C41.6362 187.22 41.8342 187.33 41.8342 187.462C41.7682 188.034 41.6582 190.014 41.7022 190.916L41.9222 197.516C41.9442 198.154 41.9442 198.154 41.3722 198.022L38.6002 197.318C38.5342 197.692 38.3802 198.066 38.0502 198.066C37.7202 198.066 37.5442 197.868 37.5442 197.538L37.5002 190.256L35.1902 190.256L35.1902 195.404C35.1902 196.042 35.6962 196.658 35.6962 196.79C35.6962 197.428 35.6082 198.176 35.5202 198.55ZM47.2462 220.436C47.2462 221.646 47.0262 222.02 46.3662 222.02C45.8382 222.02 45.6622 221.69 45.6622 221.184L45.6622 217.884L43.9462 217.884L43.1542 217.84C42.3402 217.796 41.2402 217.268 41.2402 216.674L41.3722 216.454L43.9462 216.344L50.9202 216.278L52.0862 216.278C52.2402 216.278 52.2402 216.278 52.3282 216.146L53.5162 214.254C53.6042 214.254 54.0222 214.628 54.0222 214.782C54.0222 215.112 53.4282 217.158 53.2742 217.598C53.1642 217.928 53.1642 217.928 52.7462 217.928L50.9202 217.906L46.5642 217.884L46.5642 218.918C46.5642 219.292 47.2462 220.216 47.2462 220.436ZM42.7362 212.978L47.0922 208.93C45.1562 207.456 43.3082 205.52 41.5482 202.814L41.9222 202.308C44.2982 205.234 47.2682 207.544 49.9522 208.71C50.3042 208.776 50.8982 207.852 51.3602 207.148C51.5142 207.104 51.8442 207.588 51.8222 207.83C51.7782 208.27 50.9862 210.448 50.6562 210.756C50.4582 210.932 50.1942 210.866 49.5122 210.492C49.0062 210.206 48.5002 209.92 48.0162 209.568L46.3442 211.24C45.7722 211.812 46.2562 212.142 45.4862 212.846C44.8042 213.462 43.9022 213.77 43.3522 213.748C42.9342 213.726 42.7142 213.33 42.7362 212.978ZM41.3282 213.374C41.3282 215.838 39.8542 217.774 37.5442 217.774C35.2782 217.774 33.8042 215.838 33.8042 213.374C33.8042 210.954 35.2782 208.952 37.5442 208.952C39.8542 208.952 41.3282 210.954 41.3282 213.374ZM35.0142 213.374C35.0142 215.024 35.8942 216.278 37.5442 216.278C39.1502 216.278 40.1182 215.024 40.1182 213.374C40.1182 211.746 39.1502 210.448 37.5442 210.448C35.8942 210.448 35.0142 211.746 35.0142 213.374ZM45.2002 241.641C45.2002 243.247 44.8922 243.511 44.2102 243.511C43.6602 243.511 43.4622 243.225 43.4622 242.675L43.4622 239.727L37.2142 239.727L36.4222 239.705C34.7282 239.595 33.6942 239.023 33.6062 238.407L33.7382 238.187L37.2142 238.143L41.5482 238.121C40.5142 235.327 39.6342 232.071 39.0622 228.353L38.9962 227.935C38.8862 227.187 38.4462 226.813 38.4462 226.395C38.4462 225.977 39.7882 223.601 40.1182 223.491C40.2502 223.469 40.4702 223.623 40.4702 223.733C40.3382 224.877 40.2722 226.791 40.4482 228.177L40.5142 228.749L44.5622 228.683C44.7822 228.683 44.8482 228.705 44.9362 228.507L45.6182 227.055C45.7722 227.011 46.1242 227.385 46.1242 227.583L45.8382 229.937C45.7942 230.245 45.6842 230.245 45.3762 230.245L40.6902 230.157C41.0862 232.995 41.5482 235.371 42.1862 238.121L51.2502 238.055L51.9982 238.055C52.2182 238.055 52.2182 238.055 52.3062 237.901L53.4282 236.009C53.5602 236.009 54.0222 236.383 54.0222 236.537C54.0222 236.867 53.4722 238.759 53.2522 239.485C53.1642 239.749 53.1642 239.749 52.9002 239.749L44.4742 239.749L44.4742 240.123C44.4742 240.673 45.2002 241.487 45.2002 241.641ZM49.0062 226.967C49.0062 226.659 50.2162 224.701 50.4362 224.701C50.5902 224.701 50.7662 224.811 50.7662 224.943C50.6562 225.933 50.5682 227.187 50.5902 228.331L50.5902 228.815L50.8982 234.337C50.9642 235.327 50.9642 235.371 50.1282 235.217C47.4442 234.755 44.7382 234.161 42.2742 233.193L42.2742 232.445C44.6282 232.929 47.3122 233.171 49.7542 233.281L49.5122 228.397C49.4902 227.781 49.0062 227.275 49.0062 226.967ZM52.0862 267.098C52.2402 267.098 52.2402 267.098 52.3282 266.966L53.5162 265.074C53.6042 265.074 54.0222 265.448 54.0222 265.602C54.0222 265.932 53.4282 267.978 53.2742 268.418C53.1642 268.748 53.1642 268.748 52.7462 268.748L50.9202 268.726L45.4422 268.704L44.6502 268.66C43.8362 268.616 42.7362 268.088 42.7362 267.494L42.8682 267.274L45.4422 267.164L50.9202 267.098L52.0862 267.098ZM43.2422 263.226L47.4222 258.98C45.5522 257.418 43.8362 255.306 42.3842 252.864L42.7582 252.336C44.9362 255.13 47.7082 257.484 50.2602 258.76C50.6122 258.848 51.1402 257.99 51.6242 257.308C51.7782 257.264 52.0862 257.748 52.0642 257.99C52.0202 258.43 51.3382 260.652 50.9422 260.894C50.7222 261.026 50.4802 260.982 49.8202 260.63C49.3142 260.366 48.8082 260.036 48.3242 259.684L46.6522 261.532C46.0802 262.082 46.6742 262.302 45.8822 263.006C45.1782 263.644 44.2982 264.04 43.7482 263.974C43.3302 263.93 43.1322 263.556 43.2422 263.226ZM35.4982 269.166C35.3882 269.518 35.1462 269.716 34.7942 269.694C34.3322 269.672 34.1122 269.43 34.1122 268.88L34.1342 260.806C34.1342 259.596 34.8602 259.486 36.0262 259.464L37.6322 259.442L38.2262 257.902C38.5122 257.902 38.7982 258.188 38.7982 258.298L38.5122 260.85L38.6442 266.944L40.9542 266.944L40.7782 261.62C40.7782 261.004 40.3162 260.476 40.3162 260.19C40.3162 259.97 41.4822 257.968 41.5922 257.968C41.7242 257.968 41.9222 258.078 41.9222 258.21C41.8562 258.782 41.7462 260.696 41.7902 261.598L41.9882 268.198C42.0102 268.836 42.0102 268.836 41.4382 268.704L38.6222 268.066C38.5342 268.396 38.3362 268.748 38.0282 268.748C37.7202 268.748 37.6102 268.616 37.6102 268.286L37.5662 261.048L35.1902 261.048L35.1902 266.02C35.1902 266.658 35.6962 267.274 35.6962 267.538C35.6962 268.154 35.6082 268.792 35.4982 269.166ZM45.9922 283.947C45.9262 284.563 45.8602 285.641 45.8822 286.499L45.9702 288.259L50.9202 288.237L52.0862 288.237C52.2402 288.237 52.2402 288.237 52.3282 288.105L53.5162 286.213C53.6042 286.213 54.0222 286.587 54.0222 286.741C54.0222 287.071 53.4282 289.117 53.2742 289.557C53.1642 289.887 53.1642 289.887 52.7462 289.887L50.9202 289.865L40.4922 289.843L39.6562 289.799C38.8422 289.755 37.7422 289.227 37.7422 288.633L37.8742 288.413L40.4922 288.303L45.0242 288.281L44.9362 286.697C44.9142 286.301 44.4302 285.773 44.4302 285.509C44.4302 285.311 45.4862 283.727 45.6842 283.705C45.8382 283.705 45.9922 283.793 45.9922 283.947ZM50.5022 279.569C50.5902 279.217 51.6682 277.963 52.0642 277.721C52.1742 277.721 52.3282 277.853 52.3062 277.985C51.9982 279.173 51.7562 280.691 51.6682 282.099C51.6242 282.803 51.4262 283.045 51.0742 283.045C50.6782 283.045 50.4802 282.869 50.4142 282.275C50.3262 281.571 50.3702 280.405 50.5022 279.569ZM40.6022 284.893L44.2322 280.933C42.6922 279.173 41.3062 277.105 40.1402 274.707L40.6022 274.157C42.6482 277.655 45.3982 280.537 48.1922 282.605L47.9502 279.063C47.9502 278.447 47.3342 277.831 47.3342 277.567C47.3342 277.391 48.6542 275.477 48.7642 275.477C48.9402 275.477 49.1162 275.587 49.1162 275.719C49.0282 276.335 48.9622 278.161 49.0062 279.063L49.2262 284.211C49.2702 285.069 49.1602 285.047 48.5662 284.673C47.2682 283.859 46.0582 282.847 44.8922 281.659L43.5722 283.177C43.0222 283.815 43.4402 283.837 43.0882 284.387C42.7142 284.981 41.9662 285.509 41.3502 285.575C40.8662 285.619 40.6022 285.333 40.6022 285.047L40.6022 284.893ZM35.9162 289.007C35.9162 290.481 35.7622 291.141 34.9922 291.141C34.4862 291.141 34.2442 290.921 34.2442 290.371L34.2442 281.835C34.2442 280.559 35.0582 280.427 36.1142 280.405L38.2262 280.339L38.5782 280.339C38.7542 280.339 38.7762 280.339 38.8642 280.097L39.4362 278.403C39.7222 278.403 40.0082 278.755 40.0082 278.887L39.9422 281.527C39.9422 281.945 39.8322 282.055 39.5022 282.055L38.2482 282.055L35.3002 282.077L35.3002 287.379C35.3002 287.841 35.9162 288.963 35.9162 289.007Z" fill="black"/>
<path d="M50.0602 603.762C50.1722 603.762 50.1722 603.762 50.2362 603.666L51.1002 602.29C51.1642 602.29 51.4682 602.562 51.4682 602.674C51.4682 602.914 51.0362 604.402 50.9242 604.722C50.8442 604.962 50.8442 604.962 50.5402 604.962L49.2122 604.946L41.4362 604.93L40.8442 604.898C40.2522 604.866 39.4522 604.482 39.4522 604.05L39.5482 603.89L41.4362 603.81L42.7482 603.794L42.6682 602.258C42.6522 601.97 42.3322 601.618 42.3322 601.426C42.3322 601.282 43.0362 600.082 43.1802 600.066C43.2922 600.066 43.3722 600.13 43.3722 600.242C43.3242 600.69 43.2922 601.474 43.3082 602.098L43.4042 603.794L49.2122 603.762L50.0602 603.762ZM41.3242 597.346L43.9162 597.282L43.7242 596.066C43.6442 595.522 43.2762 595.202 43.2762 594.93C43.2762 594.658 44.2202 593.058 44.4282 592.978C44.5082 592.962 44.6682 593.058 44.6682 593.138C44.6042 593.89 44.5882 594.946 44.6842 596.002C44.7802 597.106 44.9242 598.162 45.0842 599.17C46.1562 599.458 47.3562 599.698 48.5882 599.826L48.4122 596.818C48.3802 596.37 48.0602 596.05 48.0602 595.826C48.0602 595.57 48.8762 594.194 49.0362 594.194C49.1482 594.194 49.2762 594.274 49.2762 594.37C49.1962 595.138 49.1642 595.986 49.1962 597.122L49.4202 600.626C49.4682 601.314 49.4362 601.346 48.8762 601.202C47.6602 600.882 46.3322 600.434 45.2122 599.874C45.3562 600.658 45.5322 601.394 45.7082 602.034L45.3082 602.29C44.8442 601.218 44.4602 599.97 44.1402 598.434L42.2842 598.418C41.6922 598.418 41.2282 597.922 41.2282 597.506L41.3242 597.346ZM38.2202 605.058C38.1562 605.41 37.9482 605.602 37.6282 605.586C37.2602 605.57 37.0842 605.41 37.0842 605.01L37.0842 598.594C37.0842 597.698 37.6762 597.65 38.4442 597.634L39.7722 597.602L39.9322 597.602C40.0602 597.602 40.0762 597.602 40.1402 597.426L40.6522 596.114C40.8602 596.114 41.1002 596.37 41.1002 596.466L40.9402 598.53C40.9082 598.802 40.8762 598.818 40.6522 598.818L37.8522 598.818L37.8522 602.77C37.8522 603.314 38.3002 603.826 38.3002 603.954C38.3002 604.402 38.2682 604.77 38.2202 605.058ZM44.5722 608.864L44.9722 608.528C46.0282 611.808 47.6122 614.656 49.4362 616.832L49.2442 612.672C49.2282 612.224 48.8762 611.856 48.8762 611.632C48.8762 611.408 49.7562 609.984 49.9162 609.984C50.0282 609.984 50.1562 610.064 50.1562 610.16C50.0762 610.88 50.0122 611.792 50.0282 612.624L50.0282 612.976L50.2362 618.512C50.2522 619.056 50.0922 619.2 49.7082 618.816C48.8282 617.952 48.0602 616.992 47.4042 615.936L46.9402 617.344C46.7642 618.08 47.1162 618.192 46.8602 618.976C46.6042 619.776 46.2042 620.368 45.7562 620.56C45.4682 620.688 45.1642 620.56 45.0522 620.256L46.8922 615.088C45.8522 613.232 45.0842 611.136 44.5722 608.864ZM44.2682 621.696C44.1722 622.064 43.9802 622.176 43.6282 622.128C43.3082 622.08 43.1322 621.888 43.1642 621.552C43.2122 620.976 43.2442 619.744 43.2122 619.024L43.1482 615.824L40.0122 615.792C39.3722 615.792 38.9722 615.296 38.9722 614.88L39.0682 614.72L43.1162 614.656L43.0362 611.056C43.0042 610.368 42.7002 609.76 42.6682 609.552C42.6682 609.264 43.6762 607.424 43.8042 607.424C43.9002 607.424 44.0602 607.504 44.0602 607.584C43.9802 608.032 43.7562 609.616 43.8042 611.44L43.9962 618.768C44.0122 619.344 44.5242 619.984 44.5242 620.208C44.4922 620.688 44.3642 621.376 44.2682 621.696ZM38.2682 618.176C38.2682 619.328 38.1562 619.808 37.5962 619.808C37.2282 619.808 37.0522 619.648 37.0522 619.248L37.0522 612.528C37.0522 611.632 37.6442 611.584 38.4122 611.568L39.9162 611.536L40.0762 611.536C40.2042 611.536 40.2202 611.536 40.2842 611.36L40.7962 610.048C41.0042 610.048 41.2442 610.304 41.2442 610.4L41.0842 612.464C41.0522 612.736 41.0202 612.752 40.7962 612.752L37.8202 612.752L37.8202 617.024C37.8202 617.36 38.2682 618.144 38.2682 618.176ZM49.2762 629.213C49.3402 628.957 50.2202 627.917 50.5082 627.741C50.5882 627.741 50.7162 627.869 50.7002 627.965C50.4922 628.797 50.2522 630.397 50.2202 631.453C50.2042 631.965 50.0442 632.221 49.7242 632.221C49.4042 632.221 49.2602 632.029 49.2122 631.597C49.1482 631.085 49.1802 629.821 49.2762 629.213ZM47.0202 626.573C47.0202 626.381 47.9002 624.669 48.0442 624.669C48.1722 624.669 48.2682 624.733 48.2682 624.829C48.1882 625.533 48.1082 626.461 48.1082 627.309L48.2362 632.717C48.3642 633.373 48.7002 633.741 48.7162 633.933C48.7322 634.253 48.6362 634.733 48.5562 635.053C48.4442 635.469 48.2522 635.597 47.9482 635.549C47.6442 635.501 47.5322 635.325 47.5642 634.861C47.5962 634.317 47.6122 633.597 47.5962 632.909L47.4522 627.741C47.4362 627.421 47.0202 626.813 47.0202 626.573ZM39.6442 637.133C39.5482 637.437 39.3562 637.533 39.0042 637.469C38.6842 637.405 38.5242 637.245 38.5562 636.893C38.6042 636.317 38.6362 635.117 38.6202 634.397L38.4602 626.509C38.4442 625.821 38.1082 625.277 38.0922 625.021C38.0922 624.733 39.1322 622.909 39.2602 622.909C39.3562 622.909 39.5162 622.989 39.5162 623.069C39.4202 623.533 39.1802 625.085 39.2282 626.925L39.2922 629.853L41.4842 629.789C41.6602 628.333 42.6362 627.101 44.1562 627.101C45.8842 627.101 46.8602 628.637 46.8602 630.301C46.8602 631.997 45.8842 633.469 44.1562 633.469C42.7162 633.469 41.7402 632.365 41.5002 630.957L39.6282 630.925C39.5002 630.925 39.4042 630.909 39.3242 630.861L39.4042 634.157C39.4202 634.765 39.8682 635.229 39.9002 635.549C39.8682 636.077 39.7562 636.797 39.6442 637.133ZM44.1562 628.189C42.9082 628.189 42.3162 629.229 42.3162 630.301C42.3162 631.389 42.9082 632.381 44.1562 632.381C45.3722 632.381 46.0602 631.389 46.0602 630.301C46.0602 629.229 45.3722 628.189 44.1562 628.189Z" fill="black"/>
<path d="M64.2329 388.199L64.2329 390.677L52.6619 395.087C51.8429 395.402 51.4229 395.822 51.4229 396.494L51.4229 397.082C50.7509 397.082 50.4359 397.019 50.4359 396.746L50.4359 391.643C51.1079 391.643 51.4229 391.706 51.4229 391.958L51.4229 392.504C51.4229 393.176 51.8429 393.491 52.6619 393.197L54.6779 392.441L54.6779 386.414L53.9429 386.141C52.9769 385.805 52.1789 385.595 51.4229 386.162L51.4229 387.443C50.7509 387.443 50.4359 387.38 50.4359 387.107L50.4359 382.424C51.1079 382.424 51.4229 382.487 51.4229 382.76L51.4229 383.096C51.4229 383.705 52.0109 384.209 52.8929 384.545L62.4059 388.136C63.0359 388.367 63.6659 388.409 64.2329 388.199ZM55.6859 386.75L55.6859 392.084L63.0989 389.375L55.6859 386.75ZM65.7659 413.374L52.2419 413.374C51.8219 413.374 51.6119 413.5 51.6119 414.592L51.6119 414.991C50.7929 414.991 50.6669 414.928 50.6039 414.55L50.1419 411.988L51.2759 411.82C50.6669 410.959 50.1419 409.993 50.1419 408.943C50.1419 406.15 52.0529 404.764 54.9089 404.764C57.7649 404.764 59.9279 406.402 59.9279 409.195C59.9279 410.077 59.7599 410.98 59.4029 411.757L63.7499 411.757C64.1699 411.757 64.2959 411.631 64.2959 410.56L64.2959 410.14C65.1149 410.14 65.2409 410.203 65.3039 410.602L65.7659 413.374ZM58.2689 411.757C58.5839 411.106 58.8149 410.266 58.8149 409.51C58.8149 407.431 57.2399 406.549 54.9089 406.549C52.7039 406.549 51.2759 407.221 51.2759 409.237C51.2759 410.182 51.7379 410.98 52.3679 411.757L58.2689 411.757ZM55.0349 424.573L55.0349 418.294C52.7669 418.294 51.2129 419.05 51.2129 421.15C51.2129 422.179 51.5909 423.208 52.4309 424.069C52.1159 424.489 51.6749 424.489 51.4019 424.216C50.6669 423.502 50.1419 422.326 50.1419 420.772C50.1419 418.105 52.0739 416.53 55.0349 416.53C58.3949 416.53 59.9279 418.357 59.9279 420.772C59.9279 422.977 58.4999 424.594 55.9169 424.594C55.6439 424.594 55.3499 424.594 55.0349 424.573ZM55.9589 418.336L55.9589 422.431C55.9589 422.746 56.0429 422.809 56.3999 422.809C57.9749 422.809 59.0039 422.095 59.0039 420.772C59.0039 419.155 57.9749 418.483 55.9589 418.336ZM59.4659 432.94L57.5759 432.94C57.0719 432.94 56.9459 432.835 56.9459 432.205C58.2899 431.995 59.0249 431.407 59.0249 430.021C59.0249 428.929 58.4579 428.194 57.5759 428.194C55.3709 428.194 56.2949 433.36 53.1449 433.36C51.1709 433.36 50.1419 432.1 50.1419 429.559C50.1419 428.572 50.3729 427.543 50.7089 426.64L52.6829 426.64C53.3339 426.64 53.4389 426.745 53.4389 427.417C51.7379 427.585 51.0449 428.215 51.0449 429.853C51.0449 431.071 51.6329 431.806 52.6409 431.806C54.8879 431.806 53.8589 426.787 57.0929 426.787C58.6889 426.787 59.9279 427.711 59.9279 430.021C59.9279 430.945 59.7809 432.058 59.4659 432.94ZM62.7209 436.774C62.9939 436.69 63.3929 436.669 63.6239 436.669C64.3379 436.669 64.6319 437.089 64.6319 437.719C64.6319 438.37 64.3379 438.79 63.6239 438.79C62.9099 438.79 62.6159 438.37 62.6159 437.719C62.6159 437.467 62.6579 437.047 62.7209 436.774ZM51.4229 439.168L51.4229 440.239C50.6459 440.239 50.4359 440.176 50.4359 439.819L50.4359 435.199C51.2549 435.199 51.4229 435.262 51.4229 435.556L51.4229 436.27C51.4229 436.774 51.7169 436.921 52.2419 436.921L57.9329 436.921C58.3319 436.921 58.4579 436.795 58.4579 435.724L58.4579 435.304C59.2769 435.304 59.4029 435.367 59.4659 435.745L59.9279 438.538L52.2419 438.538C51.6959 438.538 51.4229 438.748 51.4229 439.168ZM59.9279 451.126C59.0039 451.231 58.6049 451.231 58.6049 450.559L58.6049 449.11C58.1219 449.467 57.5129 449.635 56.8409 449.635C55.1189 449.635 53.7539 448.48 53.7539 445.876C53.7539 445.33 53.8169 444.868 53.9219 444.448C53.6489 443.986 53.2499 443.734 52.8299 443.734C52.1999 443.734 51.8849 444.154 51.8849 445.099L51.8849 448.081C51.8849 450.034 50.7509 451.084 49.0919 451.084C46.7609 451.084 45.3749 449.383 45.3749 446.275C45.3749 443.335 46.3619 441.466 48.5039 441.466C49.6379 441.466 50.1209 441.928 50.1209 443.23L48.7139 443.23C47.3069 443.23 46.3199 444.238 46.3199 446.275C46.3199 448.438 47.2229 449.572 48.6929 449.572C49.8899 449.572 50.4569 448.795 50.4569 447.073L50.4569 444.7C50.4569 442.768 51.2549 442.222 52.2839 442.222L53.0399 442.222L54.2579 443.566C54.8039 442.558 55.7489 442.096 56.8409 442.096C58.5629 442.096 59.9279 443.251 59.9279 445.876C59.9279 446.779 59.7809 447.493 59.4869 448.06L59.9279 451.126ZM59.0249 445.876C59.0249 444.49 58.0799 443.797 56.8409 443.797C55.6019 443.797 54.6779 444.49 54.6779 445.876C54.6779 447.262 55.6019 447.955 56.8409 447.955C58.0799 447.955 59.0249 447.262 59.0249 445.876ZM59.9279 455.46L58.6259 455.649C59.3819 456.93 59.9279 458.064 59.9279 459.429C59.9279 461.319 58.5419 462.012 56.7989 462.012L52.2419 462.012C51.6959 462.012 51.4229 462.222 51.4229 462.642L51.4229 463.629C50.6459 463.629 50.4359 463.566 50.4359 463.23L50.4359 458.757C51.2549 458.757 51.4229 458.82 51.4229 459.114L51.4229 459.744C51.4229 460.248 51.7169 460.416 52.2419 460.416L56.6729 460.416C57.9329 460.416 58.5629 459.996 58.5629 458.652C58.5629 457.707 58.1639 456.615 57.7229 455.67L52.2419 455.67C51.6959 455.67 51.4229 455.88 51.4229 456.3L51.4229 457.308C50.6459 457.308 50.4359 457.224 50.4359 456.888L50.4359 452.415C51.2549 452.415 51.4229 452.478 51.4229 452.772L51.4229 453.402C51.4229 453.906 51.7169 454.074 52.2419 454.074L57.8489 454.074C58.2479 454.074 58.4579 453.927 58.4579 452.856L58.4579 452.436C59.2769 452.436 59.4029 452.52 59.4659 452.898L59.9279 455.46ZM55.0349 473.091L55.0349 466.812C52.7669 466.812 51.2129 467.568 51.2129 469.668C51.2129 470.697 51.5909 471.726 52.4309 472.587C52.1159 473.007 51.6749 473.007 51.4019 472.734C50.6669 472.02 50.1419 470.844 50.1419 469.29C50.1419 466.623 52.0739 465.048 55.0349 465.048C58.3949 465.048 59.9279 466.875 59.9279 469.29C59.9279 471.495 58.4999 473.112 55.9169 473.112C55.6439 473.112 55.3499 473.112 55.0349 473.091ZM55.9589 466.854L55.9589 470.949C55.9589 471.264 56.0429 471.327 56.3999 471.327C57.9749 471.327 59.0039 470.613 59.0039 469.29C59.0039 467.673 57.9749 467.001 55.9589 466.854ZM59.9279 477.824L58.6889 478.013C59.4239 478.937 59.9279 479.777 59.9279 481.037C59.9279 481.562 59.9069 482.129 59.8649 482.654L57.7439 482.654C57.1349 482.654 56.8409 482.339 56.8409 481.625L58.7309 480.932C58.7519 480.722 58.7729 480.512 58.7729 480.239C58.7729 479.42 58.2689 478.727 57.6809 478.034L52.2419 478.034C51.6959 478.034 51.4229 478.244 51.4229 478.664L51.4229 479.672C50.6459 479.672 50.4359 479.588 50.4359 479.252L50.4359 474.779C51.2549 474.779 51.4229 474.842 51.4229 475.136L51.4229 475.766C51.4229 476.27 51.7169 476.438 52.2419 476.438L57.8489 476.438C58.2479 476.438 58.4579 476.291 58.4579 475.22L58.4579 474.8C59.2769 474.8 59.4029 474.884 59.4659 475.262L59.9279 477.824ZM66.9629 484.915C66.9629 485.818 66.5429 486.238 65.5769 486.238C63.8969 486.238 62.6789 485.944 62.0909 484.054C62.4059 483.781 62.7419 483.718 62.9729 484.159C63.3299 484.831 63.8129 484.999 64.6739 485.02C64.6949 484.558 64.7369 484.117 64.8209 483.739C65.1359 483.655 65.5559 483.613 65.8079 483.613C66.6269 483.613 66.9629 484.138 66.9629 484.915ZM59.4659 493.137L57.5759 493.137C57.0719 493.137 56.9459 493.032 56.9459 492.402C58.2899 492.192 59.0249 491.604 59.0249 490.218C59.0249 489.126 58.4579 488.391 57.5759 488.391C55.3709 488.391 56.2949 493.557 53.1449 493.557C51.1709 493.557 50.1419 492.297 50.1419 489.756C50.1419 488.769 50.3729 487.74 50.7089 486.837L52.6829 486.837C53.3339 486.837 53.4389 486.942 53.4389 487.614C51.7379 487.782 51.0449 488.412 51.0449 490.05C51.0449 491.268 51.6329 492.003 52.6409 492.003C54.8879 492.003 53.8589 486.984 57.0929 486.984C58.6889 486.984 59.9279 487.908 59.9279 490.218C59.9279 491.142 59.7809 492.255 59.4659 493.137Z" fill="black"/>
<path d="M38.7886 346.7L36.0376 346.889C35.4496 346.931 35.2816 346.847 35.2816 346.133C37.4446 345.356 37.8016 345.041 37.8016 343.067L37.8016 340.211L32.7196 340.211L32.7196 342.794C32.7196 343.592 33.0136 344.222 33.6856 344.222L34.4836 344.222C34.4836 344.894 34.3996 345.209 34.1476 345.209L29.8426 345.209C29.8426 344.537 29.9266 344.222 30.1786 344.222L30.7456 344.222C31.4176 344.222 31.7116 343.592 31.7116 342.794L31.7116 340.211L27.4066 340.211C26.6086 340.211 25.9786 340.526 25.9786 341.282L25.9786 343.697C25.9786 345.65 26.3356 345.965 28.4986 346.763C28.4986 347.477 28.3306 347.54 27.7216 347.498L24.9916 347.309L24.9916 336.641C25.6636 336.641 25.9786 336.704 25.9786 336.977L25.9786 337.649C25.9786 338.321 26.3986 338.51 27.1966 338.51L36.5836 338.51C37.3816 338.51 37.8016 338.321 37.8016 337.649L37.8016 336.641C38.4736 336.641 38.7886 336.704 38.7886 336.977L38.7886 346.7ZM34.1896 359.336C33.3706 359.336 33.2026 359.273 33.2026 358.979L33.2026 358.496C33.2026 358.076 32.9716 357.95 32.3836 357.698L24.6976 354.464L24.6976 353.855C24.6976 353.12 24.7816 352.994 25.2016 352.805L32.3836 349.823C32.9716 349.571 33.2026 349.445 33.2026 349.046L33.2026 348.248C34.0006 348.248 34.1896 348.311 34.1896 348.668L34.1896 353.141C33.3706 353.141 33.2026 353.099 33.2026 352.784L33.2026 352.091C33.2026 351.524 32.9086 351.356 32.3836 351.566L26.1466 354.044L31.4806 356.165C32.0896 356.417 32.7406 356.438 33.2026 356.207L33.2026 354.674C34.0006 354.674 34.1896 354.758 34.1896 355.094L34.1896 359.336ZM29.5906 368.077L29.5906 361.798C27.3226 361.798 25.7686 362.554 25.7686 364.654C25.7686 365.683 26.1466 366.712 26.9866 367.573C26.6716 367.993 26.2306 367.993 25.9576 367.72C25.2226 367.006 24.6976 365.83 24.6976 364.276C24.6976 361.609 26.6296 360.034 29.5906 360.034C32.9506 360.034 34.4836 361.861 34.4836 364.276C34.4836 366.481 33.0556 368.098 30.4726 368.098C30.1996 368.098 29.9056 368.098 29.5906 368.077ZM30.5146 361.84L30.5146 365.935C30.5146 366.25 30.5986 366.313 30.9556 366.313C32.5306 366.313 33.5596 365.599 33.5596 364.276C33.5596 362.659 32.5306 361.987 30.5146 361.84ZM34.4836 372.811L33.2446 373C33.9796 373.924 34.4836 374.764 34.4836 376.024C34.4836 376.549 34.4626 377.116 34.4206 377.641L32.2996 377.641C31.6906 377.641 31.3966 377.326 31.3966 376.612L33.2866 375.919C33.3076 375.709 33.3286 375.499 33.3286 375.226C33.3286 374.407 32.8246 373.714 32.2366 373.021L26.7976 373.021C26.2516 373.021 25.9786 373.231 25.9786 373.651L25.9786 374.659C25.2016 374.659 24.9916 374.575 24.9916 374.239L24.9916 369.766C25.8106 369.766 25.9786 369.829 25.9786 370.123L25.9786 370.753C25.9786 371.257 26.2726 371.425 26.7976 371.425L32.4046 371.425C32.8036 371.425 33.0136 371.278 33.0136 370.207L33.0136 369.787C33.8326 369.787 33.9586 369.871 34.0216 370.249L34.4836 372.811ZM34.1896 389.447C33.3706 389.447 33.2026 389.405 33.2026 389.09L33.2026 388.607C33.2026 388.187 32.9716 388.04 32.3836 387.809L24.6976 384.617C23.0176 383.924 21.5056 383.147 19.9306 382.034L20.6866 380.207C20.9176 379.661 21.2116 379.556 21.8416 379.829L21.8416 381.971C22.8076 382.643 23.7316 383.105 24.7186 383.525C24.7606 383.168 24.8866 383.042 25.2016 382.916L32.3836 379.934C32.9716 379.703 33.2026 379.556 33.2026 379.157L33.2026 378.359C34.0006 378.359 34.1896 378.443 34.1896 378.779L34.1896 383.273C33.3706 383.273 33.2026 383.21 33.2026 382.916L33.2026 382.202C33.2026 381.635 32.9086 381.488 32.3836 381.698L26.1466 384.176L31.4806 386.276C32.0896 386.528 32.7406 386.549 33.2026 386.318L33.2026 384.806C34.0006 384.806 34.1896 384.869 34.1896 385.226L34.1896 389.447ZM40.3216 398.755L26.7976 398.755C26.3776 398.755 26.1676 398.881 26.1676 399.973L26.1676 400.372C25.3486 400.372 25.2226 400.309 25.1596 399.931L24.6976 397.369L25.8316 397.201C25.2226 396.34 24.6976 395.374 24.6976 394.324C24.6976 391.531 26.6086 390.145 29.4646 390.145C32.3206 390.145 34.4836 391.783 34.4836 394.576C34.4836 395.458 34.3156 396.361 33.9586 397.138L38.3056 397.138C38.7256 397.138 38.8516 397.012 38.8516 395.941L38.8516 395.521C39.6706 395.521 39.7966 395.584 39.8596 395.983L40.3216 398.755ZM32.8246 397.138C33.1396 396.487 33.3706 395.647 33.3706 394.891C33.3706 392.812 31.7956 391.93 29.4646 391.93C27.2596 391.93 25.8316 392.602 25.8316 394.618C25.8316 395.563 26.2936 396.361 26.9236 397.138L32.8246 397.138ZM31.6066 404.222L31.6066 403.193C31.6066 402.731 31.7536 402.5 32.1736 402.5C33.4546 402.5 34.4836 404.096 34.4836 406.112C34.4836 408.17 33.7276 409.556 31.9636 409.556L26.7766 409.556C26.1466 409.556 25.9786 409.64 25.9786 410.228L25.9786 410.879C25.2016 410.879 24.9916 410.795 24.9916 410.459L24.9916 408.233L25.9576 408.065C25.1596 407.078 24.6976 406.196 24.6976 405.062C24.6976 403.025 25.7266 402.059 27.4066 402.059C29.4226 402.059 30.0736 403.802 30.2206 406.301L30.3256 407.939L31.7956 407.939C32.9716 407.939 33.5596 407.372 33.5596 406.112C33.5596 404.789 32.9086 404.222 31.6066 404.222ZM29.4016 407.939L29.2966 406.259C29.1916 404.558 28.6036 403.697 27.4066 403.697C26.5246 403.697 25.7896 404.243 25.7896 405.356C25.7896 406.238 26.2516 407.141 26.8186 407.939L29.4016 407.939ZM34.1896 422.121C33.3706 422.121 33.2026 422.079 33.2026 421.764L33.2026 421.281C33.2026 420.861 32.9716 420.714 32.3836 420.483L24.6976 417.291C23.0176 416.598 21.5056 415.821 19.9306 414.708L20.6866 412.881C20.9176 412.335 21.2116 412.23 21.8416 412.503L21.8416 414.645C22.8076 415.317 23.7316 415.779 24.7186 416.199C24.7606 415.842 24.8866 415.716 25.2016 415.59L32.3836 412.608C32.9716 412.377 33.2026 412.23 33.2026 411.831L33.2026 411.033C34.0006 411.033 34.1896 411.117 34.1896 411.453L34.1896 415.947C33.3706 415.947 33.2026 415.884 33.2026 415.59L33.2026 414.876C33.2026 414.309 32.9086 414.162 32.3836 414.372L26.1466 416.85L31.4806 418.95C32.0896 419.202 32.7406 419.223 33.2026 418.992L33.2026 417.48C34.0006 417.48 34.1896 417.543 34.1896 417.9L34.1896 422.121ZM31.6066 431.954L31.6066 430.925C31.6066 430.463 31.7536 430.232 32.1736 430.232C33.4546 430.232 34.4836 431.828 34.4836 433.844C34.4836 435.902 33.7276 437.288 31.9636 437.288L26.7766 437.288C26.1466 437.288 25.9786 437.372 25.9786 437.96L25.9786 438.611C25.2016 438.611 24.9916 438.527 24.9916 438.191L24.9916 435.965L25.9576 435.797C25.1596 434.81 24.6976 433.928 24.6976 432.794C24.6976 430.757 25.7266 429.791 27.4066 429.791C29.4226 429.791 30.0736 431.534 30.2206 434.033L30.3256 435.671L31.7956 435.671C32.9716 435.671 33.5596 435.104 33.5596 433.844C33.5596 432.521 32.9086 431.954 31.6066 431.954ZM29.4016 435.671L29.2966 433.991C29.1916 432.29 28.6036 431.429 27.4066 431.429C26.5246 431.429 25.7896 431.975 25.7896 433.088C25.7896 433.97 26.2516 434.873 26.8186 435.671L29.4016 435.671ZM34.4836 442.974L33.1816 443.163C33.9376 444.444 34.4836 445.578 34.4836 446.943C34.4836 448.833 33.0975 449.526 31.3545 449.526L26.7975 449.526C26.2515 449.526 25.9785 449.736 25.9785 450.156L25.9785 451.143C25.2015 451.143 24.9915 451.08 24.9915 450.744L24.9915 446.271C25.8105 446.271 25.9785 446.334 25.9785 446.628L25.9785 447.258C25.9785 447.762 26.2725 447.93 26.7975 447.93L31.2286 447.93C32.4886 447.93 33.1186 447.51 33.1186 446.166C33.1186 445.221 32.7196 444.129 32.2785 443.184L26.7975 443.184C26.2515 443.184 25.9785 443.394 25.9785 443.814L25.9785 444.822C25.2015 444.822 24.9915 444.738 24.9915 444.402L24.9916 439.929C25.8106 439.929 25.9786 439.992 25.9786 440.286L25.9786 440.916C25.9786 441.42 26.2726 441.588 26.7976 441.588L32.4046 441.588C32.8036 441.588 33.0136 441.441 33.0136 440.37L33.0136 439.95C33.8326 439.95 33.9586 440.034 34.0216 440.412L34.4836 442.974ZM40.3215 461.172L26.7975 461.172C26.3775 461.172 26.1675 461.298 26.1675 462.39L26.1675 462.789C25.3485 462.789 25.2225 462.726 25.1595 462.348L24.6975 459.786L25.8315 459.618C25.2225 458.757 24.6975 457.791 24.6975 456.741C24.6975 453.948 26.6085 452.562 29.4645 452.562C32.3205 452.562 34.4835 454.2 34.4835 456.993C34.4835 457.875 34.3155 458.778 33.9585 459.555L38.3055 459.555C38.7256 459.555 38.8515 459.429 38.8515 458.358L38.8515 457.938C39.6706 457.938 39.7966 458.001 39.8595 458.4L40.3215 461.172ZM32.8245 459.555C33.1395 458.904 33.3705 458.064 33.3705 457.308C33.3705 455.229 31.7955 454.347 29.4645 454.347C27.2595 454.347 25.8315 455.019 25.8315 457.035C25.8315 457.98 26.2935 458.778 26.9235 459.555L32.8245 459.555ZM37.8015 470.719C38.4735 470.719 38.7885 470.782 38.7885 471.055L38.7885 475.885C38.7885 479.056 37.6755 481.135 34.9245 481.135C32.1105 481.135 30.6405 478.951 30.6405 475.843C30.6405 475.402 31.0185 475.192 31.6275 475.276L31.6275 475.591C31.6275 478.09 32.7825 479.245 34.9245 479.245C36.7935 479.245 37.8015 477.985 37.8015 475.654L37.8015 474.289L27.1965 474.289C26.3985 474.289 25.9785 474.478 25.9785 475.15L25.9785 476.263C25.3065 476.263 24.9915 476.2 24.9915 475.927L24.9915 470.719C25.6635 470.719 25.9785 470.782 25.9785 471.055L25.9785 471.727C25.9785 472.399 26.3985 472.588 27.1965 472.588L36.5835 472.588C37.3815 472.588 37.8015 472.399 37.8015 471.727L37.8015 470.719ZM34.4835 485.714L33.2445 485.903C33.9795 486.827 34.4835 487.667 34.4835 488.927C34.4835 489.452 34.4625 490.019 34.4205 490.544L32.2995 490.544C31.6905 490.544 31.3965 490.229 31.3965 489.515L33.2865 488.822C33.3075 488.612 33.3285 488.402 33.3285 488.129C33.3285 487.31 32.8245 486.617 32.2365 485.924L26.7975 485.924C26.2515 485.924 25.9785 486.134 25.9785 486.554L25.9785 487.562C25.2015 487.562 24.9915 487.478 24.9915 487.142L24.9915 482.669C25.8105 482.669 25.9785 482.732 25.9785 483.026L25.9785 483.656C25.9785 484.16 26.2725 484.328 26.7975 484.328L32.4045 484.328C32.8035 484.328 33.0135 484.181 33.0135 483.11L33.0135 482.69C33.8325 482.69 33.9585 482.774 34.0215 483.152L34.4835 485.714ZM31.6065 494.001L31.6065 492.972C31.6065 492.51 31.7535 492.279 32.1735 492.279C33.4545 492.279 34.4835 493.875 34.4835 495.891C34.4835 497.949 33.7275 499.335 31.9635 499.335L26.7765 499.335C26.1465 499.335 25.9785 499.419 25.9785 500.007L25.9785 500.658C25.2015 500.658 24.9915 500.574 24.9915 500.238L24.9915 498.012L25.9575 497.844C25.1595 496.857 24.6975 495.975 24.6975 494.841C24.6975 492.804 25.7265 491.838 27.4065 491.838C29.4225 491.838 30.0735 493.581 30.2205 496.08L30.3255 497.718L31.7955 497.718C32.9715 497.718 33.5595 497.151 33.5595 495.891C33.5595 494.568 32.9085 494.001 31.6065 494.001ZM29.4015 497.718L29.2965 496.038C29.1915 494.337 28.6035 493.476 27.4065 493.476C26.5245 493.476 25.7895 494.022 25.7895 495.135C25.7895 496.017 26.2515 496.92 26.8185 497.718L29.4015 497.718ZM33.8535 509.957L31.6905 509.957C31.0395 509.957 30.8925 509.726 30.8925 509.054C32.4255 508.907 33.5385 508.172 33.5385 506.597C33.5385 504.77 32.2155 503.993 29.5695 503.993C27.3015 503.993 25.7475 504.749 25.7475 506.849C25.7475 507.878 26.1255 508.802 26.9655 509.663C26.6505 510.083 26.2095 510.083 25.9365 509.81C25.2015 509.096 24.6765 508.025 24.6765 506.471C24.6765 503.804 26.6085 502.187 29.5695 502.187C32.9295 502.187 34.4625 504.329 34.4625 506.765C34.4625 507.752 34.2525 508.991 33.8535 509.957ZM26.2725 517.895C25.8945 518.231 25.4115 518.168 25.2015 517.811C24.8655 517.244 24.6975 516.53 24.6975 515.69C24.6975 513.821 25.6005 512.771 28.3305 512.771L33.1605 512.771L33.1605 511.196C33.6855 511.196 34.0845 511.238 34.1055 511.616L34.1475 512.561L36.7095 513.485C36.7095 514.262 36.4575 514.388 35.8485 514.388L34.2315 514.388L34.3785 518.042C33.4335 518.147 33.1605 518.063 33.1605 517.475L33.1605 514.388L28.3305 514.388C26.2935 514.388 25.7895 514.766 25.7895 516.068C25.7895 516.761 25.9995 517.349 26.2725 517.895ZM33.8535 527.132L31.6905 527.132C31.0395 527.132 30.8925 526.901 30.8925 526.229C32.4255 526.082 33.5385 525.347 33.5385 523.772C33.5385 521.945 32.2155 521.168 29.5695 521.168C27.3015 521.168 25.7475 521.924 25.7475 524.024C25.7475 525.053 26.1255 525.977 26.9655 526.838C26.6505 527.258 26.2095 527.258 25.9365 526.985C25.2015 526.271 24.6765 525.2 24.6765 523.646C24.6765 520.979 26.6085 519.362 29.5695 519.362C32.9295 519.362 34.4625 521.504 34.4625 523.94C34.4625 524.927 34.2525 526.166 33.8535 527.132ZM29.5905 536.813L29.5905 530.534C27.3225 530.534 25.7685 531.29 25.7685 533.39C25.7685 534.419 26.1465 535.448 26.9865 536.309C26.6715 536.729 26.2305 536.729 25.9575 536.456C25.2225 535.742 24.6975 534.566 24.6975 533.012C24.6975 530.345 26.6295 528.77 29.5905 528.77C32.9505 528.77 34.4835 530.597 34.4835 533.012C34.4835 535.217 33.0555 536.834 30.4725 536.834C30.1995 536.834 29.9055 536.834 29.5905 536.813ZM30.5145 530.576L30.5145 534.671C30.5145 534.986 30.5985 535.049 30.9555 535.049C32.5305 535.049 33.5595 534.335 33.5595 533.012C33.5595 531.395 32.5305 530.723 30.5145 530.576Z" fill="black"/>
<g clip-path="url(#clip0_107_289)">
<path d="M33.2944 710.089L36.256 710.089L36.256 713.482L38.0616 713.482L38.0616 708.51L33.2944 708.51L33.2944 710.089Z" fill="black"/>
<path d="M38.0616 714.038L33.2944 714.038L33.2944 715.577L38.0616 715.577L38.0616 714.038Z" fill="black"/>
<path d="M39.812 709.83L42.7931 709.83L42.7931 710.539L39.812 710.539L39.812 710.996L39.812 711.51L39.812 712.288L39.812 712.747L39.812 713.482L44.5358 713.482L44.5358 712.288L41.5548 712.288L41.5548 711.51L44.5358 711.51L44.5358 710.921L44.5358 710.539L44.5358 709.83L44.5358 709.169L44.5358 708.51L39.812 708.51L39.812 709.83Z" fill="black"/>
<path d="M55.8009 711.94L55.2315 711.94L55.2315 710.124L55.8009 710.124L55.8009 708.51L51.0781 708.51L51.0781 710.124L51.6529 710.124L51.6529 711.94L51.0781 711.94L51.0781 713.481L55.8009 713.481L55.8009 711.94ZM53.0579 710.124L53.7572 710.124L53.7572 711.94L53.0579 711.94L53.0579 710.124Z" fill="black"/>
<path d="M29.9961 707.747L28.2544 707.747L28.2544 716.63L29.9961 716.63L29.9961 712.181L31.4974 712.181L31.4974 710.642L29.9961 710.642L29.9961 707.747Z" fill="black"/>
<path d="M26.5117 721.338L27.6028 721.338L28.2545 721.338L31.1782 721.338L31.1782 719.801L28.2545 719.801L28.2545 716.63L26.5117 716.63L26.5117 721.338Z" fill="black"/>
<path d="M67.1177 714.053L62.3506 714.053L62.3506 715.609L67.1177 715.609L67.1177 714.053Z" fill="black"/>
<path d="M47.8402 707.747L46.0542 707.747L46.0542 716.63L47.8402 716.63L47.8402 712.189L49.3145 712.189L49.3145 710.634L47.8402 710.634L47.8402 707.747Z" fill="black"/>
<path d="M59.1012 707.747L57.3141 707.747L57.3141 716.389L55.8008 716.389L55.8008 717.944L58.7808 717.944L58.7808 721.33L60.5679 721.33L60.5679 717.944L60.5679 717.434L60.5679 716.389L59.1012 716.389L59.1012 707.747Z" fill="black"/>
<path d="M64.7482 711.212L65.9378 713.29L67.5106 712.692L64.733 707.673L61.9565 712.692L63.5196 713.29L64.7482 711.212Z" fill="black"/>
<path d="M24.3955 708.522C22.8271 708.522 21.5552 709.642 21.5552 711.023C21.5552 712.404 22.8271 713.524 24.3955 713.524C25.964 713.524 27.2359 712.404 27.2359 711.023C27.2359 709.642 25.964 708.522 24.3955 708.522ZM24.3955 711.95C23.8143 711.95 23.3434 711.535 23.3434 711.023C23.3434 710.511 23.8143 710.097 24.3955 710.097C24.9768 710.097 25.4477 710.511 25.4477 711.023C25.4477 711.535 24.9768 711.95 24.3955 711.95Z" fill="black"/>
</g>
<defs>
<clipPath id="clip0_107_289">
<rect width="45.9555" height="13.6654" fill="white" transform="translate(21.5552 707.673)"/>
</clipPath>
</defs>
</svg>
