<svg width="122" height="989" viewBox="0 0 122 989" fill="none" xmlns="http://www.w3.org/2000/svg">
<path d="M0 0H122V989H0V0Z" fill="#2F4F59"/>
<path d="M62.48 86.808C61.32 87.088 59.52 82.408 59.12 78.368C58.84 75.528 59.44 71.288 60.16 71.128C61.32 70.808 64.28 73.568 65.8 76.088C67.88 79.488 69.64 84.408 68.52 84.728C67.64 85.008 65.72 83.288 64.68 83.648C63.72 84.008 63.48 86.528 62.48 86.808ZM68.48 72.848C65.6 72.168 61.96 70.328 61.96 69.168C61.92 68.448 65.68 66.368 68.48 65.808C72.48 65.008 77.52 65.048 77.56 66.208C77.6 67.208 75.36 68.368 75.28 69.408C75.2 70.528 77.56 71.648 77.56 72.608C77.56 73.808 72.4 73.808 68.48 72.848ZM47.8 82.408C47.2 81.648 48.36 79.368 47.72 78.408C47.16 77.608 44.56 78.128 44 77.288C43.32 76.328 47.16 73.048 50.92 71.488C53.56 70.408 57.76 69.648 58.12 70.248C58.68 71.208 57.04 74.888 55.12 77.128C52.52 80.168 48.52 83.368 47.8 82.408ZM60.16 67.168C59.44 67.008 58.84 62.768 59.12 59.928C59.52 55.888 61.32 51.208 62.48 51.488C63.48 51.768 63.72 54.288 64.68 54.648C65.72 55.008 67.64 53.288 68.52 53.568C69.64 53.888 67.88 58.808 65.8 62.208C64.28 64.728 61.32 67.488 60.16 67.168ZM58.12 68.048C57.76 68.648 53.56 67.888 50.92 66.808C47.16 65.248 43.32 61.968 44 61.008C44.56 60.168 47.16 60.688 47.72 59.888C48.36 58.928 47.2 56.648 47.8 55.888C48.52 54.928 52.52 58.128 55.12 61.168C57.04 63.408 58.68 67.088 58.12 68.048ZM41.44 111.952C41.44 103.952 42.28 95.8323 49.36 95.8323C56.44 95.8323 57.32 103.952 57.32 111.952C57.32 119.952 56.44 128.072 49.36 128.072C42.28 128.072 41.44 119.952 41.44 111.952ZM78.2 114.632L78.2 95.5923C78.36 95.3923 78.92 95.3123 79.32 95.3123L79.32 94.5123L72.48 94.5123L72.48 95.3123C72.96 95.3123 73.44 95.3923 73.6 95.5923L73.6 108.032C71.48 107.432 65.76 103.752 62.84 97.0723C62.96 96.8323 63.2 96.5923 63.4 96.3923L62.84 95.8723L58.12 100.992L58.68 101.512C58.88 101.272 59 101.112 59.16 101.032C61.92 107.312 69.08 114.232 78.2 114.632ZM78.6 121.112C78.6 121.512 78.52 122.072 78.28 122.232L60.48 122.232C60.28 122.072 60.2 121.512 60.2 121.112L59.4 121.112L59.4 128.752L60.2 128.752C60.2 128.272 60.28 127.752 60.48 127.632L67.2 127.632L67.2 131.912C67.04 132.152 66.56 132.232 66.08 132.232L66.08 133.032L72.92 133.032L72.92 132.232C72.48 132.232 71.92 132.112 71.8 131.912L71.8 127.632L78.28 127.632C78.52 127.752 78.6 128.272 78.6 128.752L79.4 128.752L79.4 121.112L78.6 121.112ZM46.28 116.512C46.4 119.992 47.16 122.472 49.36 122.472C51.36 122.472 52.32 119.952 52.48 116.792C52.6 113.752 52.6 110.672 52.48 107.112C52.36 103.952 51.36 101.432 49.36 101.432C47.16 101.432 46.4 103.912 46.28 107.392C46.16 110.232 46.16 113.512 46.28 116.512ZM58.6 159.435L58.6 137.715L78.2 137.715L78.2 159.435L58.6 159.435ZM47.2 146.755L47.2 172.115C47.36 172.315 47.92 172.435 48.32 172.435L48.32 173.235L41.48 173.235L41.48 172.435C41.96 172.435 42.48 172.355 42.6 172.115L42.6 141.355L53.88 141.355C54.08 141.195 54.2 140.635 54.2 140.235L55 140.235L55 147.875L54.2 147.875C54.2 147.395 54.12 146.875 53.88 146.755L47.2 146.755ZM78.6 166.315L79.4 166.315L79.4 173.955L78.6 173.955C78.6 173.475 78.52 172.955 78.28 172.835L55.68 172.835C55.48 172.955 55.4 173.475 55.4 173.955L54.6 173.955L54.6 166.315L55.4 166.315C55.4 166.715 55.48 167.275 55.68 167.435L78.28 167.435C78.48 167.275 78.6 166.715 78.6 166.315ZM63.2 154.035L73.6 154.035L73.6 143.115L63.2 143.115L63.2 154.035ZM68.8 195.14C66.72 195.02 64.8 194.74 63 194.34C58.92 196.18 53.68 200.1 50.44 204.26C50.52 204.5 50.84 204.78 51.12 205.06L50.64 205.66L44.64 201.26L45.08 200.62C45.44 200.86 45.88 201.1 46.16 201.02C49.12 197.54 52.36 194.5 56.12 192.02C51.04 189.66 47.6 186.46 45.6 184.34C45.36 184.34 44.96 184.62 44.64 184.86L44.16 184.26L49.84 179.7L50.28 180.3C49.96 180.58 49.68 180.9 49.64 181.14C53.04 185.02 60.84 189.38 68.8 189.74L76.8 190.1C77 189.9 77.12 189.38 77.24 189.02L78 189.14L76.88 196.66L76.08 196.54C76.16 196.14 76.16 195.74 76.08 195.5L68.8 195.14ZM78.6 210.3L79.4 210.3L79.4 217.94L78.6 217.94C78.6 217.46 78.52 216.94 78.28 216.82L43.72 216.82C43.48 216.94 43.4 217.46 43.4 217.94L42.6 217.94L42.6 210.3L43.4 210.3C43.4 210.7 43.48 211.26 43.72 211.42L61.2 211.42L61.2 203.42L65.8 203.42L65.8 211.42L78.28 211.42C78.52 211.26 78.6 210.7 78.6 210.3ZM54.12 245.204C48.24 245.204 44.2 242.044 44.2 235.964L44.2 234.324C44.2 228.244 48.24 225.084 54.12 225.084L68.28 225.084C74.16 225.084 78.2 228.244 78.2 234.324L78.2 235.964C78.2 242.044 74.16 245.204 68.28 245.204L64.6 245.204L64.6 249.604L78.28 249.604C78.48 249.444 78.6 248.884 78.6 248.484L79.4 248.484L79.4 255.484L78.6 255.484C78.6 255.084 78.52 254.844 78.36 254.764L43.64 254.764C43.48 254.844 43.4 255.084 43.4 255.484L42.6 255.484L42.6 248.484L43.4 248.484C43.4 248.884 43.48 249.444 43.72 249.604L60 249.604L60 245.204L54.12 245.204ZM67.68 239.804C71.32 239.804 73.6 238.564 73.6 235.484L73.6 234.804C73.6 231.724 71.32 230.484 67.68 230.484L54.72 230.484C51.08 230.484 48.8 231.724 48.8 234.804L48.8 235.484C48.8 238.564 51.08 239.804 54.72 239.804L67.68 239.804ZM78.6 256.844L79.4 256.844L79.4 263.924L78.6 263.924C78.6 263.444 78.52 262.924 78.28 262.804L43.72 262.804C43.48 262.924 43.4 263.444 43.4 263.924L42.6 263.924L42.6 256.844L43.4 256.844C43.4 257.204 43.48 257.444 43.64 257.564L78.32 257.564C78.52 257.484 78.6 257.204 78.6 256.844ZM78.6 307.255L79.4 307.255L79.4 314.255L78.6 314.255C78.6 313.855 78.52 313.615 78.36 313.535L64.6 313.535L64.6 317.135L78.32 317.135C78.52 317.055 78.6 316.775 78.6 316.415L79.4 316.415L79.4 323.495L78.6 323.495C78.6 323.015 78.52 322.495 78.28 322.375L43.72 322.375C43.48 322.495 43.4 323.015 43.4 323.495L42.6 323.495L42.6 316.415L43.4 316.415C43.4 316.775 43.48 317.015 43.64 317.135L60 317.135L60 313.535L43.64 313.535C43.48 313.615 43.4 313.855 43.4 314.255L42.6 314.255L42.6 307.255L43.4 307.255C43.4 307.655 43.48 308.215 43.72 308.375L78.28 308.375C78.48 308.215 78.6 307.655 78.6 307.255ZM77.4 285.055L77.4 303.255C77.52 303.455 78.08 303.575 78.52 303.575L78.52 304.375L71.68 304.375L71.68 303.575C72.16 303.575 72.64 303.495 72.8 303.255L72.8 290.455L50.2 290.455L50.2 304.055C50.32 304.255 50.88 304.375 51.32 304.375L51.32 305.175L44.48 305.175L44.48 304.375C44.96 304.375 45.48 304.295 45.6 304.055L45.6 285.055L77.4 285.055ZM56.8 329.679C50 329.679 45.64 334.519 45.64 340.599C45.64 346.679 50 351.519 56.8 351.519C63.6 351.519 68 347.079 68 340.599C68 334.119 63.6 329.679 56.8 329.679ZM78.6 356.639L79.4 356.639L79.4 364.279L78.6 364.279C78.6 363.799 78.52 363.279 78.28 363.159L64.6 363.159L64.6 367.439C64.72 367.639 65.28 367.759 65.72 367.759L65.72 368.559L58.88 368.559L58.88 367.759C59.36 367.759 59.84 367.679 60 367.439L60 363.159L43.72 363.159C43.48 363.279 43.4 363.799 43.4 364.279L42.6 364.279L42.6 356.639L43.4 356.639C43.4 357.039 43.48 357.599 43.72 357.759L78.28 357.759C78.48 357.599 78.6 357.039 78.6 356.639ZM79 336.679L79.8 336.679L79.8 344.319L79 344.319C79 343.839 78.92 343.319 78.68 343.199L74.2 343.199L74.2 351.319C74.32 351.519 74.88 351.639 75.32 351.639L75.32 352.439L68.48 352.439L68.48 351.639C68.96 351.639 69.44 351.559 69.6 351.319L69.6 329.679C69.44 329.479 68.96 329.399 68.48 329.399L68.48 328.599L75.32 328.599L75.32 329.399C74.92 329.399 74.36 329.479 74.2 329.679L74.2 337.799L78.68 337.799C78.88 337.639 79 337.079 79 336.679ZM56.84 335.079C60.92 335.079 63.4 337.279 63.4 340.599C63.4 343.919 60.92 346.119 56.84 346.119C52.76 346.119 50.24 343.919 50.24 340.599C50.24 337.279 52.76 335.079 56.84 335.079ZM78.6 401.823L79.4 401.823L79.4 409.463L78.6 409.463C78.6 408.983 78.52 408.463 78.28 408.343L43.72 408.343C43.48 408.463 43.4 408.983 43.4 409.463L42.6 409.463L42.6 401.823L43.4 401.823C43.4 402.223 43.48 402.783 43.72 402.943L53.2 402.943L53.2 395.303C47.84 394.983 44.2 391.863 44.2 386.103L44.2 382.063C44.2 375.983 48.24 372.823 54.12 372.823L68.28 372.823C74.16 372.823 78.2 375.983 78.2 382.063L78.2 386.103C78.2 391.343 75.2 394.423 70.6 395.143L70.6 402.943L78.28 402.943C78.48 402.783 78.6 402.223 78.6 401.823ZM67.68 389.943C71.32 389.943 73.6 388.703 73.6 385.623L73.6 382.543C73.6 379.463 71.32 378.223 67.68 378.223L54.72 378.223C51.08 378.223 48.8 379.463 48.8 382.543L48.8 385.623C48.8 388.703 51.08 389.943 54.72 389.943L67.68 389.943ZM57.8 395.343L57.8 402.943L66 402.943L66 395.343L57.8 395.343ZM62.48 453.488C61.32 453.768 59.52 449.088 59.12 445.048C58.84 442.208 59.44 437.968 60.16 437.808C61.32 437.488 64.28 440.248 65.8 442.768C67.88 446.168 69.64 451.088 68.52 451.408C67.64 451.688 65.72 449.968 64.68 450.328C63.72 450.688 63.48 453.208 62.48 453.488ZM68.48 439.528C65.6 438.848 61.96 437.008 61.96 435.848C61.92 435.128 65.68 433.048 68.48 432.488C72.48 431.688 77.52 431.728 77.56 432.888C77.6 433.888 75.36 435.048 75.28 436.088C75.2 437.208 77.56 438.328 77.56 439.288C77.56 440.488 72.4 440.488 68.48 439.528ZM47.8 449.088C47.2 448.328 48.36 446.048 47.72 445.088C47.16 444.288 44.56 444.808 44 443.968C43.32 443.008 47.16 439.728 50.92 438.168C53.56 437.088 57.76 436.328 58.12 436.928C58.68 437.888 57.04 441.568 55.12 443.808C52.52 446.848 48.52 450.048 47.8 449.088ZM60.16 433.848C59.44 433.688 58.84 429.448 59.12 426.608C59.52 422.568 61.32 417.888 62.48 418.168C63.48 418.448 63.72 420.968 64.68 421.328C65.72 421.688 67.64 419.968 68.52 420.248C69.64 420.568 67.88 425.488 65.8 428.888C64.28 431.408 61.32 434.168 60.16 433.848ZM58.12 434.728C57.76 435.328 53.56 434.568 50.92 433.488C47.16 431.928 43.32 428.648 44 427.688C44.56 426.848 47.16 427.368 47.72 426.568C48.36 425.608 47.2 423.328 47.8 422.568C48.52 421.608 52.52 424.808 55.12 427.848C57.04 430.088 58.68 433.768 58.12 434.728Z" fill="#EFEFEF"/>
</svg>
