<svg width="120" height="902" viewBox="0 0 120 902" fill="none" xmlns="http://www.w3.org/2000/svg">
<rect width="120" height="902" fill="white"/>
<path d="M81.8 49.688L81.8 65.112C81.8 77.464 71.752 87.512 59.4 87.512C47.048 87.512 37 77.464 37 65.112L37 49.688L81.8 49.688ZM76.936 65.112L76.936 54.552L41.864 54.552L41.864 65.112C41.864 74.776 49.736 82.648 59.4 82.648C69.064 82.648 76.936 74.776 76.936 65.112ZM76.104 55.384L76.104 64.728C76.104 73.752 68.808 81.048 59.784 81.048C50.76 81.048 43.464 73.752 43.464 64.728L43.464 55.384L76.104 55.384ZM45.256 57.176L45.256 64.728C45.256 72.728 51.784 79.256 59.784 79.256C67.784 79.256 74.312 72.728 74.312 64.728L74.312 57.176L45.256 57.176ZM72.712 58.776L72.712 65.112C72.712 72.472 66.76 78.424 59.4 78.424C52.04 78.424 46.088 72.472 46.088 65.112L46.088 58.776L72.712 58.776ZM67.848 65.112L67.848 63.64L50.952 63.64L50.952 65.112C50.952 69.784 54.728 73.56 59.4 73.56C64.072 73.56 67.848 69.784 67.848 65.112ZM61.704 120.753L61.704 100.401L72.712 100.401L72.712 120.753L67.848 120.753L67.848 105.265L66.568 105.265L66.568 120.753L61.704 120.753ZM60.872 98.801L60.872 119.153L59.08 119.153L59.08 98.801L45.256 98.801L45.256 119.153L43.464 119.153L43.464 97.009L76.104 97.009L76.104 119.153L74.312 119.153L74.312 98.801L60.872 98.801ZM46.088 120.753L46.088 100.401L57.48 100.401L57.48 120.753L52.616 120.753L52.616 105.265L50.952 105.265L50.952 120.753L46.088 120.753ZM41.864 120.753L37 120.753L37 91.313L81.8 91.313L81.8 120.753L76.936 120.753L76.936 96.177L41.864 96.177L41.864 120.753ZM66.376 146.414L66.376 141.549L67.592 141.55C68.232 141.55 68.808 140.973 68.808 140.333C68.808 139.693 68.36 139.117 67.784 139.117C67.016 139.117 66.568 140.077 66.376 141.037L65.992 142.893C64.136 151.917 58.184 155.502 51.656 155.502C42.632 155.502 36.04 148.717 36.04 140.397C36.04 131.949 42.824 125.165 51.208 125.165L52.232 125.165L52.232 130.029L51.208 130.029C45.512 130.029 40.904 134.637 40.904 140.333C40.904 146.029 45.512 150.637 51.464 150.637C58.184 150.637 60.424 144.685 61 141.869L61.384 140.013C62.152 136.365 64.648 134.253 67.784 134.253C71.176 134.253 73.672 136.813 73.672 140.206C73.672 143.79 70.92 146.414 67.592 146.414L66.376 146.414ZM67.912 132.653C63.88 132.653 61.384 135.597 60.68 138.989L60.296 140.845C59.336 145.453 56.776 149.037 51.784 149.037C46.472 149.037 42.504 144.941 42.504 139.949C42.504 134.957 46.6 130.861 51.592 130.861L51.592 132.653C47.56 132.653 44.296 135.853 44.296 140.013C44.296 143.981 47.304 147.245 51.592 147.245C55.56 147.245 57.736 144.365 58.44 140.845L58.824 138.989C59.72 134.637 62.728 130.861 67.784 130.861C73.032 130.861 77.064 134.957 77.064 139.95C77.064 144.942 72.968 149.037 67.976 149.037L67.976 147.245C72.008 147.245 75.272 144.046 75.272 139.949C75.272 135.917 72.136 132.653 67.912 132.653ZM66.376 150.637L67.592 150.637C73.288 150.637 77.896 146.029 77.896 140.269C77.896 134.637 73.416 130.029 67.272 130.029C61.448 130.029 58.12 134.189 57.224 139.309L56.904 141.165C56.456 143.661 54.472 146.413 51.144 146.413C47.752 146.413 45.128 143.661 45.128 140.333C45.128 137.005 47.88 134.253 51.208 134.253L52.232 134.253L52.232 139.117L51.208 139.117C50.568 139.117 49.992 139.693 49.992 140.333C49.992 140.973 50.44 141.549 51.08 141.549C51.784 141.549 52.104 140.909 52.232 140.077L52.552 138.221C54.152 128.813 61 125.165 67.4 125.165C76.104 125.165 82.76 131.949 82.76 140.333C82.76 148.717 75.976 155.502 67.592 155.502L66.376 155.502L66.376 150.637ZM37 164.802L37 159.938L81.8 159.938L81.8 164.802L37 164.802ZM80.968 167.426L38.6 167.426L38.6 165.634L80.968 165.634L80.968 167.426ZM37 169.026L81.8 169.026L81.8 173.89L37 173.89L37 169.026ZM59.464 195.634L59.464 205.49L51.592 205.49C46.6 205.49 42.504 201.394 42.504 196.402L42.504 193.394C42.504 188.402 46.6 184.306 51.592 184.306L67.976 184.306C72.968 184.306 77.064 188.402 77.064 193.394L77.064 196.402C77.064 201.394 72.968 205.491 67.976 205.491L67.4 205.49L67.4 203.699L67.976 203.699C72.008 203.699 75.272 200.435 75.272 196.402L75.272 193.394C75.272 189.362 72.008 186.098 67.976 186.098L51.592 186.098C47.56 186.098 44.296 189.362 44.296 193.394L44.296 196.402C44.296 200.434 47.56 203.698 51.592 203.698L57.672 203.698L57.672 195.634L59.464 195.634ZM60.296 194.802L65.16 194.803L65.16 211.955L51.208 211.954C42.824 211.954 36.04 205.17 36.04 196.786L36.04 193.778C36.04 185.394 42.824 178.61 51.208 178.61L67.592 178.61C75.976 178.61 82.76 185.394 82.76 193.779L82.76 196.787C82.76 205.171 75.976 211.955 67.592 211.955L65.8 211.955L65.8 207.091L67.592 207.091C73.288 207.091 77.896 202.483 77.896 196.786L77.896 193.779C77.896 188.082 73.288 183.474 67.592 183.474L51.208 183.474C45.512 183.474 40.904 188.082 40.904 193.778L40.904 196.786C40.904 202.482 45.512 207.09 51.208 207.09L60.296 207.091L60.296 194.802ZM56.072 194.802L56.072 202.866L51.208 202.866C47.88 202.866 45.128 200.114 45.128 196.786L45.128 193.778C45.128 190.45 47.88 187.698 51.208 187.698L67.592 187.698C70.92 187.698 73.672 190.45 73.672 193.779L73.672 196.786C73.672 200.115 70.92 202.866 67.592 202.866L65.8 202.866L65.8 198.002L67.592 198.002C68.232 198.002 68.808 197.426 68.808 196.786L68.808 193.779C68.808 193.138 68.232 192.562 67.592 192.562L51.208 192.562C50.568 192.562 49.992 193.138 49.992 193.778L49.992 196.786C49.992 197.426 50.568 198.002 51.208 198.002L51.208 194.802L56.072 194.802ZM37 221.552L37 216.688L81.8 216.688L81.8 229.808L65.544 240.176L81.8 240.176L81.8 245.04L48.456 245.04L76.936 226.928L76.936 221.552L37 221.552ZM44.296 245.872L80.968 245.872L80.968 247.664L43.464 247.664L43.464 244.208L74.504 224.176L38.6 224.176L38.6 222.384L76.104 222.384L76.104 225.456L44.296 245.872ZM37 225.776L70.408 225.776L41.864 244.016L41.864 249.264L81.8 249.264L81.8 254.128L37 254.128L37 241.072L53.32 230.64L37 230.64L37 225.776ZM37 280.614L37 275.75L81.8 275.75L81.8 292.454C81.8 300.582 75.208 307.175 67.08 307.175C58.952 307.175 52.424 300.582 52.424 292.454L52.424 289.702L37 289.702L37 284.838L57.288 284.838L57.288 292.454C57.288 297.894 61.64 302.31 67.08 302.31C72.52 302.31 76.936 297.894 76.936 292.454L76.936 280.614L37 280.614ZM58.888 283.238L38.6 283.238L38.6 281.446L76.104 281.446L76.104 292.071C76.104 296.87 72.264 300.71 67.464 300.71C62.664 300.71 58.888 296.87 58.888 292.07L58.888 283.238ZM74.312 283.238L60.68 283.238L60.68 292.07C60.68 295.846 63.688 298.918 67.464 298.918C71.24 298.918 74.312 295.846 74.312 292.071L74.312 283.238ZM72.712 292.454C72.712 295.591 70.216 298.087 67.08 298.087C63.944 298.087 61.512 295.591 61.512 292.454L61.512 284.838L72.712 284.838L72.712 292.454ZM67.08 293.223C67.528 293.223 67.848 292.902 67.848 292.454L67.848 289.702L66.376 289.702L66.376 292.454C66.376 292.902 66.632 293.223 67.08 293.223ZM82.76 325.154L82.76 327.202C82.76 335.585 75.976 342.37 67.592 342.37L51.208 342.37C42.824 342.37 36.04 335.585 36.04 327.201L36.04 325.153C36.04 316.769 42.824 309.985 51.208 309.985L67.592 309.985C75.976 309.985 82.76 316.769 82.76 325.154ZM77.896 327.202L77.896 325.154C77.896 319.457 73.288 314.849 67.592 314.849L51.208 314.849C45.512 314.849 40.904 319.457 40.904 325.153L40.904 327.201C40.904 332.897 45.512 337.505 51.208 337.505L67.592 337.505C73.288 337.505 77.896 332.898 77.896 327.202ZM77.064 324.769L77.064 326.818C77.064 331.81 72.968 335.905 67.976 335.905L51.592 335.905C46.6 335.905 42.504 331.809 42.504 326.817L42.504 324.769C42.504 319.777 46.6 315.681 51.592 315.681L67.976 315.681C72.968 315.681 77.064 319.777 77.064 324.769ZM75.272 326.817L75.272 324.769C75.272 320.737 72.008 317.473 67.976 317.473L51.592 317.473C47.56 317.473 44.296 320.737 44.296 324.769L44.296 326.817C44.296 330.849 47.56 334.113 51.592 334.113L67.976 334.113C72.008 334.113 75.272 330.849 75.272 326.817ZM73.672 325.154L73.672 327.202C73.672 330.529 70.92 333.282 67.592 333.282L51.208 333.281C47.88 333.281 45.128 330.529 45.128 327.201L45.128 325.153C45.128 321.825 47.88 319.073 51.208 319.073L67.592 319.073C70.92 319.073 73.672 321.825 73.672 325.154ZM68.808 327.202L68.808 325.154C68.808 324.513 68.232 323.937 67.592 323.937L51.208 323.937C50.568 323.937 49.992 324.513 49.992 325.153L49.992 327.201C49.992 327.841 50.568 328.417 51.208 328.417L67.592 328.418C68.232 328.418 68.808 327.841 68.808 327.202ZM74.312 354.613L60.68 354.613L60.68 363.317C60.68 367.093 63.688 370.165 67.464 370.165C71.24 370.165 74.312 367.093 74.312 363.317L74.312 354.613ZM72.712 363.702C72.712 366.838 70.216 369.334 67.08 369.334C63.944 369.334 61.512 366.837 61.512 363.702L61.512 356.213L72.712 356.213L72.712 363.702ZM67.08 364.47C67.528 364.47 67.848 364.15 67.848 363.702L67.848 361.077L66.376 361.077L66.376 363.702C66.376 364.15 66.632 364.47 67.08 364.47ZM58.888 363.317L58.888 356.981L38.6 374.005L38.6 371.637L58.888 354.613L38.6 354.613L38.6 352.821L76.104 352.821L76.104 363.318C76.104 368.117 72.264 371.957 67.464 371.957C62.664 371.957 58.888 368.117 58.888 363.317ZM37 371.829L37 365.429L42.184 361.077L37 361.077L37 356.213L55.624 356.213L37 371.829ZM37 377.398L57.288 360.373L57.288 363.701C57.288 369.141 61.64 373.557 67.08 373.557C72.52 373.557 76.936 369.141 76.936 363.702L76.936 351.989L37 351.989L37 347.125L81.8 347.125L81.8 363.702C81.8 371.83 75.208 378.422 67.08 378.421C61.128 378.421 56.008 374.837 53.704 369.781L37 383.797L37 377.398ZM76.936 413.28L76.936 381.408L81.8 381.408L81.8 413.28L76.936 413.28ZM74.312 382.24L76.104 382.24L76.104 411.68L74.312 411.68L74.312 397.856L38.6 397.856L38.6 396.064L74.312 396.064L74.312 382.24ZM37 395.232L37 390.368L67.848 390.368L67.848 381.408L72.712 381.408L72.712 395.232L37 395.232ZM37 399.456L72.712 399.456L72.712 413.28L67.848 413.28L67.848 404.32L37 404.32L37 399.456ZM60.424 446.24L60.424 426.463L72.712 426.463L72.712 446.24L67.848 446.24L67.848 431.327L65.288 431.327L65.288 446.24L60.424 446.24ZM57.8 424.863L38.6 424.863L38.6 423.071L76.104 423.071L76.104 444.64L74.312 444.64L74.312 424.863L59.592 424.863L59.592 444.639L57.8 444.639L57.8 424.863ZM37 422.239L37 417.375L81.8 417.375L81.8 446.24L76.936 446.24L76.936 422.239L37 422.239ZM37 426.463L56.2 426.463L56.2 446.24L51.336 446.239L51.336 431.327L37 431.327L37 426.463ZM82.76 465.841L82.76 467.889C82.76 476.273 75.976 483.057 67.592 483.057L51.208 483.057C42.824 483.057 36.04 476.273 36.04 467.889L36.04 465.841C36.04 457.457 42.824 450.673 51.208 450.673L67.592 450.673C75.976 450.673 82.76 457.457 82.76 465.841ZM77.896 467.889L77.896 465.841C77.896 460.145 73.288 455.537 67.592 455.537L51.208 455.537C45.512 455.537 40.904 460.145 40.904 465.841L40.904 467.889C40.904 473.585 45.512 478.193 51.208 478.193L67.592 478.193C73.288 478.193 77.896 473.585 77.896 467.889ZM77.064 465.457L77.064 467.505C77.064 472.497 72.968 476.593 67.976 476.593L51.592 476.593C46.6 476.593 42.504 472.497 42.504 467.505L42.504 465.457C42.504 460.465 46.6 456.369 51.592 456.369L67.976 456.369C72.968 456.369 77.064 460.465 77.064 465.457ZM75.272 467.505L75.272 465.457C75.272 461.425 72.008 458.161 67.976 458.161L51.592 458.161C47.56 458.161 44.296 461.425 44.296 465.457L44.296 467.505C44.296 471.537 47.56 474.801 51.592 474.801L67.976 474.801C72.008 474.801 75.272 471.537 75.272 467.505ZM73.672 465.841L73.672 467.889C73.672 471.217 70.92 473.969 67.592 473.969L51.208 473.969C47.88 473.969 45.128 471.217 45.128 467.889L45.128 465.841C45.128 462.513 47.88 459.761 51.208 459.761L67.592 459.761C70.92 459.761 73.672 462.513 73.672 465.841ZM68.808 467.889L68.808 465.841C68.808 465.201 68.232 464.625 67.592 464.625L51.208 464.625C50.568 464.625 49.992 465.201 49.992 465.841L49.992 467.889C49.992 468.529 50.568 469.105 51.208 469.105L67.592 469.105C68.232 469.105 68.808 468.529 68.808 467.889ZM46.088 515.397L46.088 496.901L81.8 496.901L81.8 501.765L50.952 501.765L50.952 515.397L46.088 515.397ZM80.968 495.301L45.256 495.301L45.256 513.797L43.464 513.797L43.464 493.509L80.968 493.509L80.968 495.301ZM41.864 515.397L37 515.397L37 487.813L81.8 487.813L81.8 492.677L41.864 492.677L41.864 515.397ZM37 524.677L37 519.813L81.8 519.813L81.8 524.677L37 524.677ZM80.968 527.301L38.6 527.301L38.6 525.509L80.968 525.509L80.968 527.301ZM37 528.901L81.8 528.901L81.8 533.765L37 533.765L37 528.901ZM82.76 553.654L82.76 555.702C82.76 564.085 75.976 570.87 67.592 570.87L51.208 570.87C42.824 570.87 36.04 564.085 36.04 555.701L36.04 553.653C36.04 545.269 42.824 538.485 51.208 538.485L67.592 538.485C75.976 538.485 82.76 545.269 82.76 553.654ZM77.896 555.702L77.896 553.654C77.896 547.957 73.288 543.349 67.592 543.349L51.208 543.349C45.512 543.349 40.904 547.957 40.904 553.653L40.904 555.701C40.904 561.397 45.512 566.005 51.208 566.005L67.592 566.005C73.288 566.005 77.896 561.398 77.896 555.702ZM77.064 553.269L77.064 555.318C77.064 560.31 72.968 564.405 67.976 564.405L51.592 564.405C46.6 564.405 42.504 560.309 42.504 555.317L42.504 553.269C42.504 548.277 46.6 544.181 51.592 544.181L67.976 544.181C72.968 544.181 77.064 548.277 77.064 553.269ZM75.272 555.317L75.272 553.269C75.272 549.237 72.008 545.973 67.976 545.973L51.592 545.973C47.56 545.973 44.296 549.237 44.296 553.269L44.296 555.317C44.296 559.349 47.56 562.613 51.592 562.613L67.976 562.613C72.008 562.613 75.272 559.349 75.272 555.317ZM73.672 553.654L73.672 555.702C73.672 559.029 70.92 561.782 67.592 561.782L51.208 561.781C47.88 561.781 45.128 559.029 45.128 555.701L45.128 553.653C45.128 550.325 47.88 547.573 51.208 547.573L67.592 547.573C70.92 547.573 73.672 550.325 73.672 553.654ZM68.808 555.702L68.808 553.654C68.808 553.013 68.232 552.437 67.592 552.437L51.208 552.437C50.568 552.437 49.992 553.013 49.992 553.653L49.992 555.701C49.992 556.341 50.568 556.917 51.208 556.917L67.592 556.918C68.232 556.918 68.808 556.341 68.808 555.702Z" fill="black"/>
</svg>
