<svg width="53" height="651" viewBox="0 0 53 651" fill="none" xmlns="http://www.w3.org/2000/svg">
<path d="M0 0H53V651H0V0Z" fill="#1B7846"/>
<path d="M22.522 71.386C22.5 71.166 22.566 71.1 22.786 71.1L33.148 71.1L33.764 71.078C33.984 71.078 34.05 71.144 34.05 71.364L34.05 72.816C34.05 73.036 33.984 73.102 33.786 73.058C33.544 73.014 33.302 72.948 33.082 72.904L29.32 72.904L29.32 75.214L33.61 75.214L34.226 75.192C34.446 75.192 34.512 75.258 34.512 75.478L34.512 77.216C34.512 77.436 34.446 77.48 34.248 77.414C34.006 77.304 33.764 77.15 33.544 77.018L23.116 77.018C22.72 77.018 22.61 76.886 22.566 76.16L22.522 75.5C22.5 75.28 22.566 75.214 22.786 75.214L27.78 75.214L27.78 72.904L23.116 72.904C22.72 72.904 22.61 72.772 22.566 72.046L22.522 71.386ZM23.028 61.442C22.918 61.244 22.94 61.134 23.094 60.98L23.71 60.364C23.864 60.21 23.93 60.232 24.04 60.408C25.228 62.476 27.406 64.17 29.672 64.566C29.65 63.422 29.606 62.344 29.518 61.508C29.496 61.288 29.562 61.2 29.782 61.156L30.97 60.848C31.19 60.804 31.256 60.848 31.234 61.068C31.146 62.036 31.102 63.378 31.102 64.742L33.324 64.632C33.544 64.61 33.61 64.676 33.632 64.896L33.742 66.238C33.764 66.458 33.698 66.524 33.478 66.502L31.102 66.414C31.124 67.14 31.146 67.844 31.19 68.46L31.586 69.164C31.696 69.34 31.674 69.45 31.498 69.56C31.146 69.758 30.552 70 29.936 70.242C29.606 70.396 29.54 70.352 29.584 69.692C29.65 68.68 29.672 67.536 29.694 66.414C28.924 66.282 28.154 66.018 27.406 65.644C26.548 67.558 24.898 69.604 24.15 69.604C23.666 69.604 23.292 69.186 23.248 68.614C23.248 68.394 23.292 68.284 23.468 68.152C24.414 67.404 25.646 66.194 26.35 65.05C25.008 64.148 23.82 62.894 23.028 61.442ZM19.64 64.83C19.618 64.61 19.684 64.522 19.882 64.456L21.114 64.104C21.312 64.038 21.378 64.082 21.378 64.302L21.378 75.214L21.598 75.434C21.752 75.588 21.774 75.698 21.686 75.896C21.532 76.248 21.246 76.732 20.938 77.15C20.806 77.326 20.718 77.326 20.564 77.172L20.388 76.974L15.328 76.974C14.932 76.974 14.8 76.842 14.69 76.116C14.668 75.896 14.646 75.654 14.624 75.434C14.624 75.214 14.69 75.148 14.91 75.148L19.904 75.148C19.882 71.408 19.794 68.108 19.64 64.83ZM22.698 94.3911C22.676 94.1711 22.742 94.1051 22.962 94.1051L33.588 94.1051L34.226 94.0831C34.446 94.0831 34.512 94.1491 34.512 94.3691L34.512 96.1071C34.512 96.3271 34.446 96.3711 34.248 96.2831C34.006 96.1731 33.764 96.0191 33.544 95.9091L28.11 95.9091L28.11 97.8891L28.55 98.6151C28.66 98.7911 28.638 98.8791 28.44 98.9891C28 99.1871 27.362 99.3631 26.878 99.4511C26.658 99.4731 26.592 99.4291 26.614 99.2091L26.68 95.9091L23.292 95.9091C22.896 95.9091 22.786 95.7771 22.742 95.0511L22.698 94.3911ZM24.04 82.0491C24.018 81.8291 24.084 81.7631 24.304 81.7631L32.114 81.7631L32.84 81.7191C33.06 81.6971 33.126 81.7631 33.126 81.9831L33.126 83.5891C33.126 83.8091 33.06 83.8531 32.862 83.7651C32.664 83.6991 32.488 83.6111 32.312 83.5231L30.134 83.5231L30.134 89.1991L32.114 89.1991L32.84 89.1551C33.06 89.1331 33.126 89.1991 33.126 89.4191L33.126 91.0251C33.126 91.2451 33.06 91.2891 32.862 91.2011C32.664 91.1131 32.488 91.0471 32.312 90.9591L24.656 90.9591C24.282 90.9591 24.216 90.8931 24.172 90.2331L24.106 89.4851C24.084 89.2651 24.15 89.1991 24.37 89.1991L24.568 89.1991L24.568 83.5231C24.216 83.5231 24.15 83.4351 24.106 82.7971L24.04 82.0491ZM25.998 83.5231L25.998 89.1991L28.814 89.1991L28.726 83.5231L25.998 83.5231ZM14.778 89.8151C14.778 86.4271 15.944 83.6331 18.43 83.6331C20.916 83.6331 22.082 86.4271 22.082 89.8151C22.082 93.2031 20.916 95.9971 18.43 95.9971C15.944 95.9971 14.778 93.2031 14.778 89.8151ZM16.23 89.8151C16.23 92.0811 16.868 94.0831 18.43 94.0831C19.97 94.0831 20.652 92.0811 20.652 89.8151C20.652 87.5051 19.97 85.5031 18.43 85.5031C16.868 85.5031 16.23 87.5051 16.23 89.8151ZM22.698 120.301C22.676 120.081 22.742 120.015 22.962 120.015L33.588 120.015L34.226 119.993C34.446 119.993 34.512 120.059 34.512 120.279L34.512 122.017C34.512 122.237 34.446 122.281 34.248 122.193C34.006 122.083 33.764 121.929 33.544 121.819L28.11 121.819L28.11 123.799L28.55 124.525C28.66 124.701 28.638 124.789 28.44 124.899C28 125.097 27.362 125.273 26.878 125.361C26.658 125.383 26.592 125.339 26.614 125.119L26.68 121.819L23.292 121.819C22.896 121.819 22.786 121.687 22.742 120.961L22.698 120.301ZM24.04 107.959C24.018 107.739 24.084 107.673 24.304 107.673L32.114 107.673L32.84 107.629C33.06 107.607 33.126 107.673 33.126 107.893L33.126 109.499C33.126 109.719 33.06 109.763 32.862 109.675C32.664 109.609 32.488 109.521 32.312 109.433L30.134 109.433L30.134 115.109L32.114 115.109L32.84 115.065C33.06 115.043 33.126 115.109 33.126 115.329L33.126 116.935C33.126 117.155 33.06 117.199 32.862 117.111C32.664 117.023 32.488 116.957 32.312 116.869L24.656 116.869C24.282 116.869 24.216 116.803 24.172 116.143L24.106 115.395C24.084 115.175 24.15 115.109 24.37 115.109L24.568 115.109L24.568 109.433C24.216 109.433 24.15 109.345 24.106 108.707L24.04 107.959ZM25.998 109.433L25.998 115.109L28.814 115.109L28.726 109.433L25.998 109.433ZM14.778 115.725C14.778 112.337 15.944 109.543 18.43 109.543C20.916 109.543 22.082 112.337 22.082 115.725C22.082 119.113 20.916 121.907 18.43 121.907C15.944 121.907 14.778 119.113 14.778 115.725ZM16.23 115.725C16.23 117.991 16.868 119.993 18.43 119.993C19.97 119.993 20.652 117.991 20.652 115.725C20.652 113.415 19.97 111.413 18.43 111.413C16.868 111.413 16.23 113.415 16.23 115.725ZM23.05 141.744C23.028 141.524 23.094 141.458 23.314 141.458L26.262 141.458C26.24 140.182 26.174 139.17 26.042 138.378C25.998 138.158 26.064 138.07 26.262 138.026L27.406 137.806C27.626 137.762 27.67 137.828 27.67 138.048C27.582 139.126 27.56 140.138 27.604 141.458L29.936 141.458C29.914 140.182 29.848 139.17 29.716 138.378C29.672 138.158 29.738 138.07 29.958 138.026L31.08 137.806C31.3 137.762 31.366 137.828 31.344 138.048C31.256 139.126 31.234 140.138 31.278 141.458L33.588 141.458L34.226 141.436C34.446 141.436 34.512 141.502 34.512 141.722L34.512 143.46C34.512 143.68 34.446 143.724 34.248 143.636C34.006 143.548 33.764 143.372 33.544 143.262L23.644 143.262C23.248 143.262 23.138 143.13 23.094 142.404L23.05 141.744ZM24.04 128.456C24.018 128.236 24.084 128.17 24.304 128.17L31.432 128.06L32.906 127.884C33.126 127.84 33.192 127.906 33.148 128.126L32.95 129.644C32.906 129.864 32.84 129.93 32.62 129.908L32.598 129.908L32.664 135.474L33.038 136.024C33.148 136.2 33.148 136.31 33.038 136.508C32.796 136.838 32.51 137.168 32.246 137.498C32.092 137.674 32.004 137.674 31.85 137.498C31.762 137.366 31.652 137.234 31.564 137.124L25.008 137.124C24.612 137.124 24.48 136.992 24.392 136.266L24.326 135.65C24.282 135.43 24.348 135.364 24.568 135.364L24.7 135.364L24.7 129.864L24.678 129.864C24.282 129.864 24.15 129.732 24.084 129.006L24.04 128.456ZM26.174 129.864L26.174 135.364L31.212 135.364L31.212 129.82L26.174 129.864ZM14.8 137.168C14.8 133.912 16.076 131.008 18.716 131.008C21.356 131.008 22.632 133.912 22.632 137.168C22.632 140.424 21.356 143.328 18.716 143.328C16.076 143.328 14.8 140.424 14.8 137.168ZM16.252 137.168C16.252 139.302 17.044 141.392 18.694 141.392C20.366 141.392 21.158 139.302 21.158 137.168C21.158 134.99 20.366 132.9 18.694 132.9C17.044 132.9 16.252 134.99 16.252 137.168ZM22.522 147.634C22.522 147.414 22.566 147.326 22.786 147.26L23.886 146.93C24.106 146.864 24.15 146.908 24.15 147.128C24.084 149.24 24.04 152.364 24.04 155.532L25.404 155.488L26.042 155.466C26.042 154.19 26.042 152.958 26.064 151.902C25.866 151.88 25.8 151.814 25.778 151.616C25.712 151.22 25.646 150.824 25.624 150.45C25.602 150.23 25.668 150.164 25.888 150.164L29.606 150.164L30.596 149.988C30.816 149.966 30.882 150.01 30.838 150.23L30.64 151.462L30.64 160.878L32.334 160.944C32.334 157.754 32.268 154.212 32.114 150.472C32.114 150.252 32.18 150.164 32.378 150.098L33.544 149.79C33.742 149.724 33.808 149.768 33.786 149.988C33.654 153.574 33.654 157.446 33.742 161.054L33.962 161.274C34.116 161.428 34.138 161.538 34.028 161.736C33.83 162.132 33.522 162.66 33.28 163.034C33.148 163.21 33.06 163.21 32.906 163.034L32.73 162.836L29.694 162.528C29.474 162.506 29.386 162.44 29.32 162.242C29.21 161.934 29.144 161.472 29.122 161.076C29.1 160.856 29.166 160.79 29.276 160.812L29.276 151.902L27.45 151.902C27.428 154.762 27.538 159.778 27.692 162L28 162.44C28.11 162.638 28.11 162.726 27.956 162.902C27.604 163.276 27.098 163.628 26.614 163.848C26.262 164.002 26.196 163.958 26.174 163.298C26.108 161.802 26.064 159.624 26.042 157.38L24.04 157.336C24.04 159.844 24.084 162.308 24.128 164.2L24.634 164.838C24.766 165.014 24.744 165.102 24.568 165.212C24.128 165.52 23.534 165.806 22.962 166.026C22.61 166.18 22.566 166.136 22.566 165.476C22.654 159.36 22.588 151.352 22.522 147.634ZM18.98 150.582C18.958 150.362 19.024 150.274 19.222 150.208L20.454 149.856C20.652 149.79 20.718 149.834 20.718 150.054L20.718 160.768L20.916 160.988C21.07 161.142 21.092 161.252 21.004 161.45C20.85 161.802 20.564 162.286 20.278 162.704C20.146 162.88 20.058 162.88 19.904 162.726L19.728 162.528L15.328 162.528C14.932 162.528 14.8 162.396 14.69 161.67C14.668 161.45 14.646 161.208 14.624 160.988C14.624 160.768 14.69 160.702 14.91 160.702L19.244 160.702C19.244 157.116 19.156 153.816 18.98 150.582Z" fill="white"/>
<path d="M19.9841 33.0487L19.9841 34.1748C19.9841 34.4327 20.0345 34.5358 20.1774 34.7249L20.6061 35.3009C20.2951 35.6189 20.2278 36.0917 20.4296 36.5645L21.5896 39.4097C21.6736 39.6246 21.7577 39.7364 21.8922 39.8739L29.9533 48.1777C30.7603 49.0029 31.727 49.0029 32.5507 48.1691L34.3832 46.3037C35.1985 45.4699 35.207 44.4814 34.4 43.6562L26.3472 35.3524C26.2043 35.2063 26.1035 35.1289 25.8849 35.0344L23.111 33.8309C22.6655 33.6332 22.2284 33.6848 21.8838 34.0029L20.6313 32.765C20.3539 32.4986 19.9841 32.6275 19.9841 33.0487ZM33.2904 44.6103C33.5006 44.8338 33.509 45.1003 33.2988 45.3066L31.5757 47.0602C31.3655 47.2751 31.1133 47.2665 30.8948 47.0344L30.3484 46.4756L32.7357 44.043L33.2904 44.6103ZM25.7672 36.8739L31.8278 43.1146L29.4406 45.5387L23.38 39.3066L25.7672 36.8739ZM21.9174 36.3925C21.8586 36.2292 21.8586 36.1175 22.0014 35.9713L22.5226 35.4298C22.6571 35.2923 22.7832 35.2923 22.9261 35.3524L24.6829 36.1261L22.6487 38.1891L21.9174 36.3925ZM17 32.7564L17 49.2521C17 49.6648 17.3446 50 17.7481 50C18.1516 50 18.4878 49.6648 18.4878 49.2521L18.4878 32.7564C18.4878 32.3352 18.1516 32 17.7481 32C17.3446 32 17 32.3438 17 32.7564Z" fill="white"/>
</svg>
