<svg width="48" height="715" viewBox="0 0 48 715" fill="none" xmlns="http://www.w3.org/2000/svg">
<path d="M0 0L47.8447 2.6619e-06L47.8447 714.741L-3.97655e-05 714.741L0 0Z" fill="white"/>
<rect width="47.8447" height="319.29" fill="#000FB5"/>
<path d="M25.1168 197.423C25.1388 198.765 22.6968 198.633 22.6088 197.401C22.5208 196.235 22.4768 194.981 22.4548 194.167L16.9548 194.101C15.3048 194.079 13.0388 193.771 13.0388 192.451C13.0388 191.527 15.0628 191.505 16.4268 191.505L22.4548 191.483C22.1028 191.021 20.8928 189.107 20.2108 187.303C19.3968 185.147 18.8688 183.365 18.6488 181.539C18.4728 180.087 21.1568 179.911 21.2888 179.911L26.8328 179.845C27.2068 179.845 27.6908 179.185 28.0868 178.173C28.2628 177.711 28.5708 177.029 29.0768 178.393C29.1428 178.591 29.2308 181.869 28.8128 182.287C28.7248 182.375 28.9228 184.971 29.3628 185.521C29.8908 186.181 29.7808 187.017 29.7368 187.985C29.6708 189.283 28.0428 189.283 27.8008 188.029C27.5808 186.929 27.3608 183.519 27.2948 182.727L22.1908 182.727C21.8828 182.727 21.4208 182.749 21.3988 182.903C21.3548 183.123 21.3768 183.277 21.3988 183.563C21.4208 184.047 21.4648 185.389 22.0148 187.853C22.5868 190.405 22.8728 190.911 23.0488 191.483L31.3208 191.417C31.9808 191.417 32.8828 190.647 33.3008 189.855C33.5868 189.283 34.0488 189.107 34.1808 190.053C34.2688 190.625 33.8068 192.539 33.5208 193.485C33.1248 194.783 32.7728 194.233 31.4088 194.233L24.2588 194.189C24.3028 194.607 24.3248 194.871 24.6988 195.245C25.1608 195.707 25.1168 196.785 25.1168 197.423ZM22.2568 219.445C22.1688 218.279 22.1468 216.981 22.1248 216.167L18.2968 216.101C16.1188 216.057 12.9288 215.947 13.0388 214.231C13.0828 213.505 15.5908 213.505 17.2408 213.505L21.3328 213.505C21.0908 212.933 20.0348 210.799 19.1988 207.719C18.6928 205.849 18.4508 204.529 18.2748 203.759C18.0548 202.857 17.1748 203.121 19.2208 200.283C19.7708 199.513 20.5628 198.875 20.2988 200.063C19.9908 201.471 20.3648 204.815 20.4968 205.431L22.6528 205.365C22.6968 205.167 23.2468 202.109 26.1068 201.823C29.8468 201.449 30.2208 205.475 30.2868 205.651C30.3528 205.849 30.4188 206.179 30.8368 205.959C30.9908 205.871 31.4308 205.519 31.3428 206.179C31.2988 206.575 31.1668 206.927 30.9908 207.125C30.7268 207.433 30.5068 207.323 30.3088 207.301C30.2208 207.587 29.8688 211.041 26.6128 211.151C23.4668 211.261 22.7848 208.071 22.7408 207.829L20.8268 207.785C20.8708 208.357 21.1128 209.567 21.3328 210.667C21.5528 211.789 21.8388 212.779 22.0148 213.505L31.0128 213.461C32.3108 213.461 32.6408 212.691 33.3448 211.987C33.5868 211.745 33.8288 211.151 34.1808 211.987C34.2908 212.251 33.8068 214.561 33.4768 215.507C32.9928 216.915 32.2448 216.233 31.3868 216.233L23.8188 216.189C23.8628 216.585 23.8408 216.827 24.2588 217.421C24.6988 218.059 24.5888 218.719 24.5888 219.335C24.6108 220.787 22.3448 220.677 22.2568 219.445ZM26.6788 208.665C27.8888 208.621 28.6148 207.499 28.6148 206.553C28.6148 205.123 27.6028 204.331 26.7228 204.331C25.9308 204.331 24.7868 204.815 24.7208 206.421C24.6548 207.763 25.3588 208.709 26.6788 208.665ZM25.1168 241.423C25.1388 242.765 22.6968 242.633 22.6088 241.401C22.5208 240.235 22.4768 238.981 22.4548 238.167L16.9548 238.101C15.3048 238.079 13.0388 237.771 13.0388 236.451C13.0388 235.527 15.0628 235.505 16.4268 235.505L22.4548 235.483C22.1028 235.021 20.8928 233.107 20.2108 231.303C19.3968 229.147 18.8688 227.365 18.6488 225.539C18.4728 224.087 21.1568 223.911 21.2888 223.911L26.8328 223.845C27.2068 223.845 27.6908 223.185 28.0868 222.173C28.2628 221.711 28.5708 221.029 29.0768 222.393C29.1428 222.591 29.2308 225.869 28.8128 226.287C28.7248 226.375 28.9228 228.971 29.3628 229.521C29.8908 230.181 29.7808 231.017 29.7368 231.985C29.6708 233.283 28.0428 233.283 27.8008 232.029C27.5808 230.929 27.3608 227.519 27.2948 226.727L22.1908 226.727C21.8828 226.727 21.4208 226.749 21.3988 226.903C21.3548 227.123 21.3768 227.277 21.3988 227.563C21.4208 228.047 21.4648 229.389 22.0148 231.853C22.5868 234.405 22.8728 234.911 23.0488 235.483L31.3208 235.417C31.9808 235.417 32.8828 234.647 33.3008 233.855C33.5868 233.283 34.0488 233.107 34.1808 234.053C34.2688 234.625 33.8068 236.539 33.5208 237.485C33.1248 238.783 32.7728 238.233 31.4088 238.233L24.2588 238.189C24.3028 238.607 24.3248 238.871 24.6988 239.245C25.1608 239.707 25.1168 240.785 25.1168 241.423ZM27.6028 267.656C24.8308 267.788 22.9168 265.566 22.9168 262.288C22.9168 259.582 24.7648 256.788 27.4488 256.876C31.2768 257.008 31.6288 261.034 31.6948 261.276C31.7388 261.452 32.2668 261.87 32.5528 261.584C32.9268 261.21 33.2348 261.386 33.1028 261.936C32.6848 263.718 31.8488 263.212 31.6948 263.102C31.6288 263.322 31.3868 267.48 27.6028 267.656ZM27.5148 265.06C29.4728 264.95 29.8468 263.168 29.8468 262.266C29.8468 260.99 29.0768 259.538 27.4268 259.516C25.9528 259.494 24.9628 260.77 24.9848 262.376C25.0068 264.004 25.9748 265.148 27.5148 265.06ZM17.6148 273.068C16.5808 273.002 16.0308 272.738 16.4708 270.582C16.7788 269.13 16.4708 265.456 16.4488 262.486C16.4268 260.352 16.0748 257.558 16.0308 257.008C15.8768 254.852 14.9088 255.38 16.4268 253.356C17.2848 252.212 18.4948 251.354 18.1868 252.564C17.6588 254.632 17.8128 254.632 17.8128 255.82C17.8128 257.118 17.7908 258.086 17.8348 258.746L19.4188 258.46C19.7048 258.416 20.4528 258.218 20.8928 257.184C21.0688 256.766 21.3768 256.524 21.5968 257.118C21.7288 257.492 21.7508 258.944 21.6408 260.044C21.5308 261.056 20.7828 260.836 20.1228 260.858C19.6608 260.88 18.5168 260.902 17.9008 260.924L17.9888 264.158L20.0128 264.444C20.6728 264.532 21.0688 264.686 21.4868 264.07C21.7508 263.674 22.1688 263.586 22.2128 264.29C22.2568 265.06 22.0368 266.27 21.8608 267.018C21.6188 268.03 20.9808 267.546 20.3868 267.304C19.9468 267.128 18.4508 266.446 18.1428 266.336C18.2088 266.886 18.3408 268.602 18.8028 269.174C19.0448 269.46 19.0228 273.156 17.6148 273.068ZM28.8348 292.186C27.8448 291.944 26.2168 291.526 24.7868 291.13C22.6748 290.536 21.9928 290.096 21.7508 289.942C20.6948 289.26 20.4528 287.808 21.5308 288.05C22.2128 288.204 22.8948 288.336 23.9948 288.512C25.2928 288.71 25.3148 288.666 26.0628 288.776C25.6888 287.896 25.4248 287.28 24.6548 284.838C23.9068 282.484 23.8188 281.538 23.5988 280.482C23.2688 278.942 22.3008 279.47 24.1928 276.94C25.2268 275.554 25.8428 275.774 25.6228 276.412C25.3588 277.16 25.3588 278.744 25.7328 282.088C26.1068 285.366 26.5468 287.544 26.7888 288.842C27.4708 288.952 28.1748 289.04 29.1868 289.106C29.0768 288.138 28.8788 285.696 28.8348 285.124C28.7908 284.552 28.6148 282.154 28.5488 281.274C28.4388 279.8 27.4488 280.306 29.2748 277.974C30.1768 276.808 30.8368 276.918 30.5728 277.644C30.2648 278.502 30.2648 281.824 30.3308 283.672C30.3748 285.036 30.5948 288.974 30.9248 289.304C31.1668 289.546 30.9248 291.372 30.8588 291.878C30.6828 293.088 30.0668 292.494 28.8348 292.186ZM17.7248 295.024C16.6468 294.958 16.1188 294.694 16.5588 292.56C16.8668 291.086 16.6688 287.434 16.5588 284.464C16.4928 282.616 16.1188 279.624 16.0528 278.964C15.8548 276.808 14.8868 277.49 16.4708 275.444C17.3728 274.278 18.5828 273.31 18.2748 274.52C17.7468 276.588 17.9008 278.084 17.9008 280.042C17.9008 281.274 17.9228 282.198 17.9888 282.814L20.9148 282.682C21.1788 282.66 21.7508 281.956 21.9708 281.34C22.1028 280.966 22.4328 280.878 22.6528 281.406C22.8068 281.758 22.6968 283.584 22.5648 284.86C22.4548 285.872 21.7068 285.52 21.0908 285.498C20.0788 285.476 18.6708 285.366 18.1428 285.344C18.2528 287.28 18.5388 290.492 18.9128 291.152C19.1108 291.482 19.1328 295.112 17.7248 295.024Z" fill="#8E7B35"/>
<path d="M27.0968 354.234C26.6788 355.4 24.7648 355.268 24.9848 353.156C25.2048 350.978 25.0068 347.084 24.9188 344.466C24.8308 342.046 24.4788 338.856 24.4348 338.262C24.3248 336.964 23.3568 337.052 24.7428 335.358C25.6668 334.236 26.7668 333.466 26.5028 334.588C26.1948 335.908 26.1728 338.702 26.2828 342.222C26.3268 343.696 26.5688 346.908 26.5908 347.524C27.3388 347.678 27.7788 347.832 28.5268 347.964C29.4068 348.118 30.2428 348.272 30.8148 348.294C30.7928 347.898 30.7268 346.446 30.6388 344.906C30.5288 343.168 30.3528 341.936 30.2868 341.254C30.1548 339.78 29.0548 340.132 31.3868 337.69C31.8048 337.25 32.5968 336.722 32.2448 338.174C31.8708 339.714 32.2668 347.546 32.4428 347.964C32.6628 348.47 32.6848 350.142 32.5528 351.462C32.3988 352.892 31.1008 351.616 30.8148 351.484C30.3308 351.264 29.4288 350.89 28.5488 350.472C27.8668 350.142 27.2068 349.812 26.7888 349.57C26.7888 350.054 26.8548 350.89 27.1628 351.286C27.4268 351.638 27.2288 353.838 27.0968 354.234ZM16.2068 350.736C16.0308 351.99 14.2488 352.232 14.1828 350.362C14.1388 349.086 14.0068 342.244 14.0068 341.518C14.0068 340.858 14.2048 340.286 14.5128 339.868C14.8428 339.428 15.2828 339.318 15.8328 339.318L17.4608 339.318C17.8568 339.318 18.2528 338.834 18.5168 338.152C18.7368 337.602 18.9788 337.36 19.2868 338.372C19.5288 339.164 19.1988 341.628 18.9788 341.892C18.8468 342.046 19.1768 346.644 19.2868 347.37L21.2888 347.568C21.2448 347.106 21.1788 345.676 21.0908 344.466C20.9148 342.31 20.8488 341.958 20.8048 341.54C20.7168 340.77 19.7048 341.056 21.6628 338.284C21.9928 337.822 22.5868 337.448 22.4328 338.592C22.2128 340.154 22.5648 347.37 22.7848 347.656C23.0268 347.964 22.8948 349.064 22.8288 350.054C22.7408 351.33 21.9488 350.516 21.4428 350.296L19.3968 349.416C19.2868 349.614 19.3308 349.548 19.1988 349.768C18.7808 350.428 17.8128 350.362 17.7908 349.13C17.7688 347.59 17.4828 342.728 17.4608 341.98L15.9648 341.98C15.7668 341.98 15.5248 342.046 15.5028 342.222C15.4808 342.376 15.4808 342.64 15.4808 342.904C15.4808 343.498 15.4808 347.15 15.8328 347.766C16.2068 348.426 16.4268 349.13 16.2068 350.736ZM22.4328 376.322C22.3448 375.178 22.3228 373.726 22.3008 373.066L18.3188 372.978C16.1408 372.934 12.9508 372.846 13.0608 371.13C13.1048 370.404 15.6128 370.404 17.2628 370.404L31.0568 370.36C32.3768 370.36 32.6848 369.568 33.3888 368.864C33.6088 368.644 33.8508 368.05 34.2028 368.864C34.3128 369.128 33.8288 371.46 33.4988 372.406C33.0148 373.814 32.2888 373.132 31.4308 373.132L23.9948 373.088C23.9948 373.418 24.0168 373.704 24.4348 374.298C24.8748 374.914 24.7648 375.596 24.7648 376.234C24.7868 377.664 22.5208 377.576 22.4328 376.322ZM20.7388 368.776C19.1548 369.15 18.5168 367.83 19.5948 366.84C20.3208 366.158 20.9148 365.938 21.9048 365.278C22.7408 364.728 23.0048 364.618 23.4228 364.332C23.0708 363.958 21.9048 363.034 20.3648 360.658C19.1768 358.81 18.6488 357.094 18.5168 356.852C18.1428 356.17 18.5828 355.862 18.7588 356.28C18.9348 356.676 20.5188 358.964 22.8508 360.966C24.6768 362.528 26.9208 363.738 27.5588 364.002C27.5368 363.584 27.5368 363.232 27.5148 362.682C27.4928 362.132 27.4708 361.692 27.4268 361.296C27.2508 359.778 26.3708 359.976 28.1088 357.996C28.6808 357.336 29.4288 357.006 29.1648 357.908C29.0548 358.282 28.9228 360.218 28.9888 362.022C29.0328 363.1 29.1648 364.882 29.3188 364.882C29.4508 364.882 29.3628 367.082 29.2528 367.5C28.9668 368.534 28.2628 367.918 27.7348 367.566C27.4048 367.324 26.9868 367.126 25.8208 366.29C24.8088 365.564 24.4788 365.322 24.1928 365.08C23.8188 365.608 22.8068 367.28 22.6088 367.764C22.4548 368.116 21.3548 368.622 20.7388 368.776ZM31.3868 394.362L30.0008 393.768C29.8028 393.988 29.8908 393.9 29.8028 393.988C29.3408 394.45 28.7688 394.032 28.7028 393.02C28.6148 391.656 28.4608 387.19 28.4168 385.804L27.5148 385.804C27.3608 385.804 27.2288 385.804 27.0968 385.914C26.8988 386.068 26.9428 386.31 26.9648 386.574C27.0088 387.168 27.0308 390.864 27.4048 391.546C27.7788 392.228 27.6688 393.108 27.5148 394.098C27.3828 395 25.9088 395.132 25.8428 393.526C25.7988 392.58 25.6668 385.606 25.6888 385.386C25.7328 385.034 25.7988 384.088 26.1508 383.758C26.3708 383.56 26.8328 383.362 27.2508 383.34L28.5268 383.296C29.0108 383.274 29.2308 382.724 29.4068 382.35C29.4948 382.152 29.6488 381.624 29.9788 382.284C30.3308 382.988 29.9788 385.496 29.7588 385.738C29.6488 385.87 29.8688 390.204 30.0008 391.744L31.2988 391.81C31.2988 390.82 31.3208 390.336 31.2768 388.994C31.2328 387.586 31.1448 386.332 31.0788 385.386C31.0128 384.374 30.2868 384.308 31.5848 382.812C32.6188 381.624 32.9268 382.13 32.7288 382.636C32.3548 383.626 32.5308 391.15 32.8168 391.656C33.0148 391.986 33.0148 393.284 32.8168 394.296C32.6188 395.308 31.6948 394.494 31.3868 394.362ZM16.0748 394.714C15.9428 395.682 14.1828 396.122 14.0948 394.164C14.0288 392.888 13.9628 386.772 13.9628 386.09C13.9628 385.386 14.0068 384.726 14.3368 384.286C14.7108 383.78 15.1288 383.648 15.7448 383.604L16.9548 383.538C17.5048 383.516 17.7908 383.252 18.0108 382.636C18.1868 382.13 18.3408 381.888 18.7148 382.636C18.9128 383.054 18.6708 385.738 18.5608 385.804C18.4948 385.848 18.7808 390.468 18.8468 391.37L20.2328 391.546C20.2328 390.512 20.2548 390.116 20.1888 389.214C20.0568 387.058 19.9908 386.508 19.9468 386.068C19.8148 384.748 19.1328 384.77 20.8488 382.878C21.2228 382.46 21.7948 382.24 21.5748 383.23C21.2008 384.836 21.7508 391.612 21.8388 391.832C21.9268 392.03 21.9048 393.372 21.7728 393.966C21.5528 394.912 20.7828 394.274 20.4968 394.142C20.4968 394.142 19.2868 393.57 18.8468 393.394C18.7808 393.614 18.7808 393.724 18.6488 393.878C18.2748 394.34 17.4828 394.208 17.4388 393.02C17.3728 391.502 17.1748 387.19 17.1528 386.222L15.9428 386.222C15.7228 386.222 15.4808 386.266 15.4368 386.442C15.3928 386.596 15.3488 386.926 15.3488 387.234C15.3488 387.982 15.3488 391.238 15.7668 391.832C16.3168 392.602 16.2068 393.812 16.0748 394.714ZM24.3908 398.96C22.9828 399.136 23.0268 398.036 23.1368 396.32C23.2248 394.846 23.1808 391.942 23.0708 389.302C22.9388 386.2 22.5648 383.318 22.4988 382.614C22.3888 381.448 21.2668 381.712 23.3568 379.248C24.2588 378.17 24.7868 378.214 24.5448 379.094C23.9508 381.184 24.2368 386.134 24.3468 388.158C24.5008 391.106 24.6328 394.34 25.0068 394.802C25.5128 395.44 25.3368 398.85 24.3908 398.96ZM23.8628 430.032C22.9608 429.966 22.3668 429.438 22.7628 427.546C23.0708 426.094 22.8508 422.002 22.7628 419.362C22.6968 417.206 22.4108 414.5 22.3668 413.862C22.1908 411.838 21.0248 412.388 22.5868 410.342C23.5768 409.044 24.7208 408.252 24.4348 409.462C23.9508 411.53 24.0828 413.026 24.0388 414.984C24.0168 416.26 24.1048 417.822 24.1048 418.13L25.6668 418.086C25.7108 417.91 26.1508 414.148 29.4948 414.214C32.5528 414.28 32.9488 418.152 32.9928 418.328C33.0368 418.46 33.2348 418.966 33.6088 418.702C33.7848 418.57 34.2248 418.504 33.9608 419.274C33.5868 420.308 33.1028 420.044 32.9708 420.022C32.9488 420.264 32.6628 423.916 29.4728 424.18C26.3708 424.422 25.7108 420.836 25.6448 420.572L24.1928 420.462C24.2148 420.704 24.3028 425.302 24.9188 426.116C25.1608 426.424 25.2708 430.12 23.8628 430.032ZM29.5388 421.672C30.6168 421.54 31.4748 420.55 31.4528 419.252C31.4308 417.624 30.3308 416.788 29.4728 416.81C28.3068 416.832 27.3388 417.954 27.3608 419.296C27.3828 420.946 28.4168 421.804 29.5388 421.672ZM19.5068 426.6C18.3628 426.446 16.9328 425.962 15.7888 425.742C15.6568 426.072 15.6568 426.072 15.5688 426.27C15.3268 426.886 14.1828 426.996 14.2268 425.764C14.3148 423.19 14.2048 422.816 14.1608 422.244C14.0728 422.244 13.0388 422.046 13.0608 421.034C13.0828 420.462 14.2048 420.418 15.0848 420.374C16.6028 420.308 18.0768 420.242 19.5948 420.088C19.9688 420.044 20.3208 419.758 20.4308 419.384C20.6508 418.658 20.8928 419.098 20.9808 419.626C21.0688 420.198 20.9148 421.87 20.7828 421.914C20.6728 421.958 20.7828 424.268 21.0028 424.664C21.1348 424.906 21.1128 425.808 21.0248 426.38C20.8488 427.634 20.0568 426.732 19.5068 426.6ZM19.5068 424.268L19.4188 422.354C18.1428 422.354 16.9548 422.398 15.5908 422.42C15.5908 422.97 15.6348 423.564 15.7668 424.114C16.4488 424.18 19.5068 424.268 19.5068 424.268ZM16.1848 419.67C16.4048 420.264 15.7668 420.308 15.3048 419.604C14.6008 418.526 13.2148 415.358 13.2588 414.17C13.2808 413.576 14.2928 413.026 15.1508 413.004L16.7348 412.96C17.0868 412.96 17.4168 412.564 17.5708 412.036C17.8128 411.222 18.1868 411.882 18.2528 412.146C18.3408 412.476 18.1868 414.83 18.0988 414.874C17.9888 414.94 18.1868 416.128 18.2528 416.502C18.7808 416.568 19.1988 416.568 19.6608 416.568C19.6608 415.996 19.6168 415.446 19.5508 414.874C19.4188 413.642 18.7588 414.082 19.9468 412.388C20.4528 411.662 21.1788 411.376 20.8928 412.256C20.6288 413.092 20.9148 416.568 21.0908 416.568C21.2008 416.568 21.2228 418.152 21.0908 418.592C20.9368 419.142 20.4968 419.032 19.9688 418.878L18.3848 418.438C18.3628 418.592 18.2968 418.68 18.2308 418.79C18.0108 419.164 17.2628 419.252 17.1748 418.306C17.0208 416.634 16.8228 415.82 16.8008 415.116L15.8548 415.116C15.6128 415.116 15.4368 415.138 15.3708 415.248C15.2828 415.402 15.2828 415.754 15.3268 415.974C15.3268 415.974 15.7008 418.35 16.1848 419.67ZM31.4088 448.908L18.2528 448.754C16.0968 448.732 12.9728 448.644 13.0168 446.928C13.0388 446.158 15.5248 446.158 17.1748 446.158L31.0128 446.136C31.8048 446.136 32.6848 445.322 33.3448 444.464C33.5208 444.222 33.7848 443.452 34.1808 444.486C34.2908 444.794 33.7848 447.236 33.4768 448.16C32.9928 449.59 32.6188 448.93 31.4088 448.908ZM29.6488 442.726C29.4948 443.98 28.3288 443.078 27.7568 442.682C27.2068 442.396 24.7868 441.318 22.1908 438.788C19.8148 436.478 18.2748 433.596 17.7028 432.034C17.4388 431.286 17.5708 430.846 17.9228 431.33C18.5168 432.122 20.2548 434.41 22.1468 435.928C25.2488 438.414 27.4048 439.184 27.9108 439.404C27.9108 439.074 27.9328 438.37 27.8888 437.71C27.8228 436.896 27.7568 436.588 27.6688 435.994C27.5148 434.85 26.8768 435.158 28.4828 433.178C29.0768 432.452 29.8908 431.66 29.4948 433.354C29.2528 434.366 29.5168 439.25 29.7368 439.712C30.0228 440.328 29.7368 442.088 29.6488 442.726ZM27.2068 469.72C27.0308 467.982 26.7448 461.118 26.8108 460.062C26.8548 459.226 26.8108 458.698 27.4048 457.994C27.7568 457.576 28.1528 457.532 28.6808 457.532L30.6168 457.51C31.2328 457.51 31.4748 456.96 31.7608 456.234C31.9368 455.794 32.1788 454.914 32.7288 456.146C32.9488 456.608 32.7508 458.764 32.7288 459.468C32.7068 460.766 31.5628 460.282 30.7048 460.282L28.9228 460.26C28.6368 460.26 28.3508 460.26 28.2848 460.524C28.2188 460.81 28.2408 460.788 28.2408 460.964C28.2408 461.162 28.3508 466.09 28.8128 466.816C29.3628 467.674 29.3628 467.608 29.3408 469.698C29.3188 471.326 27.3828 471.502 27.2068 469.72ZM16.3608 470.116C16.2948 471.832 14.2048 471.634 14.1608 470.05C14.1388 468.95 14.0508 461.602 14.0508 460.788C14.0508 459.864 14.2048 459.05 14.7108 458.522C15.0628 458.148 15.5028 457.994 16.0528 457.994L17.9448 457.994C18.6928 457.994 18.8908 457.532 19.1108 456.982C19.2428 456.652 19.4628 455.486 19.9908 456.718C20.1448 457.07 20.0348 458.588 19.9688 459.688C19.8588 461.316 19.0008 460.766 18.2088 460.766L16.3608 460.766C16.0968 460.766 15.8108 460.722 15.7008 460.964C15.5908 461.228 15.5688 461.426 15.5688 461.712C15.5688 462.416 15.5688 466.772 15.9208 467.366C16.4708 468.268 16.4048 469.016 16.3608 470.116ZM23.4008 474.054C22.4988 473.988 22.1468 473.768 22.2788 471.59C22.3668 470.094 22.3008 467.278 22.2128 464.638C22.1468 462.46 21.7948 459.05 21.7288 458.214C21.5748 456.542 20.3208 456.674 22.1248 454.386C23.0488 453.22 23.9288 452.472 23.7088 453.726C23.3348 455.816 23.4228 460.15 23.5108 461.954C23.6428 464.704 24.0168 469.566 24.3248 469.918C24.6768 470.314 24.9848 474.186 23.4008 474.054ZM22.6528 504.071C22.5648 502.927 22.4328 501.453 22.4108 500.661L18.2748 500.617C15.9868 500.595 12.8848 500.529 13.0168 498.813C13.0828 498.021 15.5468 497.999 17.2188 497.999L30.9908 497.933C32.3108 497.933 32.7728 496.899 33.3228 496.195C33.5208 495.931 33.8288 495.161 34.1808 496.459C34.3128 496.899 33.7408 499.033 33.4548 499.979C33.0808 501.277 32.7068 500.705 31.3648 500.705L24.1708 500.683C24.2148 501.101 24.1708 501.409 24.6108 501.959C25.1168 502.575 24.9628 503.191 24.9848 503.983C25.0068 505.325 22.7408 505.281 22.6528 504.071ZM21.8608 495.315C19.7488 496.129 18.9788 494.369 20.2768 493.445C21.4868 492.587 23.5328 491.113 24.3468 490.519C23.8408 490.013 22.8068 489.089 21.4868 487.373C20.5188 486.119 19.7928 484.601 19.3968 483.765C19.2648 483.479 19.2868 482.797 19.7928 483.479C20.1228 483.919 21.7728 485.789 23.2688 486.977C24.9188 488.275 27.5148 489.595 27.8448 489.749C28.5268 490.057 28.9008 489.969 29.5388 488.847C29.7148 488.539 30.0888 488.121 30.2208 489.419C30.3308 490.409 29.8908 491.597 29.4948 492.851C29.1428 493.973 28.4168 493.313 27.8888 492.983C27.4268 492.697 27.0968 492.521 26.5908 492.191C26.0848 491.861 25.6668 491.575 25.2708 491.245C24.9408 491.641 24.1488 492.367 23.6868 493.621C23.4448 494.281 22.7628 494.963 21.8608 495.315ZM27.8888 525.763C27.9108 527.105 25.6668 526.929 25.5788 525.697C25.4908 524.531 25.4688 523.365 25.4468 522.749C24.8748 522.749 21.3988 522.881 21.3988 520.879C21.3988 519.977 24.3248 520.065 24.9188 520.043C24.6548 519.603 24.0388 518.437 23.0708 515.709C22.2788 513.465 21.7068 511.749 21.6408 509.967C21.5968 508.823 23.4888 508.603 23.9948 508.581L25.9968 508.537C26.3928 508.537 26.6788 508.537 27.1188 507.701C27.3168 507.305 27.4708 506.623 27.9108 507.745C27.9988 507.965 27.9328 510.341 27.6468 510.781C27.5588 510.935 27.7348 513.245 27.8228 513.993L29.8248 514.081C29.8028 513.487 29.7808 512.893 29.6928 512.145C29.6048 511.441 29.4728 510.759 29.4068 510.363C29.2528 509.505 28.9008 509.461 30.0008 507.987C30.6168 507.151 31.2328 506.777 31.0788 507.679C30.7708 509.351 31.1668 513.993 31.3208 514.191C31.5848 514.521 31.4968 515.753 31.2988 516.699C31.1448 517.447 30.4848 516.963 30.0008 516.787C29.7588 516.699 29.3188 516.589 28.9448 516.457C28.5488 516.325 28.2848 516.215 27.9108 516.083C27.8008 516.941 26.5908 517.227 26.4808 515.665C26.3488 513.905 26.1728 511.969 26.1508 511.177L24.8968 511.177C24.5448 511.177 24.0828 511.199 24.0168 511.353C23.9288 511.573 23.9948 511.969 24.0168 512.255C24.0608 512.805 24.2368 514.345 24.6988 516.435C25.1388 518.437 25.2268 518.987 25.5568 520.021L31.2988 519.977C31.8928 519.977 32.8608 519.229 33.3888 518.437C33.7628 517.865 34.0488 517.843 34.1808 518.789C34.2688 519.405 33.8728 521.033 33.5868 521.979C33.2128 523.211 33.0148 522.771 31.4528 522.771L27.2068 522.749C27.1848 523.013 27.1848 523.321 27.5588 523.827C27.9768 524.399 27.8888 525.125 27.8888 525.763ZM18.9128 522.419C18.5388 522.309 17.9228 522.177 17.3068 521.979C16.8228 521.825 16.4268 521.693 16.0528 521.539C16.0308 521.781 15.8548 522.133 15.6788 522.331C15.3268 522.727 14.2708 522.859 14.2928 521.517C14.3148 519.801 14.2048 516.127 14.1388 514.939C13.9188 514.851 13.1708 514.675 13.0608 513.773C12.9948 513.289 13.5228 512.871 14.8208 512.761L18.3848 512.431C19.0668 512.365 19.3308 512.431 19.7928 511.353C19.9248 511.023 20.0568 510.539 20.4748 511.155C20.8488 511.705 20.6508 514.521 20.2988 514.697C20.2548 515.401 20.4088 519.713 20.6288 520.043C20.7608 520.241 20.7168 521.275 20.6288 522.067C20.4968 523.277 19.4408 522.551 18.9128 522.419ZM19.0668 519.757L18.8908 515.005L15.6348 515.071C15.6348 515.753 15.6348 516.523 15.7008 517.469C15.7668 518.327 15.8108 519.141 15.9208 519.647C16.4488 519.691 16.7568 519.713 17.3068 519.735C18.0108 519.757 18.6488 519.801 19.0668 519.757Z" fill="black"/>
</svg>
