<svg width="128" height="952" viewBox="0 0 128 952" fill="none" xmlns="http://www.w3.org/2000/svg">
<rect x="127.911" width="951.036" height="127.911" transform="rotate(90 127.911 0)" fill="#F0F0F0"/>
<rect x="0.0209961" y="820.762" width="127.89" height="28.3163" fill="#7CD3AF"/>
<path d="M79.9741 86.4396L79.9761 74.4716L82.8581 74.472C85.8935 78.3665 89.0609 81.7111 91.7009 81.7115C93.0869 81.7117 93.8351 80.5459 93.8354 79.0499C93.8356 77.8179 93.6158 76.3878 92.4281 74.5616L95.8821 74.5622C97.0478 76.1904 97.4655 78.2585 97.4652 80.1725C97.4646 83.3625 96.0122 86.2442 92.6242 86.2437C89.7642 86.2432 86.1566 83.6466 83.6712 80.1702L83.5172 80.1701L83.5161 86.4401L79.9741 86.4396ZM78.3426 107.652L78.3432 103.824L99.4632 103.828L99.4626 107.656L78.3426 107.652ZM86.6166 95.6856C86.6172 92.2536 88.5096 89.68 92.1176 89.6806C95.7256 89.6812 97.5952 92.2555 97.5946 95.6875C97.594 99.1195 95.7236 101.693 92.1156 101.693C88.5076 101.692 86.616 99.1176 86.6166 95.6856ZM89.6746 95.6862C89.6743 97.2042 90.5542 97.9963 92.1162 97.9966C93.6562 97.9968 94.5583 97.205 94.5586 95.687C94.5588 94.191 93.657 93.3988 92.117 93.3986C90.555 93.3983 89.6748 94.1902 89.6746 95.6862ZM80.7437 88.7327L84.3738 88.2933C84.3728 94.2113 84.5921 98.7433 85.3614 102.725L81.8853 103.099C81.116 99.1827 80.7428 94.5187 80.7437 88.7327ZM78.3385 132.243L99.4585 132.247L99.4579 135.767L78.3379 135.763L78.3385 132.243ZM93.1018 124.194L93.1013 127.274L98.6673 127.275L98.6667 130.707L79.1087 130.703L79.1093 127.271L89.3393 127.273L89.3398 124.193L93.1018 124.194ZM97.5026 119.574L97.414 123.248C94.95 123.204 92.772 122.984 90.8141 122.587L84.5214 126.568L81.8818 124.038L86.3263 121.288C84.5664 120.584 83.0046 119.704 81.5747 118.626L84.2372 115.656C87.4048 118.187 91.1226 119.419 97.5026 119.574ZM78.3348 154.243L99.4548 154.247L99.4542 157.767L78.3342 157.763L78.3348 154.243ZM93.6919 147.36L93.6916 149.274L98.6636 149.275L98.663 152.707L79.105 152.703L79.1056 149.271L84.4516 149.272L84.4521 146.544L87.8841 146.545L87.8836 149.273L90.2596 149.273L90.2601 146.611C86.4322 145.466 83.3746 143.398 81.0871 140.56L84.0135 137.81C86.5209 141.374 89.8646 143.135 92.8786 143.554L92.9886 143.554L92.9893 138.89L96.5093 138.89L96.5079 147.624C95.5399 147.58 94.5939 147.492 93.6919 147.36ZM99.4507 178.425L92.5647 178.423L92.5643 181.239L89.0223 181.239L89.0227 178.423L83.1267 178.422L83.1274 174.682L99.4514 174.685L99.4507 178.425ZM90.2338 172.197L90.3663 168.787C91.7963 169.051 93.8203 169.206 95.0743 169.206L95.0756 161.374L98.1996 161.374L98.1977 172.594C95.5357 172.594 92.4997 172.483 90.2338 172.197ZM89.4635 173.605L86.4495 173.846C85.9221 170.194 85.6369 165.662 85.6377 160.382L88.8058 160.009C88.8056 161.417 88.8054 162.759 88.8491 164.035L93.0291 164.036L93.0286 167.534L88.9366 167.533C89.0462 169.777 89.2218 171.779 89.4635 173.605ZM84.6032 163.44L84.6026 167.334L81.6986 167.334L81.6967 178.708L78.3967 178.707L78.3992 163.439L84.6032 163.44ZM90.8221 206.182L94.5415 197.757C92.8918 195.71 91.6823 193.092 90.6708 190.21L93.5751 188.34C94.9603 193.071 96.9617 196.283 99.5575 197.427L98.7649 201.057C98.105 200.771 97.511 200.419 96.9391 200.023L93.5718 207.832L90.8221 206.182ZM92.6711 200.088L89.9431 200.088L89.9417 208.58L86.8397 208.579L86.8432 187.679L89.9452 187.68L89.9438 196.194L92.6718 196.194L92.6711 200.088ZM82.4628 201.693L82.4648 190.187L85.4788 190.187L85.4762 205.543L78.2162 205.542L78.2168 201.692L82.4628 201.693ZM86.1997 220.129C86.2006 215.047 88.5331 211.99 92.0751 211.99C95.5731 211.991 97.9266 215.049 97.9257 220.131C97.9249 225.213 95.5704 228.271 92.0724 228.27C88.5304 228.27 86.1989 225.211 86.1997 220.129ZM89.7197 220.13C89.7195 221.78 90.0933 222.902 90.7532 223.54C91.1051 223.87 91.5231 224.046 92.0731 224.046C92.5791 224.046 93.0191 223.87 93.3492 223.54C94.0093 222.881 94.3835 221.781 94.3837 220.131C94.384 218.481 94.0102 217.359 93.3503 216.72C93.0204 216.39 92.5804 216.214 92.0744 216.214C91.5244 216.214 91.1064 216.39 90.7543 216.72C90.0942 217.358 89.72 218.48 89.7197 220.13ZM80.148 230.578L80.1515 209.678L83.7815 209.679L83.778 230.579L80.148 230.578ZM86.2397 244.087L83.6217 244.087L83.6203 252.579L80.1443 252.578L80.1478 231.678L83.6238 231.679L83.6224 240.193L86.2404 240.193L86.2413 234.693L93.4573 234.694L93.4555 245.672L94.7975 245.673L94.7993 234.475L97.8573 234.475L97.8548 249.501L90.6608 249.5L90.6627 238.5L89.2767 238.5L89.2747 250.38L86.2387 250.379L86.2397 244.087Z" fill="black"/>
<path d="M99.2981 546.661L94.7221 546.66L94.7217 549.3L93.4417 549.3L93.4421 546.66L90.3381 546.66L90.3384 545.252L99.2984 545.253L99.2981 546.661ZM97.8601 534.997L97.8588 542.533C93.9229 542.02 91.3155 538.628 90.2281 534.948L91.4922 534.18C92.4676 537.828 94.5632 540.036 96.5311 540.757L96.5791 540.757L96.5801 534.997L97.8601 534.997ZM90.083 541.747C90.0824 544.947 88.9141 546.819 86.9781 546.819C85.0261 546.819 83.8584 544.946 83.859 541.746C83.8595 538.546 85.0278 536.675 86.9798 536.675C88.9158 536.675 90.0835 538.547 90.083 541.747ZM85.8584 544.867C86.1464 545.187 86.5144 545.347 86.9784 545.347C87.4264 545.347 87.8104 545.187 88.0824 544.867C88.5145 544.291 88.8027 543.251 88.803 541.747C88.8032 540.243 88.5154 539.203 88.0835 538.627C87.8115 538.307 87.4276 538.147 86.9796 538.147C86.5156 538.147 86.1475 538.307 85.8595 538.627C85.4114 539.187 85.1392 540.243 85.139 541.747C85.1387 543.251 85.4105 544.291 85.8584 544.867ZM87.7753 563.459L87.7756 562.019L99.2956 562.021L99.2953 563.461L87.7753 563.459ZM90.7361 558.5L90.7374 551.22L97.6174 551.221L97.6161 558.501L90.7361 558.5ZM96.4171 552.629L91.9211 552.628L91.9204 557.092L96.4164 557.093L96.4171 552.629ZM84.1752 564.098L84.1769 553.858L89.2969 553.859L89.2967 555.299L85.4887 555.299L85.4872 564.099L84.1752 564.098ZM93.8369 578.02L99.2929 578.021L99.2926 579.461L83.9326 579.458L83.9329 578.018L92.5569 578.02L92.5576 573.62L93.8376 573.62L93.8369 578.02ZM97.5181 570.453L97.4699 571.941C95.7739 571.828 94.206 571.54 92.798 571.076L88.1892 575.907L87.1334 575.027L91.4861 570.58C89.5663 569.763 87.9665 568.643 86.6707 567.315L87.6949 566.179C89.8705 568.531 93.2462 570.228 97.5181 570.453Z" fill="black"/>
</svg>
