<svg width="89" height="776" viewBox="0 0 89 776" fill="none" xmlns="http://www.w3.org/2000/svg">
<path d="M0.675781 0L88.6758 2.2137e-07L88.6758 776L0.675783 776L0.675781 0Z" fill="#E8540C"/>
<path d="M53.928 84.6879C53.84 84.9519 53.84 84.9519 53.576 84.9519L51.926 84.9519L37.89 84.9299L37.098 84.9079C35.404 84.7979 34.37 84.2259 34.282 83.6099L34.414 83.3899L37.89 83.3459L43.236 83.3019C42.136 80.8599 40.86 77.2299 39.958 72.9619C39.826 72.3459 39.848 72.1039 39.848 71.9499C39.848 71.7739 39.87 71.6419 40.046 71.5319C40.442 71.2899 41.19 70.8719 41.41 70.8719L49.022 70.7619C49.198 70.7619 49.176 70.7619 49.264 70.5859L50.144 68.9579C50.386 68.8919 50.738 69.3759 50.738 69.4859L50.298 72.2359L50.364 75.9759C50.364 76.5919 50.98 77.3399 50.98 77.5599C50.958 78.1319 50.892 78.8139 50.782 79.2099C50.694 79.5619 50.386 79.7599 50.012 79.7159C49.55 79.6719 49.308 79.4079 49.308 78.8579L49.264 72.4999L41.608 72.4999C42.136 76.7459 43.104 80.5299 44.006 83.3019L51.926 83.2579L52.674 83.2579C52.894 83.2579 52.894 83.2579 52.982 83.1039L54.104 81.2119C54.236 81.2119 54.698 81.5859 54.698 81.7399C54.698 82.0699 54.148 83.9619 53.928 84.6879ZM45.942 107.212C45.942 108.818 45.634 109.082 44.952 109.082C44.402 109.082 44.204 108.796 44.204 108.246L44.204 104.748L37.89 104.748L37.098 104.726C35.404 104.616 34.37 104.044 34.282 103.428L34.414 103.208L37.89 103.164L51.926 103.076L52.674 103.076C52.894 103.076 52.894 103.076 52.982 102.922L54.104 101.03C54.236 101.03 54.698 101.404 54.698 101.558C54.698 101.888 54.148 103.78 53.928 104.506C53.84 104.77 53.84 104.77 53.576 104.77L45.216 104.77L45.216 105.694C45.216 106.244 45.942 107.058 45.942 107.212ZM42.928 99.8205C42.378 100.502 41.388 101.008 40.684 101.052C40.112 101.096 39.848 100.788 39.848 100.392L39.848 100.172L44.666 96.0805C42.51 94.2105 40.574 92.0105 38.858 89.4805L39.32 88.8865C42.07 92.3625 45.612 95.4645 49.902 97.6425L49.682 93.5945C49.682 92.9785 49.066 92.3625 49.066 92.0985C49.066 91.9225 50.386 90.0085 50.496 90.0085C50.672 90.0085 50.848 90.1185 50.848 90.2505C50.76 90.8665 50.694 92.6925 50.738 93.5945L50.958 99.2925C51.002 100.15 51.002 100.194 50.166 99.7765C48.516 98.9405 46.976 97.9285 45.524 96.8065L43.654 98.5225C43.06 99.0725 43.39 99.2485 42.928 99.8205ZM53.928 127.317C53.84 127.581 53.84 127.581 53.576 127.581L51.926 127.581L37.89 127.559L37.098 127.537C35.404 127.427 34.37 126.855 34.282 126.239L34.414 126.019L37.89 125.975L51.926 125.887L52.674 125.887C52.894 125.887 52.894 125.887 52.982 125.733L54.104 123.841C54.236 123.841 54.698 124.215 54.698 124.369C54.698 124.699 54.148 126.591 53.928 127.317ZM50.958 116.581C50.958 119.551 49.066 121.619 46.272 121.619C43.456 121.619 41.608 119.551 41.608 116.581C41.608 113.655 43.456 111.521 46.272 111.521C49.066 111.521 50.958 113.655 50.958 116.581ZM42.928 116.581C42.928 118.473 44.248 119.969 46.25 119.969C48.362 119.969 49.638 118.495 49.638 116.581C49.638 114.689 48.34 113.171 46.25 113.171C44.226 113.171 42.928 114.667 42.928 116.581ZM53.928 148.61C53.84 148.874 53.84 148.874 53.576 148.874L51.926 148.874L37.89 148.852L37.098 148.83C35.404 148.72 34.37 148.148 34.282 147.532L34.414 147.312L37.89 147.268L46.998 147.202L46.866 144.584C46.844 144.188 46.36 143.22 46.36 142.956C46.36 142.758 47.482 140.91 47.68 140.888C47.834 140.888 48.01 140.976 48.01 141.13C47.944 141.636 47.878 143.088 47.9 143.946L48.054 147.202L51.926 147.18L52.674 147.18C52.894 147.18 52.894 147.18 52.982 147.026L54.104 145.134C54.236 145.134 54.698 145.508 54.698 145.662C54.698 145.992 54.148 147.884 53.928 148.61ZM41.52 136.114C41.96 139.326 42.752 142.34 43.654 144.672L43.06 145.046C41.828 142.78 40.684 139.788 39.87 136.51C39.716 135.894 39.76 135.674 39.76 135.52C39.76 135.344 39.782 135.234 39.958 135.124C40.332 134.904 41.146 134.464 41.366 134.464L49.11 134.354L49.594 134.354C49.77 134.354 49.77 134.354 49.88 134.112L50.694 132.374C50.98 132.286 51.31 132.748 51.31 132.858L50.936 135.542C50.87 136.004 50.804 136.114 50.496 136.114L41.52 136.114ZM53.928 170.012C53.84 170.276 53.84 170.276 53.576 170.276L51.926 170.276L37.89 170.254L37.098 170.232C35.404 170.122 34.37 169.55 34.282 168.934L34.414 168.714L37.89 168.67L42.268 168.648C41.3 166.03 40.354 162.664 39.716 158.77L39.54 157.714C39.452 157.142 38.924 156.526 38.924 156.196C38.924 155.734 40.42 153.182 40.684 153.028C40.816 153.006 41.058 153.16 41.058 153.27C40.86 154.37 40.816 156.46 41.036 158.352C41.454 162.07 42.246 165.7 42.95 168.648L51.926 168.582L52.674 168.582C52.894 168.582 52.894 168.582 52.982 168.428L54.104 166.536C54.236 166.536 54.698 166.91 54.698 167.064C54.698 167.394 54.148 169.286 53.928 170.012ZM43.83 160.134C43.83 157.45 45.414 155.404 47.944 155.404C50.452 155.404 52.124 157.45 52.124 160.134C52.124 162.84 50.452 164.842 47.944 164.842C45.414 164.842 43.83 162.84 43.83 160.134ZM50.804 160.134C50.804 158.44 49.748 156.966 47.922 156.966C46.14 156.966 45.062 158.44 45.062 160.134C45.062 161.806 46.14 163.28 47.922 163.28C49.77 163.28 50.804 161.828 50.804 160.134ZM52.762 196.46C52.916 196.46 52.916 196.46 53.004 196.328L54.192 194.436C54.28 194.436 54.698 194.81 54.698 194.964C54.698 195.294 54.104 197.34 53.95 197.78C53.84 198.11 53.84 198.11 53.422 198.11L51.596 198.088L46.228 198.066L45.436 198.022C44.622 197.978 43.522 197.45 43.522 196.856L43.654 196.636L46.228 196.526L51.596 196.46L52.762 196.46ZM48.164 191.994C45.744 191.994 44.05 189.97 44.05 187.286C44.05 184.668 45.744 182.556 48.164 182.556C50.628 182.556 52.322 184.668 52.322 187.286C52.322 189.97 50.628 191.994 48.164 191.994ZM48.164 184.184C46.404 184.184 45.348 185.526 45.348 187.286C45.348 189.09 46.404 190.366 48.164 190.366C49.902 190.366 51.002 189.09 51.002 187.286C51.002 185.526 49.902 184.184 48.164 184.184ZM36.196 198.55C36.108 198.902 35.822 199.1 35.47 199.078C35.008 199.056 34.788 198.77 34.788 198.22L34.81 190.014C34.81 188.804 35.536 188.694 36.702 188.672L38.286 188.65L38.88 187.11C39.166 187.11 39.452 187.396 39.452 187.506L39.144 190.234L39.276 196.218L41.542 196.262L41.344 190.938C41.344 190.322 40.838 189.772 40.838 189.486C40.838 189.266 42.07 187.22 42.18 187.22C42.312 187.22 42.51 187.33 42.51 187.462C42.444 188.034 42.334 190.014 42.378 190.916L42.598 197.516C42.62 198.154 42.62 198.154 42.048 198.022L39.276 197.318C39.21 197.692 39.056 198.066 38.726 198.066C38.396 198.066 38.22 197.868 38.22 197.538L38.176 190.256L35.866 190.256L35.866 195.404C35.866 196.042 36.372 196.658 36.372 196.79C36.372 197.428 36.284 198.176 36.196 198.55ZM47.922 220.436C47.922 221.646 47.702 222.02 47.042 222.02C46.514 222.02 46.338 221.69 46.338 221.184L46.338 217.884L44.622 217.884L43.83 217.84C43.016 217.796 41.916 217.268 41.916 216.674L42.048 216.454L44.622 216.344L51.596 216.278L52.762 216.278C52.916 216.278 52.916 216.278 53.004 216.146L54.192 214.254C54.28 214.254 54.698 214.628 54.698 214.782C54.698 215.112 54.104 217.158 53.95 217.598C53.84 217.928 53.84 217.928 53.422 217.928L51.596 217.906L47.24 217.884L47.24 218.918C47.24 219.292 47.922 220.216 47.922 220.436ZM43.412 212.978L47.768 208.93C45.832 207.456 43.984 205.52 42.224 202.814L42.598 202.308C44.974 205.234 47.944 207.544 50.628 208.71C50.98 208.776 51.574 207.852 52.036 207.148C52.19 207.104 52.52 207.588 52.498 207.83C52.454 208.27 51.662 210.448 51.332 210.756C51.134 210.932 50.87 210.866 50.188 210.492C49.682 210.206 49.176 209.92 48.692 209.568L47.02 211.24C46.448 211.812 46.932 212.142 46.162 212.846C45.48 213.462 44.578 213.77 44.028 213.748C43.61 213.726 43.39 213.33 43.412 212.978ZM42.004 213.374C42.004 215.838 40.53 217.774 38.22 217.774C35.954 217.774 34.48 215.838 34.48 213.374C34.48 210.954 35.954 208.952 38.22 208.952C40.53 208.952 42.004 210.954 42.004 213.374ZM35.69 213.374C35.69 215.024 36.57 216.278 38.22 216.278C39.826 216.278 40.794 215.024 40.794 213.374C40.794 211.746 39.826 210.448 38.22 210.448C36.57 210.448 35.69 211.746 35.69 213.374ZM45.876 241.641C45.876 243.247 45.568 243.511 44.886 243.511C44.336 243.511 44.138 243.225 44.138 242.675L44.138 239.727L37.89 239.727L37.098 239.705C35.404 239.595 34.37 239.023 34.282 238.407L34.414 238.187L37.89 238.143L42.224 238.121C41.19 235.327 40.31 232.071 39.738 228.353L39.672 227.935C39.562 227.187 39.122 226.813 39.122 226.395C39.122 225.977 40.464 223.601 40.794 223.491C40.926 223.469 41.146 223.623 41.146 223.733C41.014 224.877 40.948 226.791 41.124 228.177L41.19 228.749L45.238 228.683C45.458 228.683 45.524 228.705 45.612 228.507L46.294 227.055C46.448 227.011 46.8 227.385 46.8 227.583L46.514 229.937C46.47 230.245 46.36 230.245 46.052 230.245L41.366 230.157C41.762 232.995 42.224 235.371 42.862 238.121L51.926 238.055L52.674 238.055C52.894 238.055 52.894 238.055 52.982 237.901L54.104 236.009C54.236 236.009 54.698 236.383 54.698 236.537C54.698 236.867 54.148 238.759 53.928 239.485C53.84 239.749 53.84 239.749 53.576 239.749L45.15 239.749L45.15 240.123C45.15 240.673 45.876 241.487 45.876 241.641ZM49.682 226.967C49.682 226.659 50.892 224.701 51.112 224.701C51.266 224.701 51.442 224.811 51.442 224.943C51.332 225.933 51.244 227.187 51.266 228.331L51.266 228.815L51.574 234.337C51.64 235.327 51.64 235.371 50.804 235.217C48.12 234.755 45.414 234.161 42.95 233.193L42.95 232.445C45.304 232.929 47.988 233.171 50.43 233.281L50.188 228.397C50.166 227.781 49.682 227.275 49.682 226.967ZM52.762 267.098C52.916 267.098 52.916 267.098 53.004 266.966L54.192 265.074C54.28 265.074 54.698 265.448 54.698 265.602C54.698 265.932 54.104 267.978 53.95 268.418C53.84 268.748 53.84 268.748 53.422 268.748L51.596 268.726L46.118 268.704L45.326 268.66C44.512 268.616 43.412 268.088 43.412 267.494L43.544 267.274L46.118 267.164L51.596 267.098L52.762 267.098ZM43.918 263.226L48.098 258.98C46.228 257.418 44.512 255.306 43.06 252.864L43.434 252.336C45.612 255.13 48.384 257.484 50.936 258.76C51.288 258.848 51.816 257.99 52.3 257.308C52.454 257.264 52.762 257.748 52.74 257.99C52.696 258.43 52.014 260.652 51.618 260.894C51.398 261.026 51.156 260.982 50.496 260.63C49.99 260.366 49.484 260.036 49 259.684L47.328 261.532C46.756 262.082 47.35 262.302 46.558 263.006C45.854 263.644 44.974 264.04 44.424 263.974C44.006 263.93 43.808 263.556 43.918 263.226ZM36.174 269.166C36.064 269.518 35.822 269.716 35.47 269.694C35.008 269.672 34.788 269.43 34.788 268.88L34.81 260.806C34.81 259.596 35.536 259.486 36.702 259.464L38.308 259.442L38.902 257.902C39.188 257.902 39.474 258.188 39.474 258.298L39.188 260.85L39.32 266.944L41.63 266.944L41.454 261.62C41.454 261.004 40.992 260.476 40.992 260.19C40.992 259.97 42.158 257.968 42.268 257.968C42.4 257.968 42.598 258.078 42.598 258.21C42.532 258.782 42.422 260.696 42.466 261.598L42.664 268.198C42.686 268.836 42.686 268.836 42.114 268.704L39.298 268.066C39.21 268.396 39.012 268.748 38.704 268.748C38.396 268.748 38.286 268.616 38.286 268.286L38.242 261.048L35.866 261.048L35.866 266.02C35.866 266.658 36.372 267.274 36.372 267.538C36.372 268.154 36.284 268.792 36.174 269.166ZM46.668 283.947C46.602 284.563 46.536 285.641 46.558 286.499L46.646 288.259L51.596 288.237L52.762 288.237C52.916 288.237 52.916 288.237 53.004 288.105L54.192 286.213C54.28 286.213 54.698 286.587 54.698 286.741C54.698 287.071 54.104 289.117 53.95 289.557C53.84 289.887 53.84 289.887 53.422 289.887L51.596 289.865L41.168 289.843L40.332 289.799C39.518 289.755 38.418 289.227 38.418 288.633L38.55 288.413L41.168 288.303L45.7 288.281L45.612 286.697C45.59 286.301 45.106 285.773 45.106 285.509C45.106 285.311 46.162 283.727 46.36 283.705C46.514 283.705 46.668 283.793 46.668 283.947ZM51.178 279.569C51.266 279.217 52.344 277.963 52.74 277.721C52.85 277.721 53.004 277.853 52.982 277.985C52.674 279.173 52.432 280.691 52.344 282.099C52.3 282.803 52.102 283.045 51.75 283.045C51.354 283.045 51.156 282.869 51.09 282.275C51.002 281.571 51.046 280.405 51.178 279.569ZM41.278 284.893L44.908 280.933C43.368 279.173 41.982 277.105 40.816 274.707L41.278 274.157C43.324 277.655 46.074 280.537 48.868 282.605L48.626 279.063C48.626 278.447 48.01 277.831 48.01 277.567C48.01 277.391 49.33 275.477 49.44 275.477C49.616 275.477 49.792 275.587 49.792 275.719C49.704 276.335 49.638 278.161 49.682 279.063L49.902 284.211C49.946 285.069 49.836 285.047 49.242 284.673C47.944 283.859 46.734 282.847 45.568 281.659L44.248 283.177C43.698 283.815 44.116 283.837 43.764 284.387C43.39 284.981 42.642 285.509 42.026 285.575C41.542 285.619 41.278 285.333 41.278 285.047L41.278 284.893ZM36.592 289.007C36.592 290.481 36.438 291.141 35.668 291.141C35.162 291.141 34.92 290.921 34.92 290.371L34.92 281.835C34.92 280.559 35.734 280.427 36.79 280.405L38.902 280.339L39.254 280.339C39.43 280.339 39.452 280.339 39.54 280.097L40.112 278.403C40.398 278.403 40.684 278.755 40.684 278.887L40.618 281.527C40.618 281.945 40.508 282.055 40.178 282.055L38.924 282.055L35.976 282.077L35.976 287.379C35.976 287.841 36.592 288.963 36.592 289.007Z" fill="black"/>
<path d="M50.736 603.762C50.848 603.762 50.848 603.762 50.912 603.666L51.776 602.29C51.84 602.29 52.144 602.562 52.144 602.674C52.144 602.914 51.712 604.402 51.6 604.722C51.52 604.962 51.52 604.962 51.216 604.962L49.888 604.946L42.112 604.93L41.52 604.898C40.928 604.866 40.128 604.482 40.128 604.05L40.224 603.89L42.112 603.81L43.424 603.794L43.344 602.258C43.328 601.97 43.008 601.618 43.008 601.426C43.008 601.282 43.712 600.082 43.856 600.066C43.968 600.066 44.048 600.13 44.048 600.242C44 600.69 43.968 601.474 43.984 602.098L44.08 603.794L49.888 603.762L50.736 603.762ZM42 597.346L44.592 597.282L44.4 596.066C44.32 595.522 43.952 595.202 43.952 594.93C43.952 594.658 44.896 593.058 45.104 592.978C45.184 592.962 45.344 593.058 45.344 593.138C45.28 593.89 45.264 594.946 45.36 596.002C45.456 597.106 45.6 598.162 45.76 599.17C46.832 599.458 48.032 599.698 49.264 599.826L49.088 596.818C49.056 596.37 48.736 596.05 48.736 595.826C48.736 595.57 49.552 594.194 49.712 594.194C49.824 594.194 49.952 594.274 49.952 594.37C49.872 595.138 49.84 595.986 49.872 597.122L50.096 600.626C50.144 601.314 50.112 601.346 49.552 601.202C48.336 600.882 47.008 600.434 45.888 599.874C46.032 600.658 46.208 601.394 46.384 602.034L45.984 602.29C45.52 601.218 45.136 599.97 44.816 598.434L42.96 598.418C42.368 598.418 41.904 597.922 41.904 597.506L42 597.346ZM38.896 605.058C38.832 605.41 38.624 605.602 38.304 605.586C37.936 605.57 37.76 605.41 37.76 605.01L37.76 598.594C37.76 597.698 38.352 597.65 39.12 597.634L40.448 597.602L40.608 597.602C40.736 597.602 40.752 597.602 40.816 597.426L41.328 596.114C41.536 596.114 41.776 596.37 41.776 596.466L41.616 598.53C41.584 598.802 41.552 598.818 41.328 598.818L38.528 598.818L38.528 602.77C38.528 603.314 38.976 603.826 38.976 603.954C38.976 604.402 38.944 604.77 38.896 605.058ZM45.248 608.864L45.648 608.528C46.704 611.808 48.288 614.656 50.112 616.832L49.92 612.672C49.904 612.224 49.552 611.856 49.552 611.632C49.552 611.408 50.432 609.984 50.592 609.984C50.704 609.984 50.832 610.064 50.832 610.16C50.752 610.88 50.688 611.792 50.704 612.624L50.704 612.976L50.912 618.512C50.928 619.056 50.768 619.2 50.384 618.816C49.504 617.952 48.736 616.992 48.08 615.936L47.616 617.344C47.44 618.08 47.792 618.192 47.536 618.976C47.28 619.776 46.88 620.368 46.432 620.56C46.144 620.688 45.84 620.56 45.728 620.256L47.568 615.088C46.528 613.232 45.76 611.136 45.248 608.864ZM44.944 621.696C44.848 622.064 44.656 622.176 44.304 622.128C43.984 622.08 43.808 621.888 43.84 621.552C43.888 620.976 43.92 619.744 43.888 619.024L43.824 615.824L40.688 615.792C40.048 615.792 39.648 615.296 39.648 614.88L39.744 614.72L43.792 614.656L43.712 611.056C43.68 610.368 43.376 609.76 43.344 609.552C43.344 609.264 44.352 607.424 44.48 607.424C44.576 607.424 44.736 607.504 44.736 607.584C44.656 608.032 44.432 609.616 44.48 611.44L44.672 618.768C44.688 619.344 45.2 619.984 45.2 620.208C45.168 620.688 45.04 621.376 44.944 621.696ZM38.944 618.176C38.944 619.328 38.832 619.808 38.272 619.808C37.904 619.808 37.728 619.648 37.728 619.248L37.728 612.528C37.728 611.632 38.32 611.584 39.088 611.568L40.592 611.536L40.752 611.536C40.88 611.536 40.896 611.536 40.96 611.36L41.472 610.048C41.68 610.048 41.92 610.304 41.92 610.4L41.76 612.464C41.728 612.736 41.696 612.752 41.472 612.752L38.496 612.752L38.496 617.024C38.496 617.36 38.944 618.144 38.944 618.176ZM49.952 629.213C50.016 628.957 50.896 627.917 51.184 627.741C51.264 627.741 51.392 627.869 51.376 627.965C51.168 628.797 50.928 630.397 50.896 631.453C50.88 631.965 50.72 632.221 50.4 632.221C50.08 632.221 49.936 632.029 49.888 631.597C49.824 631.085 49.856 629.821 49.952 629.213ZM47.696 626.573C47.696 626.381 48.576 624.669 48.72 624.669C48.848 624.669 48.944 624.733 48.944 624.829C48.864 625.533 48.784 626.461 48.784 627.309L48.912 632.717C49.04 633.373 49.376 633.741 49.392 633.933C49.408 634.253 49.312 634.733 49.232 635.053C49.12 635.469 48.928 635.597 48.624 635.549C48.32 635.501 48.208 635.325 48.24 634.861C48.272 634.317 48.288 633.597 48.272 632.909L48.128 627.741C48.112 627.421 47.696 626.813 47.696 626.573ZM40.32 637.133C40.224 637.437 40.032 637.533 39.68 637.469C39.36 637.405 39.2 637.245 39.232 636.893C39.28 636.317 39.312 635.117 39.296 634.397L39.136 626.509C39.12 625.821 38.784 625.277 38.768 625.021C38.768 624.733 39.808 622.909 39.936 622.909C40.032 622.909 40.192 622.989 40.192 623.069C40.096 623.533 39.856 625.085 39.904 626.925L39.968 629.853L42.16 629.789C42.336 628.333 43.312 627.101 44.832 627.101C46.56 627.101 47.536 628.637 47.536 630.301C47.536 631.997 46.56 633.469 44.832 633.469C43.392 633.469 42.416 632.365 42.176 630.957L40.304 630.925C40.176 630.925 40.08 630.909 40 630.861L40.08 634.157C40.096 634.765 40.544 635.229 40.576 635.549C40.544 636.077 40.432 636.797 40.32 637.133ZM44.832 628.189C43.584 628.189 42.992 629.229 42.992 630.301C42.992 631.389 43.584 632.381 44.832 632.381C46.048 632.381 46.736 631.389 46.736 630.301C46.736 629.229 46.048 628.189 44.832 628.189Z" fill="black"/>
<path d="M64.9087 388.199L64.9087 390.677L53.3377 395.087C52.5187 395.402 52.0987 395.822 52.0987 396.494L52.0987 397.082C51.4267 397.082 51.1117 397.019 51.1117 396.746L51.1117 391.643C51.7837 391.643 52.0987 391.706 52.0987 391.958L52.0987 392.504C52.0987 393.176 52.5187 393.491 53.3377 393.197L55.3537 392.441L55.3537 386.414L54.6187 386.141C53.6527 385.805 52.8547 385.595 52.0987 386.162L52.0987 387.443C51.4267 387.443 51.1117 387.38 51.1117 387.107L51.1117 382.424C51.7837 382.424 52.0987 382.487 52.0987 382.76L52.0987 383.096C52.0987 383.705 52.6867 384.209 53.5687 384.545L63.0817 388.136C63.7117 388.367 64.3417 388.409 64.9087 388.199ZM56.3617 386.75L56.3617 392.084L63.7747 389.375L56.3617 386.75ZM66.4417 413.374L52.9177 413.374C52.4977 413.374 52.2877 413.5 52.2877 414.592L52.2877 414.991C51.4687 414.991 51.3427 414.928 51.2797 414.55L50.8177 411.988L51.9517 411.82C51.3427 410.959 50.8177 409.993 50.8177 408.943C50.8177 406.15 52.7287 404.764 55.5847 404.764C58.4407 404.764 60.6037 406.402 60.6037 409.195C60.6037 410.077 60.4357 410.98 60.0787 411.757L64.4257 411.757C64.8457 411.757 64.9717 411.631 64.9717 410.56L64.9717 410.14C65.7907 410.14 65.9167 410.203 65.9797 410.602L66.4417 413.374ZM58.9447 411.757C59.2597 411.106 59.4907 410.266 59.4907 409.51C59.4907 407.431 57.9157 406.549 55.5847 406.549C53.3797 406.549 51.9517 407.221 51.9517 409.237C51.9517 410.182 52.4137 410.98 53.0437 411.757L58.9447 411.757ZM55.7107 424.573L55.7107 418.294C53.4427 418.294 51.8887 419.05 51.8887 421.15C51.8887 422.179 52.2667 423.208 53.1067 424.069C52.7917 424.489 52.3507 424.489 52.0777 424.216C51.3427 423.502 50.8177 422.326 50.8177 420.772C50.8177 418.105 52.7497 416.53 55.7107 416.53C59.0707 416.53 60.6037 418.357 60.6037 420.772C60.6037 422.977 59.1757 424.594 56.5927 424.594C56.3197 424.594 56.0257 424.594 55.7107 424.573ZM56.6347 418.336L56.6347 422.431C56.6347 422.746 56.7187 422.809 57.0757 422.809C58.6507 422.809 59.6797 422.095 59.6797 420.772C59.6797 419.155 58.6507 418.483 56.6347 418.336ZM60.1417 432.94L58.2517 432.94C57.7477 432.94 57.6217 432.835 57.6217 432.205C58.9657 431.995 59.7007 431.407 59.7007 430.021C59.7007 428.929 59.1337 428.194 58.2517 428.194C56.0467 428.194 56.9707 433.36 53.8207 433.36C51.8467 433.36 50.8177 432.1 50.8177 429.559C50.8177 428.572 51.0487 427.543 51.3847 426.64L53.3587 426.64C54.0097 426.64 54.1147 426.745 54.1147 427.417C52.4137 427.585 51.7207 428.215 51.7207 429.853C51.7207 431.071 52.3087 431.806 53.3167 431.806C55.5637 431.806 54.5347 426.787 57.7687 426.787C59.3647 426.787 60.6037 427.711 60.6037 430.021C60.6037 430.945 60.4567 432.058 60.1417 432.94ZM63.3967 436.774C63.6697 436.69 64.0687 436.669 64.2997 436.669C65.0137 436.669 65.3077 437.089 65.3077 437.719C65.3077 438.37 65.0137 438.79 64.2997 438.79C63.5857 438.79 63.2917 438.37 63.2917 437.719C63.2917 437.467 63.3337 437.047 63.3967 436.774ZM52.0987 439.168L52.0987 440.239C51.3217 440.239 51.1117 440.176 51.1117 439.819L51.1117 435.199C51.9307 435.199 52.0987 435.262 52.0987 435.556L52.0987 436.27C52.0987 436.774 52.3927 436.921 52.9177 436.921L58.6087 436.921C59.0077 436.921 59.1337 436.795 59.1337 435.724L59.1337 435.304C59.9527 435.304 60.0787 435.367 60.1417 435.745L60.6037 438.538L52.9177 438.538C52.3717 438.538 52.0987 438.748 52.0987 439.168ZM60.6037 451.126C59.6797 451.231 59.2807 451.231 59.2807 450.559L59.2807 449.11C58.7977 449.467 58.1887 449.635 57.5167 449.635C55.7947 449.635 54.4297 448.48 54.4297 445.876C54.4297 445.33 54.4927 444.868 54.5977 444.448C54.3247 443.986 53.9257 443.734 53.5057 443.734C52.8757 443.734 52.5607 444.154 52.5607 445.099L52.5607 448.081C52.5607 450.034 51.4267 451.084 49.7677 451.084C47.4367 451.084 46.0507 449.383 46.0507 446.275C46.0507 443.335 47.0377 441.466 49.1797 441.466C50.3137 441.466 50.7967 441.928 50.7967 443.23L49.3897 443.23C47.9827 443.23 46.9957 444.238 46.9957 446.275C46.9957 448.438 47.8987 449.572 49.3687 449.572C50.5657 449.572 51.1327 448.795 51.1327 447.073L51.1327 444.7C51.1327 442.768 51.9307 442.222 52.9597 442.222L53.7157 442.222L54.9337 443.566C55.4797 442.558 56.4247 442.096 57.5167 442.096C59.2387 442.096 60.6037 443.251 60.6037 445.876C60.6037 446.779 60.4567 447.493 60.1627 448.06L60.6037 451.126ZM59.7007 445.876C59.7007 444.49 58.7557 443.797 57.5167 443.797C56.2777 443.797 55.3537 444.49 55.3537 445.876C55.3537 447.262 56.2777 447.955 57.5167 447.955C58.7557 447.955 59.7007 447.262 59.7007 445.876ZM60.6037 455.46L59.3017 455.649C60.0577 456.93 60.6037 458.064 60.6037 459.429C60.6037 461.319 59.2177 462.012 57.4747 462.012L52.9177 462.012C52.3717 462.012 52.0987 462.222 52.0987 462.642L52.0987 463.629C51.3217 463.629 51.1117 463.566 51.1117 463.23L51.1117 458.757C51.9307 458.757 52.0987 458.82 52.0987 459.114L52.0987 459.744C52.0987 460.248 52.3927 460.416 52.9177 460.416L57.3487 460.416C58.6087 460.416 59.2387 459.996 59.2387 458.652C59.2387 457.707 58.8397 456.615 58.3987 455.67L52.9177 455.67C52.3717 455.67 52.0987 455.88 52.0987 456.3L52.0987 457.308C51.3217 457.308 51.1117 457.224 51.1117 456.888L51.1117 452.415C51.9307 452.415 52.0987 452.478 52.0987 452.772L52.0987 453.402C52.0987 453.906 52.3927 454.074 52.9177 454.074L58.5247 454.074C58.9237 454.074 59.1337 453.927 59.1337 452.856L59.1337 452.436C59.9527 452.436 60.0787 452.52 60.1417 452.898L60.6037 455.46ZM55.7107 473.091L55.7107 466.812C53.4427 466.812 51.8887 467.568 51.8887 469.668C51.8887 470.697 52.2667 471.726 53.1067 472.587C52.7917 473.007 52.3507 473.007 52.0777 472.734C51.3427 472.02 50.8177 470.844 50.8177 469.29C50.8177 466.623 52.7497 465.048 55.7107 465.048C59.0707 465.048 60.6037 466.875 60.6037 469.29C60.6037 471.495 59.1757 473.112 56.5927 473.112C56.3197 473.112 56.0257 473.112 55.7107 473.091ZM56.6347 466.854L56.6347 470.949C56.6347 471.264 56.7187 471.327 57.0757 471.327C58.6507 471.327 59.6797 470.613 59.6797 469.29C59.6797 467.673 58.6507 467.001 56.6347 466.854ZM60.6037 477.824L59.3647 478.013C60.0997 478.937 60.6037 479.777 60.6037 481.037C60.6037 481.562 60.5827 482.129 60.5407 482.654L58.4197 482.654C57.8107 482.654 57.5167 482.339 57.5167 481.625L59.4067 480.932C59.4277 480.722 59.4487 480.512 59.4487 480.239C59.4487 479.42 58.9447 478.727 58.3567 478.034L52.9177 478.034C52.3717 478.034 52.0987 478.244 52.0987 478.664L52.0987 479.672C51.3217 479.672 51.1117 479.588 51.1117 479.252L51.1117 474.779C51.9307 474.779 52.0987 474.842 52.0987 475.136L52.0987 475.766C52.0987 476.27 52.3927 476.438 52.9177 476.438L58.5247 476.438C58.9237 476.438 59.1337 476.291 59.1337 475.22L59.1337 474.8C59.9527 474.8 60.0787 474.884 60.1417 475.262L60.6037 477.824ZM67.6387 484.915C67.6387 485.818 67.2187 486.238 66.2527 486.238C64.5727 486.238 63.3547 485.944 62.7667 484.054C63.0817 483.781 63.4177 483.718 63.6487 484.159C64.0057 484.831 64.4887 484.999 65.3497 485.02C65.3707 484.558 65.4127 484.117 65.4967 483.739C65.8117 483.655 66.2317 483.613 66.4837 483.613C67.3027 483.613 67.6387 484.138 67.6387 484.915ZM60.1417 493.137L58.2517 493.137C57.7477 493.137 57.6217 493.032 57.6217 492.402C58.9657 492.192 59.7007 491.604 59.7007 490.218C59.7007 489.126 59.1337 488.391 58.2517 488.391C56.0467 488.391 56.9707 493.557 53.8207 493.557C51.8467 493.557 50.8177 492.297 50.8177 489.756C50.8177 488.769 51.0487 487.74 51.3847 486.837L53.3587 486.837C54.0097 486.837 54.1147 486.942 54.1147 487.614C52.4137 487.782 51.7207 488.412 51.7207 490.05C51.7207 491.268 52.3087 492.003 53.3167 492.003C55.5637 492.003 54.5347 486.984 57.7687 486.984C59.3647 486.984 60.6037 487.908 60.6037 490.218C60.6037 491.142 60.4567 492.255 60.1417 493.137Z" fill="black"/>
<path d="M39.4643 346.7L36.7133 346.889C36.1253 346.931 35.9573 346.847 35.9573 346.133C38.1203 345.356 38.4773 345.041 38.4773 343.067L38.4773 340.211L33.3953 340.211L33.3953 342.794C33.3953 343.592 33.6893 344.222 34.3613 344.222L35.1593 344.222C35.1593 344.894 35.0753 345.209 34.8233 345.209L30.5183 345.209C30.5183 344.537 30.6023 344.222 30.8543 344.222L31.4213 344.222C32.0933 344.222 32.3873 343.592 32.3873 342.794L32.3873 340.211L28.0823 340.211C27.2843 340.211 26.6543 340.526 26.6543 341.282L26.6543 343.697C26.6543 345.65 27.0113 345.965 29.1743 346.763C29.1743 347.477 29.0063 347.54 28.3973 347.498L25.6673 347.309L25.6673 336.641C26.3393 336.641 26.6543 336.704 26.6543 336.977L26.6543 337.649C26.6543 338.321 27.0743 338.51 27.8723 338.51L37.2593 338.51C38.0573 338.51 38.4773 338.321 38.4773 337.649L38.4773 336.641C39.1493 336.641 39.4643 336.704 39.4643 336.977L39.4643 346.7ZM34.8653 359.336C34.0463 359.336 33.8783 359.273 33.8783 358.979L33.8783 358.496C33.8783 358.076 33.6473 357.95 33.0593 357.698L25.3733 354.464L25.3733 353.855C25.3733 353.12 25.4573 352.994 25.8773 352.805L33.0593 349.823C33.6473 349.571 33.8783 349.445 33.8783 349.046L33.8783 348.248C34.6763 348.248 34.8653 348.311 34.8653 348.668L34.8653 353.141C34.0463 353.141 33.8783 353.099 33.8783 352.784L33.8783 352.091C33.8783 351.524 33.5843 351.356 33.0593 351.566L26.8223 354.044L32.1563 356.165C32.7653 356.417 33.4163 356.438 33.8783 356.207L33.8783 354.674C34.6763 354.674 34.8653 354.758 34.8653 355.094L34.8653 359.336ZM30.2663 368.077L30.2663 361.798C27.9983 361.798 26.4443 362.554 26.4443 364.654C26.4443 365.683 26.8223 366.712 27.6623 367.573C27.3473 367.993 26.9063 367.993 26.6333 367.72C25.8983 367.006 25.3733 365.83 25.3733 364.276C25.3733 361.609 27.3053 360.034 30.2663 360.034C33.6263 360.034 35.1593 361.861 35.1593 364.276C35.1593 366.481 33.7313 368.098 31.1483 368.098C30.8753 368.098 30.5813 368.098 30.2663 368.077ZM31.1903 361.84L31.1903 365.935C31.1903 366.25 31.2743 366.313 31.6313 366.313C33.2063 366.313 34.2353 365.599 34.2353 364.276C34.2353 362.659 33.2063 361.987 31.1903 361.84ZM35.1593 372.811L33.9203 373C34.6553 373.924 35.1593 374.764 35.1593 376.024C35.1593 376.549 35.1383 377.116 35.0963 377.641L32.9753 377.641C32.3663 377.641 32.0723 377.326 32.0723 376.612L33.9623 375.919C33.9833 375.709 34.0043 375.499 34.0043 375.226C34.0043 374.407 33.5003 373.714 32.9123 373.021L27.4733 373.021C26.9273 373.021 26.6543 373.231 26.6543 373.651L26.6543 374.659C25.8773 374.659 25.6673 374.575 25.6673 374.239L25.6673 369.766C26.4863 369.766 26.6543 369.829 26.6543 370.123L26.6543 370.753C26.6543 371.257 26.9483 371.425 27.4733 371.425L33.0803 371.425C33.4793 371.425 33.6893 371.278 33.6893 370.207L33.6893 369.787C34.5083 369.787 34.6343 369.871 34.6973 370.249L35.1593 372.811ZM34.8653 389.447C34.0463 389.447 33.8783 389.405 33.8783 389.09L33.8783 388.607C33.8783 388.187 33.6473 388.04 33.0593 387.809L25.3733 384.617C23.6933 383.924 22.1813 383.147 20.6063 382.034L21.3623 380.207C21.5933 379.661 21.8873 379.556 22.5173 379.829L22.5173 381.971C23.4833 382.643 24.4073 383.105 25.3943 383.525C25.4363 383.168 25.5623 383.042 25.8773 382.916L33.0593 379.934C33.6473 379.703 33.8783 379.556 33.8783 379.157L33.8783 378.359C34.6763 378.359 34.8653 378.443 34.8653 378.779L34.8653 383.273C34.0463 383.273 33.8783 383.21 33.8783 382.916L33.8783 382.202C33.8783 381.635 33.5843 381.488 33.0593 381.698L26.8223 384.176L32.1563 386.276C32.7653 386.528 33.4163 386.549 33.8783 386.318L33.8783 384.806C34.6763 384.806 34.8653 384.869 34.8653 385.226L34.8653 389.447ZM40.9973 398.755L27.4733 398.755C27.0533 398.755 26.8433 398.881 26.8433 399.973L26.8433 400.372C26.0243 400.372 25.8983 400.309 25.8353 399.931L25.3733 397.369L26.5073 397.201C25.8983 396.34 25.3733 395.374 25.3733 394.324C25.3733 391.531 27.2843 390.145 30.1403 390.145C32.9963 390.145 35.1593 391.783 35.1593 394.576C35.1593 395.458 34.9913 396.361 34.6343 397.138L38.9813 397.138C39.4013 397.138 39.5273 397.012 39.5273 395.941L39.5273 395.521C40.3463 395.521 40.4723 395.584 40.5353 395.983L40.9973 398.755ZM33.5003 397.138C33.8153 396.487 34.0463 395.647 34.0463 394.891C34.0463 392.812 32.4713 391.93 30.1403 391.93C27.9353 391.93 26.5073 392.602 26.5073 394.618C26.5073 395.563 26.9693 396.361 27.5993 397.138L33.5003 397.138ZM32.2823 404.222L32.2823 403.193C32.2823 402.731 32.4293 402.5 32.8493 402.5C34.1303 402.5 35.1593 404.096 35.1593 406.112C35.1593 408.17 34.4033 409.556 32.6393 409.556L27.4523 409.556C26.8223 409.556 26.6543 409.64 26.6543 410.228L26.6543 410.879C25.8773 410.879 25.6673 410.795 25.6673 410.459L25.6673 408.233L26.6333 408.065C25.8353 407.078 25.3733 406.196 25.3733 405.062C25.3733 403.025 26.4023 402.059 28.0823 402.059C30.0983 402.059 30.7493 403.802 30.8963 406.301L31.0013 407.939L32.4713 407.939C33.6473 407.939 34.2353 407.372 34.2353 406.112C34.2353 404.789 33.5843 404.222 32.2823 404.222ZM30.0773 407.939L29.9723 406.259C29.8673 404.558 29.2793 403.697 28.0823 403.697C27.2003 403.697 26.4653 404.243 26.4653 405.356C26.4653 406.238 26.9273 407.141 27.4943 407.939L30.0773 407.939ZM34.8653 422.121C34.0463 422.121 33.8783 422.079 33.8783 421.764L33.8783 421.281C33.8783 420.861 33.6473 420.714 33.0593 420.483L25.3733 417.291C23.6933 416.598 22.1813 415.821 20.6063 414.708L21.3623 412.881C21.5933 412.335 21.8873 412.23 22.5173 412.503L22.5173 414.645C23.4833 415.317 24.4073 415.779 25.3943 416.199C25.4363 415.842 25.5623 415.716 25.8773 415.59L33.0593 412.608C33.6473 412.377 33.8783 412.23 33.8783 411.831L33.8783 411.033C34.6763 411.033 34.8653 411.117 34.8653 411.453L34.8653 415.947C34.0463 415.947 33.8783 415.884 33.8783 415.59L33.8783 414.876C33.8783 414.309 33.5843 414.162 33.0593 414.372L26.8223 416.85L32.1563 418.95C32.7653 419.202 33.4163 419.223 33.8783 418.992L33.8783 417.48C34.6763 417.48 34.8653 417.543 34.8653 417.9L34.8653 422.121ZM32.2823 431.954L32.2823 430.925C32.2823 430.463 32.4293 430.232 32.8493 430.232C34.1303 430.232 35.1593 431.828 35.1593 433.844C35.1593 435.902 34.4033 437.288 32.6393 437.288L27.4523 437.288C26.8223 437.288 26.6543 437.372 26.6543 437.96L26.6543 438.611C25.8773 438.611 25.6673 438.527 25.6673 438.191L25.6673 435.965L26.6333 435.797C25.8353 434.81 25.3733 433.928 25.3733 432.794C25.3733 430.757 26.4023 429.791 28.0823 429.791C30.0983 429.791 30.7493 431.534 30.8963 434.033L31.0013 435.671L32.4713 435.671C33.6473 435.671 34.2353 435.104 34.2353 433.844C34.2353 432.521 33.5843 431.954 32.2823 431.954ZM30.0773 435.671L29.9723 433.991C29.8673 432.29 29.2793 431.429 28.0823 431.429C27.2003 431.429 26.4653 431.975 26.4653 433.088C26.4653 433.97 26.9273 434.873 27.4943 435.671L30.0773 435.671ZM35.1593 442.974L33.8573 443.163C34.6133 444.444 35.1593 445.578 35.1593 446.943C35.1593 448.833 33.7733 449.526 32.0303 449.526L27.4733 449.526C26.9273 449.526 26.6543 449.736 26.6543 450.156L26.6543 451.143C25.8773 451.143 25.6673 451.08 25.6673 450.744L25.6673 446.271C26.4863 446.271 26.6543 446.334 26.6543 446.628L26.6543 447.258C26.6543 447.762 26.9483 447.93 27.4733 447.93L31.9043 447.93C33.1643 447.93 33.7943 447.51 33.7943 446.166C33.7943 445.221 33.3953 444.129 32.9543 443.184L27.4733 443.184C26.9273 443.184 26.6543 443.394 26.6543 443.814L26.6543 444.822C25.8773 444.822 25.6673 444.738 25.6673 444.402L25.6673 439.929C26.4863 439.929 26.6543 439.992 26.6543 440.286L26.6543 440.916C26.6543 441.42 26.9483 441.588 27.4733 441.588L33.0803 441.588C33.4793 441.588 33.6893 441.441 33.6893 440.37L33.6893 439.95C34.5083 439.95 34.6343 440.034 34.6973 440.412L35.1593 442.974ZM40.9973 461.172L27.4733 461.172C27.0533 461.172 26.8433 461.298 26.8433 462.39L26.8433 462.789C26.0243 462.789 25.8983 462.726 25.8353 462.348L25.3733 459.786L26.5073 459.618C25.8983 458.757 25.3733 457.791 25.3733 456.741C25.3733 453.948 27.2843 452.562 30.1403 452.562C32.9963 452.562 35.1593 454.2 35.1593 456.993C35.1593 457.875 34.9913 458.778 34.6343 459.555L38.9813 459.555C39.4013 459.555 39.5273 459.429 39.5273 458.358L39.5273 457.938C40.3463 457.938 40.4723 458.001 40.5353 458.4L40.9973 461.172ZM33.5003 459.555C33.8153 458.904 34.0463 458.064 34.0463 457.308C34.0463 455.229 32.4713 454.347 30.1403 454.347C27.9353 454.347 26.5073 455.019 26.5073 457.035C26.5073 457.98 26.9693 458.778 27.5993 459.555L33.5003 459.555ZM38.4773 470.719C39.1493 470.719 39.4643 470.782 39.4643 471.055L39.4643 475.885C39.4643 479.056 38.3513 481.135 35.6003 481.135C32.7863 481.135 31.3163 478.951 31.3163 475.843C31.3163 475.402 31.6943 475.192 32.3033 475.276L32.3033 475.591C32.3033 478.09 33.4583 479.245 35.6003 479.245C37.4693 479.245 38.4773 477.985 38.4773 475.654L38.4773 474.289L27.8723 474.289C27.0743 474.289 26.6543 474.478 26.6543 475.15L26.6543 476.263C25.9823 476.263 25.6673 476.2 25.6673 475.927L25.6673 470.719C26.3393 470.719 26.6543 470.782 26.6543 471.055L26.6543 471.727C26.6543 472.399 27.0743 472.588 27.8723 472.588L37.2593 472.588C38.0573 472.588 38.4773 472.399 38.4773 471.727L38.4773 470.719ZM35.1593 485.714L33.9203 485.903C34.6553 486.827 35.1593 487.667 35.1593 488.927C35.1593 489.452 35.1383 490.019 35.0963 490.544L32.9753 490.544C32.3663 490.544 32.0723 490.229 32.0723 489.515L33.9623 488.822C33.9833 488.612 34.0043 488.402 34.0043 488.129C34.0043 487.31 33.5003 486.617 32.9123 485.924L27.4733 485.924C26.9273 485.924 26.6543 486.134 26.6543 486.554L26.6543 487.562C25.8773 487.562 25.6673 487.478 25.6673 487.142L25.6673 482.669C26.4863 482.669 26.6543 482.732 26.6543 483.026L26.6543 483.656C26.6543 484.16 26.9483 484.328 27.4733 484.328L33.0803 484.328C33.4793 484.328 33.6893 484.181 33.6893 483.11L33.6893 482.69C34.5083 482.69 34.6343 482.774 34.6973 483.152L35.1593 485.714ZM32.2823 494.001L32.2823 492.972C32.2823 492.51 32.4293 492.279 32.8493 492.279C34.1303 492.279 35.1593 493.875 35.1593 495.891C35.1593 497.949 34.4033 499.335 32.6393 499.335L27.4523 499.335C26.8223 499.335 26.6543 499.419 26.6543 500.007L26.6543 500.658C25.8773 500.658 25.6673 500.574 25.6673 500.238L25.6673 498.012L26.6333 497.844C25.8353 496.857 25.3733 495.975 25.3733 494.841C25.3733 492.804 26.4023 491.838 28.0823 491.838C30.0983 491.838 30.7493 493.581 30.8963 496.08L31.0013 497.718L32.4713 497.718C33.6473 497.718 34.2353 497.151 34.2353 495.891C34.2353 494.568 33.5843 494.001 32.2823 494.001ZM30.0773 497.718L29.9723 496.038C29.8673 494.337 29.2793 493.476 28.0823 493.476C27.2003 493.476 26.4653 494.022 26.4653 495.135C26.4653 496.017 26.9273 496.92 27.4943 497.718L30.0773 497.718ZM34.5293 509.957L32.3663 509.957C31.7153 509.957 31.5683 509.726 31.5683 509.054C33.1013 508.907 34.2143 508.172 34.2143 506.597C34.2143 504.77 32.8913 503.993 30.2453 503.993C27.9773 503.993 26.4233 504.749 26.4233 506.849C26.4233 507.878 26.8013 508.802 27.6413 509.663C27.3263 510.083 26.8853 510.083 26.6123 509.81C25.8773 509.096 25.3523 508.025 25.3523 506.471C25.3523 503.804 27.2843 502.187 30.2453 502.187C33.6053 502.187 35.1383 504.329 35.1383 506.765C35.1383 507.752 34.9283 508.991 34.5293 509.957ZM26.9483 517.895C26.5703 518.231 26.0873 518.168 25.8773 517.811C25.5413 517.244 25.3733 516.53 25.3733 515.69C25.3733 513.821 26.2763 512.771 29.0063 512.771L33.8363 512.771L33.8363 511.196C34.3613 511.196 34.7603 511.238 34.7813 511.616L34.8233 512.561L37.3853 513.485C37.3853 514.262 37.1333 514.388 36.5243 514.388L34.9073 514.388L35.0543 518.042C34.1093 518.147 33.8363 518.063 33.8363 517.475L33.8363 514.388L29.0063 514.388C26.9693 514.388 26.4653 514.766 26.4653 516.068C26.4653 516.761 26.6753 517.349 26.9483 517.895ZM34.5293 527.132L32.3663 527.132C31.7153 527.132 31.5683 526.901 31.5683 526.229C33.1013 526.082 34.2143 525.347 34.2143 523.772C34.2143 521.945 32.8913 521.168 30.2453 521.168C27.9773 521.168 26.4233 521.924 26.4233 524.024C26.4233 525.053 26.8013 525.977 27.6413 526.838C27.3263 527.258 26.8853 527.258 26.6123 526.985C25.8773 526.271 25.3523 525.2 25.3523 523.646C25.3523 520.979 27.2843 519.362 30.2453 519.362C33.6053 519.362 35.1383 521.504 35.1383 523.94C35.1383 524.927 34.9283 526.166 34.5293 527.132ZM30.2663 536.813L30.2663 530.534C27.9983 530.534 26.4443 531.29 26.4443 533.39C26.4443 534.419 26.8223 535.448 27.6623 536.309C27.3473 536.729 26.9063 536.729 26.6333 536.456C25.8983 535.742 25.3733 534.566 25.3733 533.012C25.3733 530.345 27.3053 528.77 30.2663 528.77C33.6263 528.77 35.1593 530.597 35.1593 533.012C35.1593 535.217 33.7313 536.834 31.1483 536.834C30.8753 536.834 30.5813 536.834 30.2663 536.813ZM31.1903 530.576L31.1903 534.671C31.1903 534.986 31.2743 535.049 31.6313 535.049C33.2063 535.049 34.2353 534.335 34.2353 533.012C34.2353 531.395 33.2063 530.723 31.1903 530.576Z" fill="black"/>
<g clip-path="url(#clip0_107_269)">
<path d="M33.9702 710.089L36.9318 710.089L36.9318 713.482L38.7373 713.482L38.7373 708.51L33.9702 708.51L33.9702 710.089Z" fill="black"/>
<path d="M38.7373 714.038L33.9702 714.038L33.9702 715.577L38.7373 715.577L38.7373 714.038Z" fill="black"/>
<path d="M40.4878 709.83L43.4689 709.83L43.4689 710.539L40.4878 710.539L40.4878 710.996L40.4878 711.51L40.4878 712.288L40.4878 712.747L40.4878 713.482L45.2116 713.482L45.2116 712.288L42.2305 712.288L42.2305 711.51L45.2116 711.51L45.2116 710.921L45.2116 710.539L45.2116 709.83L45.2116 709.169L45.2116 708.51L40.4878 708.51L40.4878 709.83Z" fill="black"/>
<path d="M56.4767 711.94L55.9073 711.94L55.9073 710.124L56.4767 710.124L56.4767 708.51L51.7539 708.51L51.7539 710.124L52.3287 710.124L52.3287 711.94L51.7539 711.94L51.7539 713.481L56.4767 713.481L56.4767 711.94ZM53.7337 710.124L54.433 710.124L54.433 711.94L53.7337 711.94L53.7337 710.124Z" fill="black"/>
<path d="M30.6718 707.747L28.9302 707.747L28.9302 716.63L30.6718 716.63L30.6718 712.181L32.1732 712.181L32.1732 710.642L30.6718 710.642L30.6718 707.747Z" fill="black"/>
<path d="M27.1875 721.338L28.2786 721.338L28.9302 721.338L31.854 721.338L31.854 719.801L28.9302 719.801L28.9302 716.63L27.1875 716.63L27.1875 721.338Z" fill="black"/>
<path d="M67.7935 714.053L63.0264 714.053L63.0264 715.609L67.7935 715.609L67.7935 714.053Z" fill="black"/>
<path d="M48.516 707.747L46.73 707.747L46.73 716.63L48.516 716.63L48.516 712.189L49.9903 712.189L49.9903 710.634L48.516 710.634L48.516 707.747Z" fill="black"/>
<path d="M59.777 707.747L57.9898 707.747L57.9898 716.389L56.4766 716.389L56.4766 717.944L59.4566 717.944L59.4566 721.33L61.2437 721.33L61.2437 717.944L61.2437 717.434L61.2437 716.389L59.777 716.389L59.777 707.747Z" fill="black"/>
<path d="M65.424 711.212L66.6136 713.29L68.1864 712.692L65.4088 707.673L62.6323 712.692L64.1954 713.29L65.424 711.212Z" fill="black"/>
<path d="M25.0713 708.522C23.5028 708.522 22.231 709.642 22.231 711.023C22.231 712.404 23.5028 713.524 25.0713 713.524C26.6398 713.524 27.9117 712.404 27.9117 711.023C27.9117 709.642 26.6398 708.522 25.0713 708.522ZM25.0713 711.95C24.49 711.95 24.0192 711.535 24.0192 711.023C24.0192 710.511 24.49 710.097 25.0713 710.097C25.6526 710.097 26.1235 710.511 26.1235 711.023C26.1235 711.535 25.6526 711.95 25.0713 711.95Z" fill="black"/>
</g>
<defs>
<clipPath id="clip0_107_269">
<rect width="45.9555" height="13.6654" fill="white" transform="translate(22.231 707.673)"/>
</clipPath>
</defs>
</svg>
