<svg width="71" height="741" viewBox="0 0 71 741" fill="none" xmlns="http://www.w3.org/2000/svg">
<path d="M0 0L71 0L71 741L0 741L0 0Z" fill="#EEC7DA"/>
<path d="M39.2 40.48L39.2 39.2L42.2 39.2L42.2 44.06L39.36 44.06C35.62 44.06 32.52 45.46 29.48 48.94L26.82 46.72C28.38 44.88 30.2 43.28 32.52 42.28C30.24 41.28 28.44 39.64 26.82 37.72L29.48 35.54C31.8 38.48 35.22 40.48 38.76 40.48L39.2 40.48ZM26 52.46L26 49.02L39.82 49.02L39.82 47.66L42.8 47.66L42.8 52.46L36.42 52.46L36.42 54.6L32.8 54.6L32.8 52.46L26 52.46ZM32.52 72.92L32.52 69.48L33.66 69.48C33.22 67.54 33.06 64.3 33.06 61.74L33.06 56.28L38.92 56.28L38.92 63.66L39.8 63.66L39.8 56.28L42.32 56.28L42.32 67.1L36.58 67.1L36.58 59.72L35.66 59.72L35.66 62.02C35.66 63.92 35.72 67.58 36.24 69.48L40.04 69.48L40.04 68.12L42.8 68.12L42.8 72.92L39.3 72.92L39.3 74.8L35.82 74.8L35.82 72.92L32.52 72.92ZM32.42 64.98C32.42 69.94 31.84 72.92 29 72.92C26.16 72.92 25.58 69.94 25.58 64.98C25.58 60.02 26.16 57.04 29 57.04C31.84 57.04 32.42 60.02 32.42 64.98ZM28.24 64.98C28.24 68.06 28.38 69.06 29 69.06C29.62 69.06 29.76 68.06 29.76 64.98C29.76 61.9 29.62 60.9 29 60.9C28.38 60.9 28.24 61.9 28.24 64.98ZM39.16 76.94C42.06 76.94 42.7 79.76 42.7 85C42.7 90.28 42.06 93.1 39.16 93.1C36.24 93.1 35.64 90.28 35.64 85C35.64 79.74 36.26 76.94 39.16 76.94ZM26 92.94L26 77.86L28.34 77.86L28.34 76.7L31.18 76.7L31.18 81.3L29.02 81.3L29.02 92.94L26 92.94ZM31.9 93.92L31.9 76.08L34.82 76.08L34.82 93.92L31.9 93.92ZM39.16 80.76C38.54 80.76 38.38 81.82 38.38 85C38.38 88.2 38.56 89.22 39.16 89.22C39.76 89.22 39.96 88.2 39.96 85C39.96 81.82 39.78 80.76 39.16 80.76ZM36.68 106.64L36.68 102.1L39.14 102.1L39.14 113.5C39.38 113.52 39.64 113.54 39.9 113.54L39.9 102.34L42.48 102.34L42.48 117.26C39.8 117.26 36.96 116.96 35.32 116.76L35.48 113.24C35.82 113.28 36.22 113.3 36.68 113.34L36.68 110.46L35 110.46L35 118.92L32.38 118.92L32.38 101.08L35 101.08L35 106.64L36.68 106.64ZM28.74 101.88C31.18 101.88 31.94 104.5 31.94 109.94C31.94 115.42 31.18 118 28.74 118C26.3 118 25.54 115.42 25.54 109.94C25.54 104.48 26.3 101.88 28.74 101.88ZM28.74 105.7C28.28 105.7 28.02 106.36 28.02 109.94C28.02 113.54 28.3 114.18 28.74 114.18C29.18 114.18 29.46 113.54 29.46 109.94C29.46 106.36 29.2 105.7 28.74 105.7ZM32.56 137.72L32.56 134.28L34.2 134.28C33.74 132.42 33.52 128.92 33.52 127.16L33.52 121.76L39.48 121.76L39.48 120.76L42.36 120.76L42.36 131.52L39.46 131.52L39.46 125.24L36.58 125.24L36.58 127.36C36.58 128.76 36.68 132.14 37.28 134.28L39.96 134.28L39.96 132.92L42.8 132.92L42.8 137.72L39.16 137.72L39.16 139.6L35.68 139.6L35.68 137.72L32.56 137.72ZM25.8 137.72L25.8 134.26L28.98 134.26L28.98 122.54L32.06 122.54L32.06 137.72L25.8 137.72ZM36.68 146.64L36.68 142.1L39.14 142.1L39.14 153.5C39.38 153.52 39.64 153.54 39.9 153.54L39.9 142.34L42.48 142.34L42.48 157.26C39.8 157.26 36.96 156.96 35.32 156.76L35.48 153.24C35.82 153.28 36.22 153.3 36.68 153.34L36.68 150.46L35 150.46L35 158.92L32.38 158.92L32.38 141.08L35 141.08L35 146.64L36.68 146.64ZM28.74 141.88C31.18 141.88 31.94 144.5 31.94 149.94C31.94 155.42 31.18 158 28.74 158C26.3 158 25.54 155.42 25.54 149.94C25.54 144.48 26.3 141.88 28.74 141.88ZM28.74 145.7C28.28 145.7 28.02 146.36 28.02 149.94C28.02 153.54 28.3 154.18 28.74 154.18C29.18 154.18 29.46 153.54 29.46 149.94C29.46 146.36 29.2 145.7 28.74 145.7ZM32.56 177.72L32.56 174.28L34.2 174.28C33.74 172.42 33.52 168.92 33.52 167.16L33.52 161.76L39.48 161.76L39.48 160.76L42.36 160.76L42.36 171.52L39.46 171.52L39.46 165.24L36.58 165.24L36.58 167.36C36.58 168.76 36.68 172.14 37.28 174.28L39.96 174.28L39.96 172.92L42.8 172.92L42.8 177.72L39.16 177.72L39.16 179.6L35.68 179.6L35.68 177.72L32.56 177.72ZM25.8 177.72L25.8 174.26L28.98 174.26L28.98 162.54L32.06 162.54L32.06 177.72L25.8 177.72ZM29.42 194.18L29.42 195.48L26.58 195.48L26.58 189.2L29.42 189.2L29.42 190.5C33.28 190.86 36.82 193.28 38.9 195.08L38.9 189.78L37.24 189.78L37.24 186.3L41.9 186.3L41.9 198.72L38.86 198.72C35.98 196.22 32.88 194.32 29.42 194.18ZM32.74 217.78L32.74 202.58L39.28 202.58L39.28 201.44L42.28 201.44L42.28 206.1L40.56 206.1L40.56 214.26L42.28 214.26L42.28 217.78L32.74 217.78ZM25.66 211.9L25.66 208.12L27.84 208.12L27.84 201.08L31.2 201.08L31.2 218.92L27.84 218.92L27.84 211.9L25.66 211.9ZM37.38 206.1L35.94 206.1L35.94 214.26L37.38 214.26L37.38 206.1ZM25.82 249.38C28.66 246.42 33.38 242.18 37.3 242.18C40 242.18 41.54 243.84 41.54 245.86C41.54 247.54 40.56 248.74 38.12 249.38C40.56 250.02 41.54 251.22 41.54 252.9C41.54 254.92 40 256.58 37.3 256.58C33.38 256.58 28.66 252.34 25.82 249.38ZM39.82 292.438L39.82 291.078L42.8 291.078L42.8 295.878L36.42 295.878L36.42 298.018L32.8 298.018L32.8 295.878L26 295.878L26 292.438L28.52 292.438C27.86 290.698 27.38 287.738 27.38 284.478L27.38 280.598L39.02 280.598L39.02 279.338L42 279.338L42 284.298L30.76 284.298L30.76 285.898C30.76 288.018 31.28 291.098 31.86 292.438L39.82 292.438ZM26.04 316.078L26.04 312.778L27.2 312.778C26.42 308.858 26.42 302.858 26.42 299.058L29.7 299.058C29.7 300.418 29.68 301.898 29.7 303.398L32.1 303.398L32.1 306.978L29.82 306.978C29.94 309.038 30.12 311.038 30.48 312.778L39.82 312.778L39.82 311.398L42.8 311.398L42.8 316.078L36.42 316.078L36.42 318.218L32.8 318.218L32.8 316.078L26.04 316.078ZM37.66 299.418C40.58 299.418 42.52 301.458 42.52 305.198C42.52 308.958 40.58 310.998 37.66 310.998C34.78 310.998 32.8 308.958 32.8 305.198C32.8 301.458 34.78 299.418 37.66 299.418ZM37.66 303.038C36.22 303.038 35.84 304.138 35.84 305.198C35.84 306.298 36.24 307.358 37.66 307.358C39.08 307.358 39.48 306.278 39.48 305.198C39.48 304.138 39.08 303.038 37.66 303.038ZM38.76 336.818L38.76 326.278L42.16 326.278L42.16 340.678C37.12 340.678 35.22 340.438 31.86 339.978L32.12 336.258C34.02 336.518 35.64 336.738 38.76 336.818ZM26.24 342.338L26.24 324.498L29.7 324.498L29.7 342.338L26.24 342.338ZM27.38 348.278L27.38 345.598L39.02 345.598L39.02 344.338L42 344.338L42 349.298L30.8 349.298L30.8 349.498C30.8 351.878 31.36 355.218 31.96 356.498L28.64 357.198C27.98 355.598 27.38 351.998 27.38 348.278ZM26 361.718L26 358.278L32.34 358.278L32.34 354.738L35.76 354.738L35.76 358.278L37.42 358.278L37.42 354.738L40.84 354.738L40.84 358.278L42.8 358.278L42.8 361.718L26 361.718ZM26.7 365.998L29.7 364.338C31.76 368.938 34.44 370.918 38.68 371.158L38.68 365.138L42 365.138L42 374.958L40.1 374.958C32.5 374.958 28.84 371.138 26.7 365.998ZM26 380.878L26 377.438L39.82 377.438L39.82 376.078L42.8 376.078L42.8 380.878L36.42 380.878L36.42 383.018L32.8 383.018L32.8 380.878L26 380.878ZM34.82 389.498C39.32 389.498 42.3 391.118 42.3 395.158C42.3 399.178 39.32 400.778 34.82 400.778C29.86 400.778 26.82 399.178 26.82 395.158C26.82 391.118 29.86 389.498 34.82 389.498ZM26 406.758L26 403.198L39.82 403.198L39.82 401.818L42.8 401.818L42.8 406.758L26 406.758ZM34.7 392.978C31.26 392.978 30.26 393.738 30.26 395.158C30.26 396.558 31.3 397.358 34.7 397.358C37.9 397.358 38.86 396.538 38.86 395.158C38.86 393.738 37.9 392.978 34.7 392.978ZM26 426.738L26 423.438L28.82 423.438C28.46 421.958 28.22 419.898 28.06 417.698L26 417.698L26 414.198L27.88 414.198C27.82 412.418 27.8 410.698 27.8 409.258L30.94 409.258C30.94 413.958 30.92 419.518 31.88 423.438L36.36 423.438L36.36 421.558L39.54 421.558L39.54 423.438L42.8 423.438L42.8 426.738L26 426.738ZM32.12 414.938L32.12 410.198L38.6 410.198L38.6 417.458L39.52 417.458L39.52 410.198L42.32 410.198L42.32 420.898L35.98 420.898L35.98 413.638L35 413.638L35 415.818C35 417.778 35.1 420.298 35.3 421.738L32.56 421.958C32.32 420.718 32.12 417.578 32.12 414.938ZM26 446.798L26 430.718L31.06 430.718L31.06 442.998L31.7 442.998L31.7 430.718L34.1 430.718L34.1 446.798L29.08 446.798L29.08 434.518L28.44 434.518L28.44 446.798L26 446.798ZM34.66 429.798L37.44 429.118C37.92 431.958 38.6 433.098 39.4 433.498L39.4 429.958L42.36 429.958L42.36 440.758L39.4 440.758L39.4 437.638C38.6 438.038 37.92 439.198 37.44 442.038L34.66 441.358C34.96 439.018 35.72 436.778 37.04 435.578C35.72 434.378 34.96 432.118 34.66 429.798ZM34.6 446.798L34.6 443.318L40.08 443.318L40.08 441.958L42.8 441.958L42.8 446.798L34.6 446.798ZM31.06 471.338L31.06 468.018L31.74 468.018C31.26 464.398 31.2 457.878 31.2 453.798L34.14 453.798C34.14 455.218 34.12 456.758 34.12 458.298L35.1 458.298C35.4 455.798 36.36 454.718 37.84 454.718C38.48 454.718 38.8 454.838 39 454.918L39 454.158L41.7 454.158L41.7 458.238L42.72 458.238L42.72 461.958L41.7 461.958L41.7 466.078L39 466.078L39 465.318C38.76 465.418 38.48 465.538 37.84 465.538C36.4 465.538 35.4 464.438 35.1 461.898L34.16 461.898C34.2 464.178 34.34 466.318 34.64 468.018L39.98 468.018L39.98 466.658L42.8 466.658L42.8 471.338L38.96 471.338L38.96 473.218L35.46 473.218L35.46 471.338L31.06 471.338ZM25.8 471.358L25.8 467.898L27.38 467.898L27.38 455.018L30.3 455.018L30.3 471.358L25.8 471.358ZM38.38 458.018C37.72 458.018 37.52 458.818 37.52 460.118C37.52 461.458 37.72 462.218 38.38 462.218C39.04 462.218 39.24 461.438 39.24 460.118C39.24 458.818 39.04 458.018 38.38 458.018ZM30.66 487.338L30.66 475.398L32.42 475.398L32.42 478.458L33.2 478.458L33.2 474.498L35.36 474.498L35.36 492.338L33.2 492.338L33.2 488.538L32.42 488.538L32.42 491.498L28.44 491.498L28.44 479.578L27.84 479.578L27.84 491.498L26 491.498L26 475.398L30.04 475.398L30.04 487.338L30.66 487.338ZM40.66 487.118L40.66 475.398L42.48 475.398L42.48 491.498L38.44 491.498L38.44 479.798L37.86 479.798L37.86 491.498L35.98 491.498L35.98 475.398L40.06 475.398L40.06 487.118L40.66 487.118ZM33.2 482.018L32.42 482.018L32.42 484.938L33.2 484.938L33.2 482.018ZM39.16 495.358C42.06 495.358 42.7 498.178 42.7 503.418C42.7 508.698 42.06 511.518 39.16 511.518C36.24 511.518 35.64 508.698 35.64 503.418C35.64 498.158 36.26 495.358 39.16 495.358ZM26 511.358L26 496.278L28.34 496.278L28.34 495.118L31.18 495.118L31.18 499.718L29.02 499.718L29.02 511.358L26 511.358ZM31.9 512.338L31.9 494.498L34.82 494.498L34.82 512.338L31.9 512.338ZM39.16 499.178C38.54 499.178 38.38 500.238 38.38 503.418C38.38 506.618 38.56 507.638 39.16 507.638C39.76 507.638 39.96 506.618 39.96 503.418C39.96 500.238 39.78 499.178 39.16 499.178ZM30.18 521.138L26.44 521.138L26.44 517.298L30.18 517.298L30.18 521.138ZM39.6 519.518C39.6 518.118 38.68 517.318 37.16 517.318L37.16 513.658C40.5 513.658 42.42 515.898 42.42 519.458C42.42 522.938 40.74 525.178 38 525.178C36.34 525.178 35.18 524.298 34.24 522.378C33.72 521.318 33.2 520.978 32.34 520.978L31.72 520.978L31.72 517.458L32.62 517.458C34.32 517.458 35.14 518.018 36.12 520.018C36.66 521.118 37.16 521.518 37.86 521.518C38.84 521.518 39.6 520.958 39.6 519.518Z" fill="#20AB68"/>
<path d="M24.5998 698.641H22.4608V690.775H24.5998V693.673H26.7848V695.743H24.5998V698.641ZM14.6868 697.169L17.8378 694.34L20.9888 697.192L19.6548 698.618L17.8378 696.985L16.0438 698.618L14.6868 697.169ZM28.678 690.407H33.37V695.559H30.817V696.571H33.37V698.641H28.678V693.489H31.231V692.477H28.678V690.407ZM35.026 702.39C35.026 700.964 36.199 699.791 37.648 699.791C39.097 699.791 40.27 700.964 40.27 702.39C40.27 703.816 39.097 704.989 37.648 704.989C36.199 704.989 35.026 703.816 35.026 702.39ZM37.487 698.641H35.348V690.775H37.487V693.673H39.672V695.743H37.487V698.641ZM37.142 702.39C37.142 702.689 37.372 702.919 37.648 702.919C37.901 702.919 38.154 702.689 38.154 702.39C38.154 702.091 37.901 701.838 37.648 701.838C37.372 701.838 37.142 702.091 37.142 702.39ZM51.4611 699.975H56.2451V708.209H51.4611V699.975ZM43.3191 695.743H41.0881V693.673H48.5861V695.743H46.4241L48.0111 697.169L46.7231 698.595L44.8831 696.939L43.0661 698.595L41.7551 697.146L43.3191 695.743ZM53.7611 698.641H51.6221V695.743H49.4371V693.673H51.6221V690.775H53.7611V698.641ZM54.1291 706.162V702.022H53.5771V706.162H54.1291Z" fill="#20AB68"/>
</svg>
