<svg width="77" height="59" viewBox="0 0 77 59" fill="none" xmlns="http://www.w3.org/2000/svg">
<path d="M69.1667 1.72917C65.3279 0.51875 61.1087 0 57.0625 0C50.3187 0 43.0562 1.38333 38.0417 5.1875C33.0271 1.38333 25.7646 0 19.0208 0C12.2771 0 5.01458 1.38333 0 5.1875V55.8521C0 56.7167 0.864583 57.5812 1.72917 57.5812C2.075 57.5812 2.24792 57.4083 2.59375 57.4083C7.2625 55.1604 14.0062 53.6042 19.0208 53.6042C25.7646 53.6042 33.0271 54.9875 38.0417 58.7917C42.7104 55.8521 51.1833 53.6042 57.0625 53.6042C62.7687 53.6042 68.6479 54.6417 73.4896 57.2354C73.8354 57.4083 74.0083 57.4083 74.3542 57.4083C75.2187 57.4083 76.0833 56.5438 76.0833 55.6792V5.1875C74.0083 3.63125 71.7604 2.59375 69.1667 1.72917ZM69.1667 48.4167C65.3625 47.2062 61.2125 46.6875 57.0625 46.6875C51.1833 46.6875 42.7104 48.9354 38.0417 51.875V12.1042C42.7104 9.16458 51.1833 6.91667 57.0625 6.91667C61.2125 6.91667 65.3625 7.43542 69.1667 8.64583V48.4167Z" fill="white"/>
<path d="M57.0625 20.75C60.1058 20.75 63.0454 21.0613 65.7083 21.6492V16.3925C62.9762 15.8737 60.0367 15.5625 57.0625 15.5625C51.1833 15.5625 45.8575 16.5654 41.5 18.4329V24.1738C45.4079 21.9604 50.8375 20.75 57.0625 20.75Z" fill="white"/>
<path d="M41.5 27.6321V33.373C45.4079 31.1596 50.8375 29.9492 57.0625 29.9492C60.1058 29.9492 63.0454 30.2605 65.7083 30.8484V25.5917C62.9762 25.073 60.0367 24.7617 57.0625 24.7617C51.1833 24.7617 45.8575 25.7992 41.5 27.6321Z" fill="white"/>
<path d="M57.0625 33.9961C51.1833 33.9961 45.8575 34.999 41.5 36.8665V42.6073C45.4079 40.394 50.8375 39.1836 57.0625 39.1836C60.1058 39.1836 63.0454 39.4948 65.7083 40.0828V34.8261C62.9762 34.2728 60.0367 33.9961 57.0625 33.9961Z" fill="white"/>
</svg>
