<svg width="81" height="84" viewBox="0 0 81 84" fill="none" xmlns="http://www.w3.org/2000/svg">
<path d="M24.5 67.5C20.1 67.5 16.54 71.1 16.54 75.5C16.54 79.9 20.1 83.5 24.5 83.5C28.9 83.5 32.5 79.9 32.5 75.5C32.5 71.1 28.9 67.5 24.5 67.5ZM0.5 0.5V8.5H8.5L22.9 38.86L17.5 48.66C16.86 49.78 16.5 51.1 16.5 52.5C16.5 56.9 20.1 61.5 24.5 61.5H72.5V52.5H26.18C25.62 52.5 25.18 52.06 25.18 51.5L25.3 51.02L28.9 44.5H58.7C61.7 44.5 64.34 42.86 65.7 40.38L80.02 14.42C80.34 13.86 80.5 13.18 80.5 12.5C80.5 10.3 78.7 8.5 76.5 8.5H17.34L13.58 0.5H0.5ZM64.5 67.5C60.1 67.5 56.54 71.1 56.54 75.5C56.54 79.9 60.1 83.5 64.5 83.5C68.9 83.5 72.5 79.9 72.5 75.5C72.5 71.1 68.9 67.5 64.5 67.5Z" fill="white"/>
</svg>
