<svg width="81" height="81" viewBox="0 0 81 81" fill="none" xmlns="http://www.w3.org/2000/svg">
<path d="M24.5 64.5C20.1 64.5 16.54 68.1 16.54 72.5C16.54 76.9 20.1 80.5 24.5 80.5C28.9 80.5 32.5 76.9 32.5 72.5C32.5 68.1 28.9 64.5 24.5 64.5ZM0.5 0.5V8.5H8.5L22.9 38.86L17.5 48.66C16.86 49.78 16.5 51.1 16.5 52.5C16.5 56.9 20.1 60.5 24.5 60.5H72.5V52.5H26.18C25.62 52.5 25.18 52.06 25.18 51.5L25.3 51.02L28.9 44.5H58.7C61.7 44.5 64.34 42.86 65.7 40.38L80.02 14.42C80.34 13.86 80.5 13.18 80.5 12.5C80.5 10.3 78.7 8.5 76.5 8.5H17.34L13.58 0.5H0.5ZM64.5 64.5C60.1 64.5 56.54 68.1 56.54 72.5C56.54 76.9 60.1 80.5 64.5 80.5C68.9 80.5 72.5 76.9 72.5 72.5C72.5 68.1 68.9 64.5 64.5 64.5Z" fill="white"/>
</svg>
